<svg width="50" height="46" viewBox="0 0 50 46" fill="none" xmlns="http://www.w3.org/2000/svg">
<path fill-rule="evenodd" clip-rule="evenodd" d="M1.03262 11.323L0 12.1357C0.0254884 12.2017 0.0510745 12.2677 0.0770512 12.3338C0.119337 12.4442 0.162403 12.5547 0.205079 12.6651C2.69367 19.1027 5.19066 25.5372 7.68549 31.9724C7.8104 32.2945 7.96323 33.1057 8.34116 33.2393C8.58628 33.3264 8.86568 33.1988 9.07564 33.0865C9.99625 32.595 21.1647 27.5599 21.1647 27.5599L21.7033 27.7857L24.4804 26.6354L24.5438 26.231C24.6495 26.1887 24.755 26.146 24.8604 26.103C25.1603 25.9811 25.4609 25.8596 25.761 25.7377C27.9678 24.8418 30.1748 23.9462 32.3817 23.0507C33.4697 22.6093 34.5576 22.1679 35.6456 21.7265C36.2051 21.4994 36.7647 21.2725 37.3241 21.0454C37.6646 20.9072 38.3504 20.7676 38.5917 20.4668C38.7178 20.3106 38.7508 20.0985 38.738 19.8912C38.6953 19.1999 30.5179 1.18819 30.5179 1.18819L29.0996 0.833984" fill="#074784"/>
<path fill-rule="evenodd" clip-rule="evenodd" d="M1.66641 10.3118L0.707031 11.5791L8.50171 32.2119L22.7516 26.1074L15.0845 6.63916L1.66641 10.3118Z" fill="#FC6084"/>
<path fill-rule="evenodd" clip-rule="evenodd" d="M29.602 0.951516L27.7416 0.515869L21.8828 23.8975L22.753 26.1074C31.9177 20.9417 37.8757 19.8583 37.8757 19.8583L29.602 0.951516Z" fill="#FC6084"/>
<path fill-rule="evenodd" clip-rule="evenodd" d="M15.0583 5.17017C15.0583 5.17017 3.55011 7.41178 1.66797 10.3117L9.04018 30.7912C9.04018 30.7912 15.8242 26.6622 22.4577 25.4371L15.0583 5.17017Z" fill="#F9D555"/>
<path fill-rule="evenodd" clip-rule="evenodd" d="M15.0586 5.17009C15.0586 5.17009 21.7905 -0.428189 27.7422 0.515664L36.4116 18.982C36.4116 18.982 28.8382 20.7488 22.4862 25.4287L15.0586 5.17009Z" fill="#F9D555"/>
<path fill-rule="evenodd" clip-rule="evenodd" d="M15.0586 5.16997L21.4749 22.4614L21.7099 22.3223L15.2181 5.02173L15.0586 5.16997Z" fill="#F0844F"/>
<path d="M10.8306 27.8969L11.308 27.6267C11.4682 27.5399 11.6398 27.4506 11.8154 27.3596C11.9879 27.2729 12.1696 27.1836 12.3536 27.096C12.7603 26.9041 13.1367 26.7374 13.5032 26.5859C13.8516 26.4398 14.2361 26.289 14.7157 26.1107C15.1384 25.9567 15.5092 25.8278 15.8471 25.7165L15.9928 25.6689C16.3338 25.5571 16.6999 25.4449 17.1457 25.3156C17.7035 25.155 18.2775 25.0054 18.8298 24.876L18.3009 25.0793L17.2021 25.4912L14.8108 26.3713C14.608 26.4443 14.4029 26.5191 14.2 26.5962L13.5984 26.8197L12.4274 27.2624L11.8686 27.4794L11.3363 27.6915L10.8203 27.9031L10.8306 27.8969Z" fill="#F0844F"/>
<path d="M9.97061 26.0593L10.4591 25.783C10.6219 25.695 10.7959 25.6042 10.9735 25.5119C11.1524 25.4216 11.3383 25.3301 11.5284 25.2395C11.943 25.0428 12.3275 24.8716 12.7038 24.7159C13.0576 24.5658 13.4506 24.4109 13.9421 24.2265C14.4244 24.0492 14.823 23.9092 15.1949 23.7869C15.2464 23.7702 15.2959 23.7535 15.3452 23.7375C15.6676 23.6315 16.0105 23.5254 16.4244 23.4031C16.9934 23.2363 17.5796 23.0796 18.1441 22.9446L17.6042 23.1541L16.4812 23.5783L14.0385 24.4866C13.8306 24.5619 13.6215 24.6393 13.4139 24.7185L12.7993 24.9487L11.6028 25.4054L11.0321 25.629L10.4878 25.8477L9.96094 26.0655L9.97061 26.0593Z" fill="#F0844F"/>
<path d="M9.34658 24.1191L9.821 23.8503C9.97988 23.7641 10.1506 23.6756 10.3248 23.5854C10.4951 23.4991 10.676 23.4106 10.8595 23.3239C11.263 23.1334 11.6366 22.968 12.0019 22.8179C12.3451 22.6735 12.7271 22.5244 13.2063 22.3466C13.6159 22.1979 13.9739 22.0733 14.2993 21.9668L14.4458 21.9188C14.7941 21.8044 15.1675 21.6904 15.6207 21.5603C16.1752 21.4014 16.7452 21.2531 17.2938 21.126L16.7688 21.3275L15.6768 21.7354L13.3012 22.6076C13.0992 22.6798 12.8959 22.7542 12.6939 22.8299L12.0964 23.0508L10.9331 23.4899L10.3784 23.7051L9.84902 23.915L9.33594 24.1254L9.34658 24.1191Z" fill="#F0844F"/>
<path d="M8.82744 21.7662L9.2873 21.5047C9.4415 21.422 9.60703 21.3362 9.77617 21.2487C9.94492 21.1637 10.1205 21.078 10.2952 20.9957L10.3135 20.9873C10.484 20.9072 10.6609 20.8245 10.8378 20.7483L10.9205 20.7122C11.078 20.6435 11.2404 20.5722 11.4015 20.5084C11.7377 20.369 12.1086 20.225 12.5746 20.0547C12.917 19.932 13.2195 19.8281 13.4968 19.7371C13.5841 19.7081 13.6715 19.6798 13.7588 19.6526C14.1033 19.5408 14.4721 19.4308 14.9205 19.3049C15.4592 19.1544 16.0132 19.0145 16.547 18.8953L16.036 19.0893L14.9755 19.4805L12.6683 20.3158C12.4725 20.3848 12.2744 20.4561 12.0781 20.5292L11.4977 20.7409L10.3685 21.162L9.82939 21.3679L9.31494 21.5704L8.81641 21.7728L8.82744 21.7662Z" fill="#F0844F"/>
<path d="M8.21748 19.4661L8.66035 19.2135C8.8084 19.1338 8.96797 19.0511 9.13125 18.967C9.29648 18.8843 9.46592 18.8016 9.63096 18.7241L9.65078 18.7148C9.81494 18.6387 9.98438 18.56 10.1542 18.4878L10.2281 18.4562C10.3817 18.3893 10.5406 18.3201 10.6981 18.2586C11.0246 18.1244 11.3723 17.9919 11.8304 17.8273C12.0917 17.7354 12.3263 17.6553 12.5459 17.5831C12.6883 17.5364 12.8309 17.4911 12.9728 17.4471C13.3054 17.3419 13.6612 17.239 14.0944 17.121C14.6137 16.9802 15.1492 16.8513 15.6649 16.7412L15.1708 16.9261L14.1479 17.2971L11.9224 18.0888C11.7331 18.1543 11.5426 18.2217 11.3534 18.2912L10.7937 18.4914L9.7043 18.8905L9.18438 19.0868L8.68867 19.2791L8.20703 19.4728L8.21748 19.4661Z" fill="#F0844F"/>
<path d="M7.21709 17.3731L7.66133 17.1205C7.80938 17.0404 7.96963 16.9572 8.13281 16.8732C8.29561 16.7917 8.46504 16.709 8.63398 16.6298L8.65293 16.621C8.81748 16.5445 8.98731 16.4657 9.15811 16.3926L9.22813 16.3626C9.38301 16.2949 9.54365 16.2258 9.70293 16.1633C10.0285 16.0292 10.3769 15.8962 10.8372 15.7303C11.1019 15.6371 11.3399 15.5561 11.5635 15.4826C11.703 15.4368 11.8425 15.3919 11.9817 15.3493C12.3159 15.2436 12.6724 15.1398 13.1054 15.0219C13.6264 14.8811 14.1628 14.7513 14.679 14.6409L14.184 14.8261L13.1591 15.1984L10.9294 15.9922C10.7397 16.0578 10.5483 16.1255 10.3591 16.1951L9.79844 16.3961L8.70693 16.7965L8.18613 16.9932L7.68936 17.1855L7.20703 17.3791L7.21709 17.3731Z" fill="#F0844F"/>
<path d="M6.51035 15.2635L6.94072 15.018C7.08438 14.9405 7.23955 14.8604 7.39795 14.7786C7.55566 14.6994 7.72051 14.6197 7.88447 14.5432L7.90537 14.5339C8.06396 14.46 8.22832 14.3838 8.39297 14.3147L8.45879 14.2866C8.61035 14.2215 8.76699 14.1537 8.92236 14.0938C9.23789 13.9649 9.57647 13.8373 10.0247 13.6784C10.2096 13.6138 10.3973 13.5504 10.5845 13.4892C10.7808 13.4245 10.9611 13.3673 11.1363 13.3145C11.4642 13.2128 11.8104 13.1146 12.2285 13.0042C12.7341 12.8713 13.2554 12.7494 13.7572 12.6465L13.2763 12.8243L12.2809 13.1808L10.1154 13.9403C9.93145 14.0028 9.74561 14.068 9.56143 14.1344L9.01709 14.3271L7.95703 14.7104L7.45117 14.8988L6.96904 15.0837L6.5 15.2698L6.51035 15.2635Z" fill="#F0844F"/>
<path d="M5.87764 13.2538L6.29482 13.0166C6.43301 12.9417 6.58301 12.8643 6.73662 12.7851C6.89238 12.7072 7.05166 12.6306 7.20654 12.5585L7.23203 12.5471C7.38408 12.4772 7.54141 12.4045 7.69873 12.3394L7.76279 12.3117C7.90937 12.2492 8.06113 12.1845 8.21123 12.1268C8.51484 12.0044 8.84228 11.8826 9.27881 11.7298C9.39893 11.6894 9.52168 11.6484 9.64404 11.608C9.90185 11.5235 10.1347 11.4504 10.3556 11.3853C10.6739 11.2894 11.0095 11.1965 11.4135 11.0936C11.9044 10.9686 12.4093 10.8551 12.8955 10.761L12.4286 10.9313L11.4649 11.2706L9.36816 11.9931C9.18994 12.053 9.00996 12.1141 8.83174 12.1775L8.30498 12.3606L7.27881 12.7258L6.78945 12.9053L6.32217 13.0818L5.86719 13.2605L5.87764 13.2538Z" fill="#F0844F"/>
<path d="M5.19385 10.9066L5.61543 10.6664C5.75605 10.5907 5.90801 10.5119 6.06338 10.4318C6.22354 10.3517 6.38457 10.2738 6.53955 10.2025L6.55869 10.1932C6.71494 10.121 6.87646 10.0466 7.0377 9.97896L7.10195 9.95122C7.25049 9.88784 7.4043 9.82231 7.55674 9.76372C7.86367 9.63921 8.19502 9.51548 8.6373 9.35972C8.78164 9.31001 8.929 9.26069 9.07607 9.21274C9.31035 9.13569 9.52363 9.06841 9.72734 9.00767C10.0481 8.91001 10.3881 8.81538 10.7979 8.70884C11.2943 8.58081 11.8052 8.4646 12.2977 8.36694L11.8255 8.53989L10.8499 8.88579L8.72715 9.62241C8.54678 9.68315 8.36475 9.74605 8.18418 9.8103L7.65088 9.99692L6.61191 10.3692L6.11621 10.5518L5.64385 10.7318L5.18359 10.913L5.19385 10.9066Z" fill="#F0844F"/>
<path d="M25.043 21.6646C25.5459 21.3473 26.0793 21.0287 26.6091 20.729C27.0474 20.4816 27.4157 20.2819 27.7678 20.0993C28.1255 19.9118 28.5132 19.7183 28.9889 19.4881C29.4879 19.2518 29.8712 19.0779 30.2289 18.9253C30.4142 18.8435 30.5999 18.7678 30.7801 18.6947L30.848 18.667C31.0395 18.5878 31.2329 18.5139 31.4196 18.443L31.4566 18.4289C31.7693 18.3105 32.0925 18.1966 32.445 18.0813C32.5051 18.0614 32.5649 18.0421 32.6241 18.0228L33.1707 17.8595L33.1824 17.8564L32.6493 18.0883L32.0992 18.3352L31.5271 18.5965L30.3363 19.1536L29.7247 19.444C29.5196 19.5399 29.3135 19.639 29.1073 19.7394L26.6949 20.8918L25.5799 21.4172L25.043 21.6646Z" fill="#F0844F"/>
<path d="M24.1523 19.8199C24.6687 19.4978 25.2161 19.1748 25.7592 18.8707C26.2094 18.6194 26.5869 18.4166 26.9471 18.2313C27.3147 18.0403 27.7121 17.8432 28.1977 17.6104C28.7083 17.3706 29.1004 17.1937 29.4681 17.0383C29.6553 16.9556 29.8445 16.8791 30.0271 16.8051L30.1018 16.7756C30.2951 16.6956 30.4905 16.6211 30.6802 16.549L30.7242 16.5323C31.0431 16.4122 31.3737 16.2959 31.7335 16.1781C31.7958 16.1574 31.8573 16.1375 31.9186 16.1178L32.4896 15.947L31.9435 16.1837L31.38 16.4341L30.7947 16.6999L29.5745 17.2667L28.9479 17.5619C28.738 17.6591 28.5268 17.7603 28.3159 17.862L25.8441 19.0338L24.7022 19.568L24.1523 19.8199Z" fill="#F0844F"/>
<path d="M23.4648 17.9325C23.9634 17.6166 24.4933 17.2993 25.0195 17.0004C25.4561 16.7536 25.8213 16.5546 26.1691 16.3738C26.5229 16.1872 26.9077 15.994 27.3812 15.7652C27.8792 15.5289 28.2596 15.3559 28.6134 15.2054C28.7982 15.1227 28.9848 15.0465 29.1656 14.9735L29.2276 14.948C29.4173 14.8692 29.6094 14.7961 29.7948 14.7253L29.8318 14.7113C30.143 14.5933 30.4657 14.4793 30.818 14.3641C30.8761 14.3448 30.9342 14.3262 30.9918 14.3078L31.5346 14.1454L31.5456 14.1423L31.0167 14.3734L30.4701 14.6185L29.9027 14.879L28.7203 15.4334L28.1128 15.7225C27.9098 15.818 27.7047 15.9166 27.5005 16.0161L25.1053 17.1637L23.9981 17.6865L23.4648 17.9325Z" fill="#F0844F"/>
<path d="M22.4023 15.8356C22.8842 15.525 23.396 15.2138 23.904 14.9211C24.3258 14.6787 24.6792 14.4837 25.0155 14.3068C25.359 14.1237 25.7317 13.9345 26.1889 13.7105C26.5137 13.5551 26.9449 13.351 27.3814 13.163C27.5604 13.083 27.7407 13.009 27.9154 12.9377L27.9769 12.9123C28.1591 12.8361 28.3425 12.7657 28.5207 12.6975L28.563 12.6817C28.8653 12.5664 29.1786 12.4555 29.5205 12.3433C29.5769 12.3249 29.6327 12.3068 29.6877 12.2892L30.214 12.1317L30.2252 12.1287L29.7123 12.3548L29.1834 12.5947L28.6338 12.8491L27.4893 13.3913L26.9014 13.6743C26.7047 13.7675 26.5066 13.8644 26.3086 13.9616L23.9904 15.0837L22.9189 15.5951L22.4023 15.8356Z" fill="#F0844F"/>
<path d="M21.4961 13.6892C21.9572 13.3855 22.4473 13.081 22.9347 12.7954C23.3366 12.5604 23.6755 12.3694 24.0007 12.1961C24.3305 12.017 24.6876 11.8326 25.1268 11.6147C25.44 11.4629 25.8551 11.2641 26.2727 11.0827C26.448 11.003 26.6251 10.93 26.7959 10.8592L26.8456 10.839C27.0203 10.765 27.1977 10.6964 27.3688 10.6308L27.4091 10.6149C27.7037 10.5019 28.0087 10.394 28.3422 10.2845C28.3924 10.2682 28.4423 10.252 28.4918 10.236L28.9992 10.0847L29.0106 10.0815L28.5167 10.3016L28.0087 10.5344L27.4811 10.7821L26.3818 11.3098L25.8175 11.5848C25.6289 11.6754 25.4382 11.77 25.2482 11.8646L23.0225 12.9573L21.9932 13.455L21.4961 13.6892Z" fill="#F0844F"/>
<path d="M20.707 11.5059C21.169 11.2023 21.6602 10.8973 22.149 10.6109C22.5525 10.375 22.8918 10.1845 23.2173 10.0107C23.5479 9.8311 23.9062 9.64722 24.3458 9.42895C24.6603 9.27671 25.0765 9.0769 25.4943 8.89565C25.6673 8.81685 25.8415 8.74556 26.0097 8.67563L26.0687 8.6519C26.246 8.57671 26.4251 8.50806 26.5989 8.44116L26.6333 8.42749C26.9271 8.31528 27.2324 8.20659 27.5669 8.09702C27.6177 8.08032 27.6684 8.0645 27.7185 8.0477L28.2263 7.89634L28.238 7.89282L27.7434 8.11333L27.234 8.34653L26.7051 8.59468L25.6036 9.12319L25.0379 9.39868C24.8484 9.48931 24.6579 9.58354 24.4674 9.67856L22.2368 10.7725L21.2054 11.2715L20.707 11.5059Z" fill="#F0844F"/>
<path d="M19.9453 9.44331C20.3911 9.14448 20.8654 8.84526 21.3374 8.5645C21.7279 8.33257 22.0558 8.14556 22.3695 7.97573C22.6888 7.80063 23.0351 7.62017 23.4617 7.40591C23.7869 7.24663 24.1755 7.05874 24.5732 6.88442C24.7453 6.80561 24.9191 6.73345 25.0872 6.66353L25.1295 6.64634C25.3033 6.57153 25.4798 6.50376 25.6499 6.43823L25.677 6.42769C25.9647 6.31685 26.2645 6.2103 26.5927 6.10249L26.7291 6.05806C26.8959 6.00747 27.0624 5.95727 27.2241 5.9106L27.2343 5.90845L26.7537 6.12358L26.2613 6.352L25.7491 6.59448L24.6833 7.11108L24.1363 7.38081C23.9528 7.46968 23.7687 7.56216 23.5843 7.65542L21.4261 8.72603L20.4276 9.21313L19.9453 9.44331Z" fill="#F0844F"/>
<path d="M19.2148 7.50103C19.643 7.20845 20.0993 6.91489 20.5537 6.6394C20.9269 6.4145 21.2429 6.23101 21.5474 6.06343C21.8545 5.89263 22.1885 5.71577 22.6 5.5063C22.9155 5.34966 23.2915 5.16567 23.6722 4.99761C23.8385 4.92104 24.006 4.85063 24.1679 4.78237L24.2093 4.76519C24.3789 4.69263 24.5508 4.62524 24.7171 4.56099L24.7382 4.55259C25.0177 4.44429 25.3078 4.34048 25.6253 4.23657L25.7547 4.19429C25.9157 4.14546 26.0771 4.09702 26.2335 4.0522L26.2437 4.04956L25.7794 4.25991L25.3044 4.48257L24.8108 4.7189L23.7833 5.22358L23.2557 5.48716C23.0794 5.57388 22.9015 5.66362 22.7236 5.75513L20.6439 6.79976L19.6812 7.27632L19.2148 7.50103Z" fill="#F0844F"/>
<path d="M17.9258 5.39897C18.3605 5.10415 18.8234 4.80845 19.2847 4.5312C19.6646 4.30278 19.9848 4.1189 20.2933 3.94985C20.6044 3.77739 20.9432 3.59917 21.3604 3.38833C21.6798 3.23032 22.0613 3.04468 22.4475 2.87524C22.6176 2.79604 22.7887 2.72476 22.9549 2.65522L22.9914 2.64028C23.1637 2.56636 23.3379 2.49858 23.5064 2.43306L23.5273 2.42554C23.8092 2.31636 24.1016 2.21206 24.4213 2.10688L24.5573 2.06284C24.7206 2.01353 24.8838 1.96382 25.0423 1.91851L25.0524 1.91626L24.5825 2.12886L24.1007 2.35288L23.5999 2.59185L22.5583 3.10093L22.0234 3.36675C21.8443 3.45435 21.664 3.54546 21.4837 3.63735L19.3741 4.69214L18.3983 5.17222L17.9258 5.39897Z" fill="#F0844F"/>
<path fill-rule="evenodd" clip-rule="evenodd" d="M23.1098 39.4458C23.1098 39.4458 20.4847 42.476 20.0306 44.6238C19.9406 45.0507 20.4137 45.437 20.9509 45.5532C22.1962 45.8221 22.5718 44.6005 23.0724 44.0579C23.9772 43.0784 25.1485 41.5175 26.8555 41.1831" fill="#F8D455"/>
<path fill-rule="evenodd" clip-rule="evenodd" d="M42.6254 36.6206C42.6254 36.6206 45.8299 38.6787 46.878 40.5291C47.0861 40.8961 46.7927 41.3837 46.3614 41.6397C45.3595 42.2343 44.6629 41.2143 44.0617 40.8547C42.9772 40.2057 41.4844 39.0949 39.8984 39.2626" fill="#F8D455"/>
<path fill-rule="evenodd" clip-rule="evenodd" d="M42.6254 36.6206L39.8984 39.2626C40.5187 39.1971 41.1244 39.3272 41.6974 39.5486C42.423 38.8824 43.0875 38.1502 43.6811 37.3594C43.0693 36.9063 42.6254 36.6206 42.6254 36.6206Z" fill="#F0844F"/>
<path fill-rule="evenodd" clip-rule="evenodd" d="M21.8477 41.0739C22.6824 41.6328 23.5739 42.1164 24.5139 42.5143C25.166 41.9025 25.9314 41.3635 26.8536 41.1831L23.1079 39.4458C23.108 39.4457 22.5175 40.1282 21.8477 41.0739Z" fill="#F0844F"/>
<path fill-rule="evenodd" clip-rule="evenodd" d="M46.0218 14.1542C45.8715 14.5449 42.2803 13.5284 38.0013 11.884C33.7214 10.2391 30.3739 8.5885 30.5244 8.19768C30.6745 7.80646 34.6201 8.05998 38.8999 9.7048C43.1793 11.3498 46.1721 13.763 46.0218 14.1542Z" fill="#074784"/>
<path fill-rule="evenodd" clip-rule="evenodd" d="M41.3108 4.94375L37.759 13.9313L36.8164 13.4165L39.5238 4.25684L41.3108 4.94375Z" fill="#29ADFC"/>
<path fill-rule="evenodd" clip-rule="evenodd" d="M46.2887 10.0454C45.3215 5.46717 40.4417 2.5368 35.974 3.82401C34.5869 4.2244 33.2739 4.89989 32.2247 5.90145C31.8217 6.28651 31.423 6.70457 31.0964 7.15692C31.0443 7.22909 30.4803 8.21961 30.5217 8.2245C32.3166 8.43924 35.5779 8.97254 38.7102 10.1277C42.1688 11.4039 44.6376 13.1156 46.0223 14.1542C46.1255 14.0306 46.2236 13.8153 46.2742 13.6297C46.6012 12.4384 46.5387 11.2277 46.2887 10.0454Z" fill="#FFA4AC"/>
<path fill-rule="evenodd" clip-rule="evenodd" d="M12.5271 21.2835C12.8385 21.5634 15.578 19.0291 18.6463 15.6223C21.7143 12.2154 23.9495 9.22619 23.638 8.9463C23.3268 8.66593 19.9248 10.681 16.8568 14.0878C13.7888 17.4946 12.2156 21.0027 12.5271 21.2835Z" fill="#074784"/>
<path fill-rule="evenodd" clip-rule="evenodd" d="M12.5508 10.9371L19.7923 17.3367L20.3991 16.45L13.8322 9.5144L12.5508 10.9371Z" fill="#29ADFC"/>
<path fill-rule="evenodd" clip-rule="evenodd" d="M10.4257 17.7425C9.21206 13.2232 12.2317 8.39844 16.7972 7.51924C18.2151 7.24727 19.6915 7.25391 21.0811 7.67061C21.6149 7.83126 22.1601 8.02266 22.656 8.27784C22.7352 8.31837 23.6871 8.94581 23.6518 8.96876C22.1497 9.97423 19.4854 11.929 17.2178 14.3787C14.7139 17.0846 13.2895 19.7297 12.5264 21.2835C12.3788 21.2197 12.1938 21.0727 12.0644 20.9306C11.2328 20.0166 10.7393 18.9095 10.4257 17.7425Z" fill="#FC6084"/>
<path fill-rule="evenodd" clip-rule="evenodd" d="M46.1948 28.2284C45.5435 36.5657 38.225 42.7942 29.8469 42.1402C21.4687 41.4863 15.2046 34.1987 15.855 25.861C16.5054 17.5242 23.8243 11.2957 32.2029 11.9492C40.5806 12.6031 46.8452 19.8912 46.1948 28.2284Z" fill="#074784"/>
<path fill-rule="evenodd" clip-rule="evenodd" d="M44.2879 28.0797C43.716 35.4039 37.3155 40.8777 29.9913 40.3069C22.6666 39.7354 17.1924 33.3339 17.7636 26.0097C18.3352 18.6854 24.7364 13.2113 32.0608 13.7824C39.385 14.3544 44.8591 20.7555 44.2879 28.0797Z" fill="#7BEFE5"/>
<path fill-rule="evenodd" clip-rule="evenodd" d="M19.9629 27.4472C20.5345 20.123 26.9358 14.6488 34.2601 15.22C36.0979 15.3634 37.8191 15.8744 39.3577 16.6744C37.3425 15.0519 34.8345 13.9989 32.0608 13.7824C24.7364 13.2112 18.3351 18.6854 17.7636 26.0097C17.3358 31.4959 20.3 36.4645 24.893 38.8522C21.5869 36.191 19.608 31.9978 19.9629 27.4472Z" fill="#29ADFC"/>
<path d="M20.6326 32.0257C21.1611 31.8924 21.6848 31.741 22.214 31.6108C22.6107 31.5131 22.4424 30.9019 22.0456 30.9995C21.5162 31.1298 20.9926 31.2812 20.4641 31.4145C20.0683 31.5144 20.2363 32.126 20.6326 32.0257Z" fill="#074784"/>
<path d="M34.4736 38.9168C34.3295 38.3909 34.1669 37.8712 34.0257 37.3449C33.9198 36.9507 33.3086 37.1183 33.4147 37.5135C33.556 38.0394 33.7183 38.5595 33.8626 39.0849C33.9705 39.4787 34.5821 39.3115 34.4736 38.9168Z" fill="#074784"/>
<path d="M29.4229 18.3023C29.2787 17.7764 29.1161 17.2563 28.9749 16.73C28.8689 16.3362 28.2578 16.5033 28.3639 16.8986C28.5052 17.4248 28.6678 17.9449 28.8118 18.4704C28.9198 18.8642 29.5311 18.6969 29.4229 18.3023Z" fill="#074784"/>
<path d="M41.5432 26.0115C42.0589 25.8354 42.5681 25.6413 43.0847 25.468C43.4701 25.3391 43.3049 24.727 42.9161 24.8572C42.3997 25.0301 41.8903 25.2246 41.3746 25.4006C40.9904 25.5323 41.1553 26.1444 41.5432 26.0115Z" fill="#074784"/>
<path d="M44.7382 10.8432C44.7324 10.8432 44.725 10.8396 44.7219 10.8326C44.7215 10.8313 44.6787 10.7297 44.6158 10.555C44.5995 10.5057 44.5786 10.4516 44.556 10.3926L44.5511 10.3798C44.5339 10.3357 44.5163 10.2892 44.4983 10.2395C44.1795 9.36123 43.8051 8.49844 43.3207 7.69785C42.834 6.89346 42.2342 6.23311 41.5394 5.60703L41.5288 5.59776C41.5057 5.5793 41.4826 5.56211 41.4606 5.5458L41.4093 5.50752C41.2625 5.39707 41.1787 5.32617 41.1777 5.32578C41.1717 5.3209 41.1701 5.31172 41.1739 5.3042C41.1787 5.29551 41.1877 5.29492 41.1895 5.29492C41.2614 5.29463 41.3563 5.3499 41.4233 5.37178C41.5575 5.41563 41.684 5.4711 41.8104 5.53584C42.0735 5.6707 42.3225 5.83262 42.5545 6.01572C43.0205 6.3835 43.4182 6.83604 43.7353 7.33731C44.3273 8.27334 44.7012 9.4207 44.7487 10.528C44.7569 10.7173 44.7556 10.8237 44.7556 10.8237C44.7556 10.8343 44.7494 10.8413 44.7413 10.8427L44.7382 10.8432Z" fill="white"/>
<path d="M46.9679 36.7535C46.9543 36.7451 46.9419 36.7258 46.9461 36.7033C46.9468 36.6994 47.0027 36.3909 47.1228 35.8778C47.1598 35.7335 47.1941 35.5729 47.2313 35.3973C47.2313 35.3973 47.2392 35.3595 47.2392 35.3594C47.7735 32.8093 48.2818 30.2638 48.424 27.6555C48.5722 24.9351 48.3104 22.2368 47.533 19.6232C47.5008 19.515 47.4701 19.411 47.4432 19.3103L47.4327 19.2733C47.4063 19.1923 47.3777 19.1166 47.3508 19.0436L47.2875 18.8724C47.1084 18.3821 47.017 18.0834 47.016 18.0807C47.0096 18.0591 47.0197 18.0345 47.0404 18.0231C47.0657 18.0094 47.0877 18.0222 47.0919 18.0248C47.104 18.0362 47.3059 18.2752 47.6281 18.6972C49.3771 21.0233 50.0577 24.1561 49.9952 27.0259C49.9279 30.1134 49.0503 33.3543 47.4811 36.0194C47.2083 36.4827 47.04 36.7349 47.04 36.7349C47.0235 36.7595 46.9984 36.767 46.9764 36.7586L46.9679 36.7535Z" fill="#FFA4AC"/>
<path d="M12.0924 18.4021C12.09 18.4021 12.0832 18.4012 12.0786 18.395C12.0777 18.3941 12.0117 18.3065 11.9074 18.1517L11.8795 18.1103C11.8603 18.0816 11.8407 18.053 11.8216 18.0214C11.8018 17.9866 11.7827 17.9501 11.7631 17.9113L11.6355 17.664C11.6155 17.623 11.5979 17.5777 11.5774 17.5228C11.5677 17.4977 11.5576 17.4713 11.5465 17.4439L11.5158 17.3639C11.4951 17.311 11.4744 17.2578 11.4559 17.202L11.3811 16.9361C11.3516 16.842 11.3332 16.7438 11.3173 16.6506C11.2989 16.5529 11.2808 16.4521 11.2661 16.3496L11.2571 16.2567C11.2395 16.0825 11.2214 15.9021 11.2246 15.7186V15.7058C11.2179 15.5386 11.2298 15.3674 11.2409 15.2023L11.2508 15.0562L11.2709 14.9035C11.292 14.7411 11.314 14.573 11.3511 14.412C11.3877 14.2136 11.4384 14.0331 11.4878 13.858L11.5058 13.7938C11.5668 13.6041 11.6296 13.4113 11.7016 13.2366C11.7843 13.0324 11.8508 12.8846 11.917 12.7561L12.0205 12.5479L12.1254 12.3648C12.1866 12.2557 12.2464 12.158 12.305 12.073C12.4102 11.9155 12.4745 11.8302 12.4754 11.8293C12.48 11.8231 12.4868 11.8223 12.4894 11.8223C12.5044 11.8275 12.5084 11.8359 12.5061 11.8438C12.5061 11.8452 12.4801 11.9525 12.4278 12.1304C12.4122 12.1792 12.397 12.2342 12.3807 12.294L12.3732 12.3218C12.3618 12.3636 12.3499 12.4076 12.3363 12.4533C12.3057 12.5567 12.2752 12.6716 12.2425 12.7948L12.2223 12.8705C12.1942 12.9687 12.1695 13.0721 12.1435 13.1794C12.1435 13.1794 12.111 13.3136 12.0984 13.3638C12.0705 13.4733 12.0456 13.5882 12.0208 13.7057C12.0045 13.7813 11.9904 13.8465 11.9754 13.9125C11.9662 13.964 11.9447 14.0767 11.9447 14.0767C11.9187 14.2144 11.8915 14.3565 11.871 14.4995C11.8457 14.6417 11.8294 14.7808 11.8118 14.9272C11.8047 14.988 11.7981 15.0452 11.7907 15.102L11.7893 15.1147C11.7853 15.1706 11.7809 15.2261 11.7765 15.2819C11.7642 15.432 11.7525 15.5732 11.7507 15.7176C11.7421 15.8566 11.7444 15.9987 11.7462 16.1242C11.7472 16.1867 11.7479 16.2483 11.7479 16.3095C11.7497 16.3574 11.753 16.4036 11.7563 16.4499C11.7605 16.5031 11.7638 16.5472 11.7656 16.5911L11.7735 16.7284L11.7893 16.8608L11.8188 17.1179C11.8254 17.1698 11.8346 17.2199 11.8439 17.2692L11.8738 17.4364C11.8831 17.4893 11.8908 17.5332 11.8996 17.575L11.96 17.8315C11.9688 17.8693 11.9772 17.905 11.9842 17.9394L11.9878 17.9534C11.9962 17.9855 12.0053 18.0159 12.0143 18.0445L12.0301 18.0965C12.0832 18.2725 12.1093 18.379 12.1095 18.3799C12.1118 18.3883 12.1078 18.3966 12.1003 18.4001L12.0924 18.4021Z" fill="white"/>
<path d="M20.825 40.625C20.8217 40.6285 20.812 40.6347 20.7983 40.6316C20.7968 40.6312 20.6117 40.5876 20.3015 40.4966L20.2186 40.4724C20.1612 40.4557 20.1036 40.4389 20.0432 40.4178C19.9781 40.3932 19.9126 40.3654 19.8431 40.3359C18.123 39.6066 16.7223 38.2568 15.7425 36.6839C15.2387 35.8751 14.8396 35.0002 14.5578 34.0899C14.3173 33.3132 13.9813 32.2431 14.1173 31.4282C14.5125 32.0729 14.7209 32.838 15.0404 33.5237C15.3899 34.2738 15.7865 35.0021 16.2265 35.7029C17.1181 37.1228 18.1856 38.499 19.4656 39.5808C19.5364 39.6406 19.5956 39.6908 19.654 39.7374L20.0179 40.0124C20.0714 40.0529 20.1222 40.0907 20.1692 40.1286L20.1892 40.1436C20.2361 40.1774 20.2823 40.2073 20.3259 40.2355L20.4042 40.2875C20.6695 40.4631 20.8223 40.5771 20.8235 40.5775C20.8352 40.5863 20.839 40.6018 20.833 40.6149L20.825 40.625Z" fill="#FFA4AC"/>
<path fill-rule="evenodd" clip-rule="evenodd" d="M36.6783 20.2075C36.3434 19.9448 35.8767 20.032 35.5835 20.391C35.4651 20.5358 35.3641 20.696 35.264 20.8544C34.1857 22.561 33.1053 24.2656 32.036 25.9779C32.0223 25.9994 32.0081 26.0223 31.9933 26.0443C31.764 25.9563 31.5161 25.9057 31.2558 25.9057C30.7141 25.9057 30.2226 26.1174 29.856 26.4606C28.6723 25.8084 27.5044 25.1272 26.3286 24.4614C26.0919 24.3273 25.8503 24.1868 25.5932 24.1059C25.1923 23.9779 24.8817 24.1591 24.6986 24.5138C24.5164 24.8676 24.6214 25.1796 24.9398 25.4132C25.0634 25.5047 25.1968 25.5844 25.3305 25.6601C26.5495 26.3545 27.7753 27.0374 28.9851 27.7477C29.0599 27.7877 29.1361 27.8278 29.2083 27.8648C29.2069 27.896 29.2037 27.9264 29.2037 27.958C29.2037 29.0916 30.1227 30.01 31.2558 30.01C32.3894 30.01 33.3082 29.0916 33.3082 27.958C33.3082 27.6658 33.2462 27.3882 33.1359 27.1364C33.1466 27.1166 33.1568 27.0964 33.1682 27.0779C33.8974 25.8797 34.6613 24.7034 35.4098 23.5175C35.8936 22.7509 36.377 21.9844 36.8512 21.2116C37.0821 20.836 37.0247 20.4795 36.6783 20.2075Z" fill="#29ADFC"/>
<path fill-rule="evenodd" clip-rule="evenodd" d="M30.0092 22.4616C30.0092 22.6561 29.8512 22.8136 29.6567 22.8136C29.4627 22.8136 29.3047 22.6561 29.3047 22.4616C29.3047 22.267 29.4627 22.1091 29.6567 22.1091C29.8512 22.1091 30.0092 22.267 30.0092 22.4616Z" fill="white"/>
<path d="M36.6372 27.4631C36.8316 27.4631 36.9893 27.3055 36.9893 27.1111C36.9893 26.9167 36.8316 26.759 36.6372 26.759C36.4428 26.759 36.2852 26.9167 36.2852 27.1111C36.2852 27.3055 36.4428 27.4631 36.6372 27.4631Z" fill="white"/>
<path fill-rule="evenodd" clip-rule="evenodd" d="M37.3408 36.0221C37.3408 36.2167 37.1833 36.3742 36.9888 36.3742C36.7942 36.3742 36.6367 36.2167 36.6367 36.0221C36.6367 35.8276 36.7942 35.6697 36.9888 35.6697C37.1832 35.6697 37.3408 35.8276 37.3408 36.0221Z" fill="white"/>
<path fill-rule="evenodd" clip-rule="evenodd" d="M24.3604 22.1091C24.3604 22.3041 24.2028 22.4616 24.0083 22.4616C23.8138 22.4616 23.6562 22.3041 23.6562 22.1091C23.6562 21.9151 23.8138 21.7571 24.0083 21.7571C24.2027 21.7571 24.3604 21.915 24.3604 22.1091Z" fill="white"/>
<path fill-rule="evenodd" clip-rule="evenodd" d="M30.0092 38.9468C30.0092 39.1413 29.8512 39.2988 29.6567 39.2988C29.4627 39.2988 29.3047 39.1413 29.3047 38.9468C29.3047 38.7527 29.4627 38.5947 29.6567 38.5947C29.8512 38.5947 30.0092 38.7526 30.0092 38.9468Z" fill="white"/>
<path fill-rule="evenodd" clip-rule="evenodd" d="M33.3093 33.1218C33.3093 33.3849 33.0959 33.5984 32.8322 33.5984C32.5688 33.5984 32.3555 33.3849 32.3555 33.1218C32.3555 32.8582 32.5689 32.6448 32.8322 32.6448C33.0958 32.6449 33.3093 32.8582 33.3093 33.1218Z" fill="#074784"/>
<path fill-rule="evenodd" clip-rule="evenodd" d="M40.3755 33.9395C40.3755 34.2025 40.162 34.4165 39.8984 34.4165C39.6353 34.4165 39.4219 34.2026 39.4219 33.9395C39.4219 33.6759 39.6353 33.4624 39.8984 33.4624C40.1621 33.4624 40.3755 33.6758 40.3755 33.9395Z" fill="#074784"/>
<path fill-rule="evenodd" clip-rule="evenodd" d="M34.4188 18.1331C34.4188 18.3966 34.205 18.6101 33.9416 18.6101C33.6782 18.6101 33.4648 18.3966 33.4648 18.1331C33.4648 17.8699 33.6783 17.6565 33.9416 17.6565C34.205 17.6565 34.4188 17.8699 34.4188 18.1331Z" fill="#074784"/>
<path fill-rule="evenodd" clip-rule="evenodd" d="M39.7546 20.7175C39.7546 20.9811 39.5409 21.1946 39.2775 21.1946C39.0142 21.1946 38.8008 20.9811 38.8008 20.7175C38.8008 20.454 39.0143 20.2405 39.2775 20.2405C39.541 20.2405 39.7546 20.4539 39.7546 20.7175Z" fill="#074784"/>
<path fill-rule="evenodd" clip-rule="evenodd" d="M26.2149 30.9946C26.6906 32.3869 27.3738 32.8278 28.299 32.6571C27.4185 33.0329 27.1168 33.8329 27.4964 35.2485C27.0135 33.8998 26.3756 33.322 25.4141 33.5539C26.2695 33.1535 26.589 32.3939 26.2149 30.9946Z" fill="#074784"/>
<path fill-rule="evenodd" clip-rule="evenodd" d="M39.3044 28.3406C39.6826 29.3918 40.28 29.6981 41.1161 29.5204C40.3126 29.854 40.0138 30.4867 40.3049 31.5604C39.9188 30.5434 39.3669 30.1293 38.4961 30.356C39.2775 30.0043 39.5909 29.4024 39.3044 28.3406Z" fill="white"/>
<path fill-rule="evenodd" clip-rule="evenodd" d="M21.9372 25.0776C22.3152 26.1289 22.9128 26.4352 23.7491 26.2574C22.9454 26.5914 22.6466 27.2237 22.9377 28.2975C22.5516 27.2806 21.9997 26.8664 21.1289 27.0931C21.9104 26.7414 22.2237 26.1395 21.9372 25.0776Z" fill="white"/>
</svg>
