<svg width="133" height="115" viewBox="0 0 133 115" fill="none" xmlns="http://www.w3.org/2000/svg">
<path d="M133 57.1559C127.34 86.612 105.024 115 76 115C46.9757 115 0 84.1091 0 55.1384C0 26.1676 46.9757 0 76 0C105.024 0 133 28.1852 133 57.1559Z" fill="#FF6150"/>
<path d="M96.5825 102.623H39.2187C36.3496 102.623 34.0237 100.297 34.0237 97.4281V16.5719C34.0237 13.7029 36.3496 11.377 39.2187 11.377H96.5825C99.4515 11.377 101.777 13.7027 101.777 16.5719V97.4281C101.777 100.297 99.4515 102.623 96.5825 102.623Z" fill="#FFE8D2"/>
<path d="M96.5822 11.377H91.7915V35.0095C91.7915 66.3815 66.3566 91.8134 34.9808 91.8134H34.0237V97.4283C34.0237 100.297 36.3496 102.623 39.2188 102.623H96.5822C99.4514 102.623 101.777 100.297 101.777 97.4283V16.5716C101.777 13.7027 99.4514 11.377 96.5822 11.377Z" fill="#F7D4AD"/>
<path d="M74.7585 49.4726H60.9783C58.8493 49.4726 57.2467 47.5342 57.6473 45.4442L58.1886 42.6163C58.3441 41.8052 58.6589 41.0488 59.1056 40.3843C59.8112 39.3255 60.8465 38.4983 62.0832 38.0492L67.9075 35.9368L73.687 38.033C74.9299 38.4847 75.9689 39.3182 76.6757 40.3856V40.3869C77.1287 41.0675 77.4446 41.8413 77.5941 42.6723L78.0967 45.484C78.4687 47.5628 76.8711 49.4726 74.7585 49.4726Z" fill="#B8B6FF"/>
<path d="M71.0947 37.101L67.8359 39.9453L64.5793 37.101V32.7346H71.0947V37.101Z" fill="#ECBD83"/>
<path d="M73.0115 25.0326V28.7333C73.0115 31.6352 70.6363 34.0792 67.7346 34.0232C64.9227 33.9691 62.6606 31.673 62.6606 28.849V25.0326C62.6606 22.1746 64.9778 20.6831 67.8362 20.6831C70.6943 20.6831 73.0115 22.1746 73.0115 25.0326Z" fill="#F7D4AD"/>
<path d="M62.4564 44.4762V49.4725H60.9783C58.8493 49.4725 57.2467 47.5342 57.6473 45.4441L58.1886 42.6162C58.3441 41.8051 58.6589 41.0487 59.1056 40.3843C61.0179 40.7662 62.4564 42.4532 62.4564 44.4762Z" fill="#A09EEF"/>
<path d="M74.7584 49.4727H73.3337V44.4763C73.3337 42.4572 74.7683 40.7714 76.6759 40.387C77.1288 41.0675 77.4448 41.8414 77.5942 42.6723L78.0969 45.4841C78.4687 47.5629 76.871 49.4727 74.7584 49.4727Z" fill="#A09EEF"/>
<path d="M73.0114 24.7802C72.8175 24.929 72.6734 25.0356 72.6734 25.0356C72.3068 25.2475 71.9088 25.4412 71.4821 25.6125C69.5411 26.3891 67.6437 26.4175 66.7257 25.7748C66.7257 25.7748 65.7674 25.0597 65.4082 24.6031C65.0493 24.1465 63.9076 24.0308 62.9609 25.0356C62.8618 25.1408 62.7612 25.2099 62.6604 25.2504V25.0356C62.6604 22.1756 64.9785 19.8579 67.8388 19.8579C69.269 19.8579 70.5641 20.4377 71.4999 21.3751C72.3819 22.2553 72.9468 23.451 73.0114 24.7802Z" fill="#6E4848"/>
<path d="M106.93 73.4948L102.233 69.8171C101.965 69.6078 101.59 69.6078 101.322 69.8171L96.6243 73.4948C96.1396 73.8741 95.4309 73.529 95.4309 72.9136V46.5451C95.4309 46.1374 95.7614 45.8069 96.1691 45.8069H107.386C107.793 45.8069 108.124 46.1374 108.124 46.5451V72.9136C108.124 73.529 107.415 73.8741 106.93 73.4948Z" fill="#FF445C"/>
<path d="M119.972 36.3526C119.972 38.6701 117.392 40.4577 116.556 42.473C115.69 44.562 116.217 47.643 114.643 49.2172C113.068 50.7913 109.987 50.2633 107.898 51.1295C105.883 51.965 104.095 54.5453 101.778 54.5453C99.46 54.5453 97.6722 51.965 95.6569 51.1295C93.5678 50.2633 90.4869 50.7913 88.9124 49.2172C87.3379 47.6429 87.8655 44.562 86.9991 42.473C86.1634 40.4577 83.583 38.6701 83.583 36.3526C83.583 34.0351 86.1634 32.2474 86.9991 30.2321C87.8655 28.1432 87.3381 25.0621 88.9126 23.488C90.4871 21.9139 93.5679 22.4419 95.6571 21.5757C97.6724 20.7401 99.4602 18.1599 101.778 18.1599C104.095 18.1599 105.883 20.7401 107.898 21.5757C109.987 22.4419 113.068 21.9139 114.643 23.488C116.217 25.0623 115.69 28.1432 116.556 30.2321C117.392 32.2474 119.972 34.0351 119.972 36.3526Z" fill="#FF8B59"/>
<path d="M102.079 27.3709L104.995 31.7274C105.043 31.7988 105.115 31.851 105.198 31.8745L110.243 33.3019C110.491 33.3722 110.588 33.6718 110.429 33.8745L107.187 37.9944C107.133 38.0619 107.106 38.1464 107.109 38.2323L107.311 43.471C107.321 43.7287 107.065 43.914 106.823 43.8249L101.903 42.0147C101.822 41.985 101.733 41.985 101.652 42.0147L96.7317 43.8249C96.4896 43.914 96.2348 43.7287 96.2445 43.471L96.4457 38.2323C96.449 38.1464 96.4217 38.0619 96.3684 37.9944L93.1261 33.8745C92.9666 33.6718 93.0641 33.372 93.3123 33.3019L98.3573 31.8745C98.4401 31.851 98.5119 31.7988 98.5598 31.7274L101.477 27.3709C101.62 27.1566 101.935 27.1566 102.079 27.3709Z" fill="#FEE07D"/>
<path d="M63.2345 36.1786L61.6448 36.7547C59.1912 37.6444 57.3608 39.7906 56.8675 42.3574L56.3281 45.1841C56.0589 46.5841 56.4254 48.018 57.334 49.1175C58.243 50.2182 59.5832 50.8494 61.0105 50.8494H74.7905C76.2067 50.8494 77.5401 50.2265 78.4489 49.1403C79.357 48.0551 79.7348 46.6343 79.4855 45.2421L78.9825 42.4303C78.5163 39.8231 76.6798 37.642 74.1892 36.7382L72.5038 36.1274V33.6434C72.5038 33.5736 72.497 33.5057 72.4869 33.4386C73.7164 32.1869 74.4207 30.48 74.4207 28.7337V25.0326C74.4207 21.4199 71.4814 18.4807 67.8684 18.4807C64.2555 18.4807 61.3156 21.4199 61.3156 25.0326V28.849C61.3156 30.6442 62.0558 32.2831 63.2461 33.4733C63.2391 33.5292 63.2345 33.5855 63.2345 33.6432V36.1786ZM76.2711 42.915L76.7742 45.7271C76.8796 46.3148 76.72 46.9146 76.3365 47.3729C75.9524 47.8318 75.3888 48.0953 74.7901 48.0953H61.0101C60.407 48.0953 59.8408 47.8287 59.4567 47.3637C59.0734 46.8996 58.9186 46.2946 59.0324 45.7022L59.5718 42.8755C59.8826 41.2577 61.0367 39.9044 62.5828 39.3439L63.6241 38.9667C63.6502 38.9935 63.6764 39.0204 63.7047 39.0452C64.8913 40.0827 66.3797 40.6016 67.869 40.6014C69.3564 40.6014 70.8445 40.0836 72.0312 39.0482C72.074 39.0109 72.1133 38.9707 72.1507 38.9288L73.2492 39.327C74.8196 39.8966 75.9774 41.2713 76.2711 42.915ZM64.0695 25.0326C64.0695 22.9386 65.7734 21.2346 67.8679 21.2346C69.6355 21.2346 71.1208 22.45 71.5425 24.0877C71.3655 24.1741 71.1839 24.2558 70.998 24.3302C69.3049 25.008 67.9373 24.9181 67.5464 24.6441C66.9236 24.2076 66.0652 24.3581 65.6284 24.9808C65.1918 25.6036 65.3425 26.4621 65.9651 26.8989C66.6376 27.3705 67.5504 27.6062 68.5921 27.6062C69.5386 27.6062 70.5915 27.4096 71.6664 27.0206V28.7333C71.6664 29.7859 71.2311 30.8166 70.472 31.561C70.1206 31.9058 69.7179 32.173 69.2856 32.3573C69.2553 32.3688 69.2255 32.3813 69.1964 32.3949C68.7522 32.5706 68.2778 32.6589 67.793 32.6463C65.7397 32.6068 64.0695 30.9032 64.0695 28.8488V25.0326ZM67.7401 35.4C67.7821 35.4007 67.8238 35.4011 67.8659 35.4011C68.5119 35.4011 69.1449 35.304 69.7497 35.1176V37.3206C68.6021 38.0281 67.135 38.0278 65.9888 37.3195V35.1216C66.5458 35.2904 67.1328 35.3882 67.7401 35.4Z" fill="#0C1A40"/>
<path d="M46.2048 74.4238H89.0868C89.8475 74.4238 90.4638 73.8075 90.4638 73.0469C90.4638 72.2862 89.8475 71.6699 89.0868 71.6699H46.2048C45.4442 71.6699 44.8279 72.2862 44.8279 73.0469C44.8279 73.8075 45.4442 74.4238 46.2048 74.4238Z" fill="#0C1A40"/>
<path d="M46.2048 81.8484H89.0868C89.8475 81.8484 90.4638 81.2321 90.4638 80.4714C90.4638 79.7108 89.8475 79.0945 89.0868 79.0945H46.2048C45.4442 79.0945 44.8279 79.7108 44.8279 80.4714C44.8279 81.2321 45.4442 81.8484 46.2048 81.8484Z" fill="#0C1A40"/>
<path d="M46.2048 89.2729H89.0868C89.8475 89.2729 90.4638 88.6566 90.4638 87.896C90.4638 87.1354 89.8475 86.519 89.0868 86.519H46.2048C45.4442 86.519 44.8279 87.1354 44.8279 87.896C44.8279 88.6566 45.4442 89.2729 46.2048 89.2729Z" fill="#0C1A40"/>
<path d="M46.2048 96.6975H89.0868C89.8475 96.6975 90.4638 96.0812 90.4638 95.3206C90.4638 94.5599 89.8475 93.9436 89.0868 93.9436H46.2048C45.4442 93.9436 44.8279 94.5599 44.8279 95.3206C44.8279 96.0812 45.4442 96.6975 46.2048 96.6975Z" fill="#0C1A40"/>
<path d="M44.8279 58.1978C44.8279 58.9584 45.4442 59.5747 46.2048 59.5747H89.0868C89.8475 59.5747 90.4638 58.9584 90.4638 58.1978C90.4638 57.4371 89.8475 56.8208 89.0868 56.8208H46.2048C45.4442 56.8208 44.8279 57.4373 44.8279 58.1978Z" fill="#0C1A40"/>
<path d="M46.2048 66.9993H89.0868C89.8475 66.9993 90.4638 66.3829 90.4638 65.6223C90.4638 64.8617 89.8475 64.2454 89.0868 64.2454H46.2048C45.4442 64.2454 44.8279 64.8617 44.8279 65.6223C44.8279 66.3829 45.4442 66.9993 46.2048 66.9993Z" fill="#0C1A40"/>
<path d="M41.1201 74.429C41.8835 74.429 42.5024 73.8103 42.5024 73.0469C42.5024 72.2837 41.8835 71.6648 41.1201 71.6648C40.3567 71.6648 39.738 72.2835 39.738 73.0469C39.738 73.8103 40.3569 74.429 41.1201 74.429Z" fill="#0C1A40"/>
<path d="M41.1201 59.5799C41.8835 59.5799 42.5024 58.9611 42.5024 58.1978C42.5024 57.4344 41.8835 56.8157 41.1201 56.8157C40.3567 56.8157 39.738 57.4344 39.738 58.1978C39.738 58.9611 40.3569 59.5799 41.1201 59.5799Z" fill="#0C1A40"/>
<path d="M41.1201 67.0044C41.8835 67.0044 42.5024 66.3857 42.5024 65.6223C42.5024 64.8589 41.8835 64.2402 41.1201 64.2402C40.3567 64.2402 39.738 64.8589 39.738 65.6223C39.738 66.3857 40.3569 67.0044 41.1201 67.0044Z" fill="#0C1A40"/>
<path d="M41.1201 81.8535C41.8835 81.8535 42.5024 81.2348 42.5024 80.4714C42.5024 79.7081 41.8835 79.0894 41.1201 79.0894C40.3567 79.0894 39.738 79.7081 39.738 80.4714C39.738 81.2348 40.3569 81.8535 41.1201 81.8535Z" fill="#0C1A40"/>
<path d="M41.1201 89.2781C41.8835 89.2781 42.5024 88.6594 42.5024 87.896C42.5024 87.1326 41.8835 86.5139 41.1201 86.5139C40.3567 86.5139 39.738 87.1326 39.738 87.896C39.738 88.6592 40.3569 89.2781 41.1201 89.2781Z" fill="#0C1A40"/>
<path d="M41.1201 96.7027C41.8835 96.7027 42.5024 96.084 42.5024 95.3206C42.5024 94.5574 41.8835 93.9385 41.1201 93.9385C40.3567 93.9385 39.738 94.5572 39.738 95.3206C39.738 96.0838 40.3569 96.7027 41.1201 96.7027Z" fill="#0C1A40"/>
<path d="M119.159 31.6863C118.603 30.9831 118.078 30.3187 117.824 29.7066C117.55 29.0458 117.442 28.1728 117.328 27.2483C117.128 25.6286 116.901 23.7928 115.62 22.5119C114.339 21.231 112.503 21.0041 110.883 20.8038C109.958 20.6896 109.085 20.5816 108.424 20.3077C107.812 20.0538 107.148 19.5291 106.444 18.9733C105.477 18.2087 104.412 17.3691 103.154 16.9881V16.5716C103.154 12.9481 100.206 10 96.5818 10H39.219C35.5951 10 32.6467 12.9481 32.6467 16.5717V21.8866C32.6467 22.6472 33.2631 23.2635 34.0237 23.2635C34.7843 23.2635 35.4006 22.6472 35.4006 21.8866V16.5717C35.4006 14.4665 37.1136 12.7539 39.219 12.7539H96.5818C98.6872 12.7539 100.4 14.4665 100.4 16.5717V16.9885C99.1422 17.3696 98.0783 18.2088 97.1105 18.9735C96.4072 19.5291 95.7429 20.054 95.1308 20.3079C94.4701 20.5816 93.5967 20.6896 92.672 20.8039C91.0523 21.0041 89.2165 21.231 87.9352 22.5119C86.6539 23.793 86.427 25.6288 86.2267 27.2484C86.1125 28.1728 86.0046 29.046 85.7307 29.7068C85.4767 30.3189 84.9519 30.9833 84.3961 31.6865C83.3673 32.9883 82.2014 34.4639 82.2014 36.3529C82.2014 38.2419 83.3674 39.7174 84.3961 41.0193C84.9517 41.7224 85.4767 42.3869 85.7307 42.999C86.0046 43.6597 86.1125 44.5327 86.2267 45.4575C86.427 47.0769 86.654 48.9127 87.9351 50.1936C89.2162 51.4747 91.0521 51.7015 92.6718 51.9018C93.1546 51.9615 93.6226 52.02 94.0546 52.1008V72.9143C94.0546 73.73 94.5099 74.4585 95.243 74.8154C95.9759 75.1728 96.8302 75.0821 97.4729 74.5789L100.4 72.2871V97.4285C100.4 99.5337 98.6871 101.246 96.5816 101.246H39.219C37.1136 101.246 35.4006 99.5337 35.4006 97.4285V17.9501C35.4006 17.1895 34.7843 16.5732 34.0237 16.5732C33.2631 16.5732 32.6467 17.1895 32.6467 17.9501V97.4283C32.6467 101.052 35.5951 104 39.219 104H96.5818C100.206 104 103.154 101.052 103.154 97.4283V72.2869L106.081 74.5786C106.463 74.8778 106.92 75.0313 107.383 75.0313C107.698 75.0313 108.015 74.9599 108.312 74.815C109.046 74.4581 109.501 73.7296 109.501 72.9141V51.5478C109.501 50.7872 108.885 50.1709 108.124 50.1709C107.364 50.1709 106.747 50.7872 106.747 51.5478V71.6029L103.087 68.7371C102.717 68.4443 102.252 68.2829 101.777 68.2829C101.302 68.2829 100.837 68.4443 100.473 68.7324L96.8083 71.6014V53.4945C96.9082 53.5727 97.0086 53.6518 97.1103 53.732C98.4124 54.7609 99.8881 55.9265 101.777 55.9265C103.666 55.9265 105.142 54.7607 106.444 53.7322C107.147 53.1767 107.812 52.6516 108.424 52.3977C109.085 52.1239 109.958 52.016 110.883 51.9016C112.502 51.7015 114.338 51.4746 115.62 50.1936C116.901 48.9125 117.128 47.0768 117.328 45.4573C117.442 44.5327 117.55 43.6595 117.824 42.9988C118.078 42.3867 118.603 41.7222 119.159 41.0191C120.188 39.7172 121.353 38.2417 121.353 36.3527C121.353 34.4637 120.187 32.9881 119.159 31.6863ZM116.998 39.3117C116.35 40.1314 115.68 40.9789 115.28 41.9438C114.863 42.9499 114.727 44.0528 114.595 45.1193C114.435 46.4129 114.284 47.6347 113.673 48.2461C113.061 48.8574 111.839 49.0084 110.545 49.1683C109.479 49.3001 108.376 49.4363 107.37 49.8536C106.405 50.2537 105.557 50.9232 104.737 51.5709C103.695 52.3944 102.71 53.1724 101.778 53.1724C100.845 53.1724 99.8606 52.3946 98.818 51.5709C97.9982 50.9234 97.1507 50.2537 96.1858 49.8536C96.1193 49.8261 96.0514 49.8028 95.984 49.7776C95.9368 49.7569 95.8885 49.7383 95.8388 49.7229C94.9287 49.4064 93.9551 49.285 93.0096 49.1683C91.7158 49.0084 90.4938 48.8572 89.8823 48.2459C89.2711 47.6347 89.12 46.4129 88.9601 45.1195C88.8283 44.0528 88.692 42.9503 88.2747 41.9438C87.8745 40.9789 87.2049 40.1314 86.5572 39.3117C85.7338 38.2692 84.9557 37.2848 84.9557 36.3527C84.9557 35.4206 85.7336 34.4361 86.5572 33.3937C87.2049 32.574 87.8747 31.7265 88.2747 30.7615C88.692 29.7554 88.8284 28.6526 88.9601 27.5861C89.12 26.2925 89.2711 25.0707 89.8825 24.4593C90.494 23.8479 91.716 23.697 93.0098 23.5371C94.0765 23.4053 95.1791 23.2691 96.1856 22.8517C97.1506 22.4517 97.998 21.7821 98.8178 21.1344C99.8582 20.3125 100.841 19.5362 101.772 19.5333L101.777 19.5335L101.783 19.5333C102.714 19.536 103.697 20.3125 104.737 21.1344C105.557 21.7819 106.404 22.4517 107.369 22.8517C108.376 23.2691 109.479 23.4055 110.545 23.5371C111.839 23.697 113.061 23.8481 113.673 24.4595C114.284 25.0708 114.435 26.2925 114.595 27.5861C114.727 28.6526 114.863 29.7552 115.28 30.7615C115.68 31.7265 116.35 32.574 116.998 33.3937C117.821 34.4361 118.599 35.4206 118.599 36.3527C118.599 37.2848 117.822 38.2694 116.998 39.3117Z" fill="#0C1A40"/>
<path d="M110.618 31.9769L105.932 30.6511L103.223 26.6047C102.899 26.1215 102.359 25.8333 101.778 25.8333C101.196 25.8333 100.656 26.1217 100.332 26.6047L97.623 30.6511L92.937 31.977C92.3774 32.1355 91.936 32.5605 91.7565 33.1135C91.5769 33.6665 91.6845 34.2696 92.044 34.726L95.0555 38.5526L94.8686 43.4173C94.846 43.9986 95.1133 44.5497 95.5838 44.8918C95.8858 45.1111 96.2437 45.2246 96.6055 45.2246C96.8079 45.2246 97.0113 45.1892 97.2066 45.1172L101.777 43.4359L106.347 45.117C106.893 45.3182 107.5 45.2338 107.97 44.8921C108.441 44.5505 108.708 43.9995 108.686 43.418L108.499 38.5524L111.511 34.7258C111.87 34.2688 111.978 33.6661 111.798 33.1131C111.619 32.5601 111.178 32.1353 110.618 31.9769ZM106.104 37.1437C105.849 37.4676 105.718 37.8726 105.733 38.2855L105.876 42.0095L102.378 40.7227C101.991 40.5801 101.564 40.5802 101.177 40.7225L97.6785 42.0095L97.8215 38.2842C97.8369 37.8728 97.7051 37.4678 97.4501 37.1428L95.1452 34.2141L98.7325 33.1994C99.1292 33.0869 99.4742 32.8361 99.7035 32.4935L101.777 29.3963L103.851 32.4931C104.08 32.8359 104.425 33.0867 104.823 33.1996L108.409 34.2141L106.104 37.1437Z" fill="#0C1A40"/>
</svg>
