<svg width="133" height="115" viewBox="0 0 133 115" fill="none" xmlns="http://www.w3.org/2000/svg">
<path d="M133 57.1559C127.34 86.612 105.024 115 76 115C46.9757 115 0 84.1091 0 55.1384C0 26.1676 46.9757 0 76 0C105.024 0 133 28.1852 133 57.1559Z" fill="#FF6150"/>
<path d="M84.3062 108.638C81.3378 109.169 78.2787 109.446 75.1531 109.446C47.3987 109.446 24.8793 87.567 24.7074 60.5131C24.5351 33.3997 47.0648 11.1215 74.8393 10.9564C74.9682 10.9556 75.0969 10.9554 75.2253 10.9556C76.7785 10.9578 78.0355 12.1896 78.0355 13.7055V13.7606C78.0355 37.943 98.1174 57.5467 122.89 57.5467C124.379 57.5467 125.599 58.7204 125.6 60.1744H126C126 73.3843 120.272 85.406 111.599 94.2499C111.473 94.3784 111.31 94.4642 111.132 94.5018C102.608 96.3015 88.5072 105.993 85.5647 108.102C85.1911 108.37 84.7622 108.556 84.3062 108.638Z" fill="#463B83"/>
<path d="M126 60.1078H74.3445C72.71 60.1078 71.3851 58.7829 71.3851 57.1484V13.7281C71.3851 12.1024 72.6965 10.7698 74.3223 10.7688H74.3521C101.602 10.7688 126 32.8586 126 60.1078Z" fill="#FDF061"/>
<path d="M70.8071 57.3987C72.7651 57.3987 74.3524 58.7671 74.3524 60.4552V109.447C42.9535 109.447 17.4999 87.5021 17.4999 60.432C17.4999 60.4218 17.4999 60.4116 17.4999 60.4014C17.501 58.7393 19.0818 57.3987 21.0096 57.3987H70.8071Z" fill="#03BDD6"/>
<path d="M74.3523 10.7688V60.1078H17.4999C17.4999 32.8586 47.1031 10.7688 74.3523 10.7688Z" fill="#FD4FB6"/>
<path d="M83.2133 60.1077V57.028C83.2133 49.3136 89.467 43.0598 97.1814 43.0598H101.479C109.194 43.0598 115.448 49.3136 115.448 57.028V60.1077H83.2133Z" fill="#03BDD6"/>
<path d="M90.3048 56.9567V60.1077H83.2133V57.028C83.2133 49.3136 89.467 43.0598 97.1814 43.0598H101.003C94.8663 44.5656 90.3048 50.2162 90.3048 56.9567Z" fill="#0198B0"/>
<path d="M115.034 28.6965V29.8597C115.034 31.4657 113.732 32.7679 112.126 32.7679C110.52 32.7679 109.218 31.4659 109.218 29.8597V28.6965C109.218 27.0905 110.52 25.7883 112.126 25.7883C113.732 25.7883 115.034 27.0905 115.034 28.6965Z" fill="#954D3B"/>
<path d="M112.126 23.462V28.1149C112.126 33.7939 108.427 38.6088 103.306 40.2811V43.382C103.306 45.5777 101.526 47.3575 99.3306 47.3575C97.1349 47.3575 95.3551 45.5777 95.3551 43.382V40.2811C91.674 39.0791 88.7271 36.2528 87.3614 32.6489C87.0994 32.7264 86.8221 32.7681 86.5349 32.7681C84.9289 32.7681 83.6267 31.4662 83.6267 29.8599V28.6967C83.6267 27.0907 84.9286 25.7885 86.5349 25.7885V23.462C86.5349 16.395 92.2638 10.6663 99.3306 10.6663C106.397 10.6661 112.126 16.395 112.126 23.462Z" fill="#A95947"/>
<path d="M85.3715 28.1149V30.4415C85.3715 31.3929 85.8282 32.2375 86.5344 32.7681C84.9284 32.7679 83.6265 31.466 83.6265 29.8599V28.6967C83.6265 27.0907 84.9284 25.7888 86.5344 25.7886C85.8282 26.319 85.3715 27.1636 85.3715 28.1149ZM90.0244 28.1149V23.462C90.0244 16.9869 94.8339 11.6353 101.075 10.7843C100.505 10.7065 99.9224 10.6663 99.3305 10.6663C92.2636 10.6663 86.5348 16.3952 86.5348 23.462V28.1149C86.5348 35.1819 92.2636 40.9106 99.3305 40.9106C99.9224 40.9106 100.505 40.8704 101.075 40.7926C94.8339 39.9416 90.0244 34.59 90.0244 28.1149ZM100.359 27.4981C100.084 27.773 99.7184 27.9246 99.3304 27.9246C98.9423 27.9246 98.5772 27.7732 98.3021 27.4981C97.9613 27.1574 97.409 27.1574 97.0682 27.4981C96.7275 27.8388 96.7275 28.3912 97.0682 28.732C97.6728 29.3365 98.4761 29.6694 99.3301 29.6694C100.184 29.6694 100.988 29.3365 101.592 28.732C101.933 28.3912 101.933 27.8388 101.592 27.4981C101.252 27.1574 100.699 27.1574 100.359 27.4981ZM103.437 32.8315C103.096 32.4908 102.544 32.4908 102.203 32.8315C100.619 34.4156 98.0415 34.4156 96.4574 32.8315C96.1167 32.4908 95.5643 32.4908 95.2235 32.8315C94.8828 33.1723 94.8828 33.7247 95.2235 34.0654C96.3557 35.1976 97.8429 35.7637 99.3301 35.7637C100.817 35.7637 102.305 35.1976 103.437 34.0654C103.778 33.7247 103.778 33.1723 103.437 32.8315Z" fill="#954D3B"/>
<path d="M86.5549 22.7378C86.9305 16.0078 92.5066 10.6663 99.3305 10.6663C106.154 10.6663 111.731 16.008 112.106 22.7378C109.231 19.5515 104.579 17.4815 99.3305 17.4815C94.0818 17.4813 89.4305 19.5513 86.5549 22.7378Z" fill="#67382A"/>
<path d="M90.9683 19.4158C89.2474 20.2853 87.7483 21.4155 86.5549 22.7378C86.9305 16.0078 92.5066 10.6663 99.3305 10.6663C99.9727 10.6663 100.604 10.7136 101.221 10.805C96.4084 11.5173 92.4692 14.9094 90.9683 19.4158Z" fill="#533022"/>
<path d="M67.4929 26.973C67.4929 37.1459 59.2462 45.3926 49.0734 45.3926C38.9005 45.3926 30.6538 37.1459 30.6538 26.973C30.6538 16.8001 38.9003 8.55347 49.0732 8.55347C59.246 8.55347 67.4929 16.8001 67.4929 26.973Z" fill="#463B83"/>
<path d="M52.927 44.9888C51.684 45.2534 50.3948 45.3926 49.0731 45.3926C38.9002 45.3926 30.6536 37.1457 30.6536 26.973C30.6536 19.6703 34.9034 13.3601 41.0649 10.3809C38.2048 13.9014 36.3978 18.5232 36.3978 23.5844C36.3978 33.9294 44.107 42.0961 53.0061 43.4615C53.622 43.5562 54.5298 44.6475 52.927 44.9888Z" fill="#012D4E"/>
<path d="M65.1904 57.1552V60.1079H32.9559V57.1552C32.9559 49.4406 39.2097 43.187 46.9241 43.187H51.222C58.9366 43.187 65.1904 49.4406 65.1904 57.1552Z" fill="#FDF061"/>
<path d="M39.2417 57.1552V60.1079H32.9559V57.1552C32.9559 49.4406 39.2097 43.187 46.9241 43.187H51.222C51.5561 43.187 51.8876 43.1987 52.2159 43.2218C44.9654 43.7316 39.2417 49.7749 39.2417 57.1552Z" fill="#FDCB6B"/>
<path d="M64.7772 28.8193V29.9825C64.7772 31.5885 63.4752 32.8907 61.869 32.8907C60.2628 32.8907 58.9608 31.5887 58.9608 29.9825V28.8193C58.9608 27.2133 60.2628 25.9111 61.869 25.9111C63.4752 25.9111 64.7772 27.2131 64.7772 28.8193Z" fill="#D89C56"/>
<path d="M61.8691 23.5843V28.2372C61.8691 33.9163 58.1695 38.7311 53.0489 40.4034V43.5043C53.0489 45.7 51.2689 47.4798 49.0734 47.4798C46.8777 47.4798 45.0979 45.6998 45.0979 43.5043V40.4034C41.4168 39.2014 38.4699 36.3752 37.1042 32.7712C36.8422 32.8487 36.5649 32.8904 36.2777 32.8904C34.6717 32.8904 33.3695 31.5885 33.3695 29.9822V28.819C33.3695 27.213 34.6715 25.9109 36.2777 25.9109V23.5843C36.2777 16.5173 42.0066 10.7886 49.0734 10.7886C56.1401 10.7886 61.8691 16.5175 61.8691 23.5843Z" fill="#E3AC6E"/>
<path d="M35.1143 28.2374V30.564C35.1143 31.5154 35.571 32.36 36.2772 32.8906C34.6712 32.8904 33.3693 31.5885 33.3693 29.9824V28.8192C33.3693 27.2132 34.6712 25.9113 36.2772 25.9111C35.571 26.4415 35.1143 27.2861 35.1143 28.2374ZM39.7672 28.2374V23.5843C39.7672 17.1092 44.5767 11.7576 50.8181 10.9066C50.2476 10.8289 49.6652 10.7886 49.0734 10.7886C42.0064 10.7886 36.2776 16.5175 36.2776 23.5843V28.2372C36.2776 35.3042 42.0064 41.033 49.0734 41.033C49.6652 41.033 50.2478 40.9927 50.8181 40.9149C44.5767 40.0641 39.7672 34.7123 39.7672 28.2374ZM50.1014 27.6204C49.8263 27.8953 49.4612 28.0469 49.0731 28.0469C48.6851 28.0469 48.32 27.8955 48.0449 27.6204C47.7041 27.2797 47.1517 27.2797 46.811 27.6204C46.4703 27.9611 46.4703 28.5135 46.811 28.8543C47.4156 29.4588 48.2189 29.7917 49.0729 29.7917C49.927 29.7917 50.7303 29.4588 51.3349 28.8543C51.6756 28.5135 51.6756 27.9611 51.3349 27.6204C50.9946 27.2799 50.4422 27.2799 50.1014 27.6204ZM53.18 32.9541C52.8392 32.6133 52.2868 32.6133 51.9461 32.9541C50.362 34.5381 47.7845 34.5381 46.2004 32.9541C45.8597 32.6133 45.3073 32.6133 44.9665 32.9541C44.6258 33.2948 44.6258 33.8472 44.9665 34.1879C46.0987 35.3201 47.5859 35.8862 49.0731 35.8862C50.5604 35.8862 52.0476 35.3201 53.1798 34.1879C53.5207 33.8472 53.5207 33.2948 53.18 32.9541Z" fill="#D89C56"/>
<path d="M51.5364 16.4869L50.9693 20.2677C50.9205 20.5927 50.6412 20.8334 50.3126 20.8334H36.574C37.3984 14.8803 42.9508 10.386 49.073 10.386C55.1955 10.386 61.5723 15.132 61.5723 20.8332H55.47C55.2185 20.8332 54.9885 20.691 54.8759 20.466L52.7872 16.2883C52.6746 16.0634 52.4446 15.9212 52.1931 15.9212C51.8644 15.9212 51.5851 16.1617 51.5364 16.4869Z" fill="#463B83"/>
<path d="M93.805 26.0792C92.8414 26.0792 92.0603 25.298 92.0603 24.3344C92.0603 23.3708 92.8414 22.5896 93.805 22.5896C94.7687 22.5896 95.5498 23.3708 95.5498 24.3344C95.5498 25.298 94.7687 26.0792 93.805 26.0792ZM106.601 24.3344C106.601 23.3708 105.82 22.5896 104.856 22.5896C103.892 22.5896 103.111 23.3708 103.111 24.3344C103.111 25.298 103.892 26.0792 104.856 26.0792C105.82 26.0792 106.601 25.298 106.601 24.3344ZM43.5478 22.7122C42.5841 22.7122 41.803 23.4934 41.803 24.457C41.803 25.4206 42.5841 26.2018 43.5478 26.2018C44.5114 26.2018 45.2926 25.4206 45.2926 24.457C45.2926 23.4934 44.5114 22.7122 43.5478 22.7122ZM56.3435 24.4572C56.3435 25.4209 55.5623 26.202 54.5987 26.202C53.6351 26.202 52.8539 25.4209 52.8539 24.4572C52.8539 23.4936 53.6351 22.7124 54.5987 22.7124C55.5623 22.7122 56.3435 23.4934 56.3435 24.4572Z" fill="#533022"/>
<path d="M63.0414 70.8537V92.0459C63.0414 93.1581 62.1398 94.0597 61.0275 94.0597H37.1187C36.0065 94.0597 35.1049 93.1581 35.1049 92.0459V70.8537C35.1049 63.1393 41.3586 56.8855 49.073 56.8855C56.7876 56.8855 63.0414 63.1393 63.0414 70.8537Z" fill="#FCF6E7"/>
<path d="M42.1533 94.0597H37.1187C36.0065 94.0597 35.1049 93.1581 35.1049 92.0459V70.8537C35.1049 63.1393 41.3586 56.8855 49.073 56.8855C49.9325 56.8855 50.7737 56.9632 51.5903 57.1119C45.0774 58.2972 40.1394 63.9988 40.1394 70.8537V92.0459C40.1394 93.1581 41.041 94.0597 42.1533 94.0597Z" fill="#FCF498"/>
<path d="M65.1904 105.237V108.597C56.7361 108.597 41.3097 102.807 34.3154 95.4335C36.6489 93.6831 43.7828 91.2686 46.9243 91.2686H51.2223C58.9367 91.2686 65.1904 97.5225 65.1904 105.237Z" fill="#013F69"/>
<path d="M65.1904 106.376C57.9099 103.571 51.4274 98.9977 46.2025 93.1434C47.1545 92.3846 48.2004 91.7519 49.3187 91.2686H51.2222C58.9366 91.2686 65.1904 97.5223 65.1904 105.237V106.376Z" fill="#463B83"/>
<path d="M64.7772 76.9057V78.0689C64.7772 79.675 63.4752 80.9771 61.869 80.9771C60.263 80.9771 58.9608 79.6752 58.9608 78.0689V76.9057C58.9608 75.2997 60.2628 73.9976 61.869 73.9976C63.475 73.9978 64.7772 75.2997 64.7772 76.9057Z" fill="#E1A595"/>
<path d="M61.8691 71.6712V76.3242C61.8691 82.0032 58.1695 86.8181 53.0489 88.4903V91.5912C53.0489 93.7869 51.2691 95.5668 49.0734 95.5668C46.8777 95.5668 45.0979 93.7869 45.0979 91.5912V88.4903C41.4168 87.2883 38.4699 84.4621 37.1042 80.8581C36.8422 80.9356 36.5649 80.9773 36.2777 80.9773C34.6717 80.9773 33.3695 79.6754 33.3695 78.0691V76.906C33.3695 75.2999 34.6715 73.9978 36.2777 73.9978V71.6712C36.2777 64.6042 42.0066 58.8755 49.0734 58.8755C56.1401 58.8753 61.8691 64.6042 61.8691 71.6712Z" fill="#EAC0B5"/>
<path d="M35.1143 76.3242V78.6507C35.1143 79.6021 35.571 80.4467 36.2772 80.9773C34.6712 80.9771 33.3693 79.6752 33.3693 78.0691V76.906C33.3693 75.2999 34.6712 73.998 36.2772 73.9978C35.571 74.5282 35.1143 75.3728 35.1143 76.3242ZM39.7672 76.3242V71.6712C39.7672 65.1961 44.5767 59.8445 50.8181 58.9935C50.2476 58.9158 49.6652 58.8755 49.0734 58.8755C42.0064 58.8755 36.2776 64.6044 36.2776 71.6712V76.3242C36.2776 83.3911 42.0064 89.1199 49.0734 89.1199C49.6652 89.1199 50.2478 89.0796 50.8181 89.0019C44.5767 88.1508 39.7672 82.7992 39.7672 76.3242ZM50.1014 75.7073C49.8263 75.9822 49.4612 76.1339 49.0731 76.1339C48.6851 76.1339 48.32 75.9824 48.0449 75.7073C47.7041 75.3666 47.1517 75.3666 46.811 75.7073C46.4703 76.0481 46.4703 76.6005 46.811 76.9412C47.4156 77.5458 48.2189 77.8786 49.0729 77.8786C49.927 77.8786 50.7303 77.5458 51.3349 76.9412C51.6756 76.6005 51.6756 76.0481 51.3349 75.7073C50.9946 75.3666 50.4422 75.3666 50.1014 75.7073ZM53.18 81.041C52.8392 80.7002 52.2868 80.7002 51.9461 81.041C50.362 82.625 47.7845 82.625 46.2004 81.041C45.8597 80.7002 45.3073 80.7002 44.9665 81.041C44.6258 81.3817 44.6258 81.9341 44.9665 82.2748C46.0987 83.407 47.5859 83.9731 49.0731 83.9731C50.5604 83.9731 52.0476 83.407 53.1798 82.2748C53.5207 81.9339 53.5207 81.3815 53.18 81.041Z" fill="#E1A595"/>
<path d="M61.5065 68.9197C58.3615 68.9197 55.6112 67.2307 54.1127 64.7104C51.6514 67.303 48.1719 68.9197 44.3148 68.9197C41.7032 68.9197 39.2649 68.1786 37.1985 66.8952C38.0709 62.2471 46.2593 58.0434 49.0733 57.8684C55.1955 57.8684 61.869 63.0782 61.5723 68.9193C61.5504 68.9195 61.5284 68.9197 61.5065 68.9197Z" fill="#FCF6E7"/>
<path d="M40.3664 68.3332C39.2411 67.9897 38.178 67.5033 37.1985 66.8951C37.1985 62.308 43.595 57.936 48.949 57.8691C44.5417 59.6216 41.2374 63.553 40.3664 68.3332Z" fill="#FCF498"/>
<path d="M101.479 91.2686C104.7 91.2686 109.224 92.4016 111.587 94.2324C105.251 101.686 93.6852 107.473 82.7601 109.046L83.2133 105.237C83.2133 97.5225 89.467 91.2688 97.1814 91.2688L101.479 91.2686Z" fill="#0ED1B2"/>
<path d="M89.7036 107.226C87.6074 107.852 85.4389 108.332 83.2133 108.653V105.237C83.2133 97.5223 89.467 91.2686 97.1814 91.2686H99.4889C93.7899 93.2671 89.7034 98.694 89.7034 105.076V107.226H89.7036Z" fill="#0AB59E"/>
<path d="M113.299 57.8977V68.7671C113.299 69.3262 112.846 69.7793 112.287 69.7793H86.3743C85.8153 69.7793 85.3622 69.3262 85.3622 68.7671C85.3622 62.205 90.6817 56.8855 97.2438 56.8855H112.287C112.845 56.8855 113.299 57.3386 113.299 57.8977Z" fill="#F4AA39"/>
<path d="M115.034 76.9057V78.0689C115.034 79.675 113.732 80.9771 112.126 80.9771C110.52 80.9771 109.218 79.6752 109.218 78.0689V76.9057C109.218 75.2997 110.52 73.9976 112.126 73.9976C113.732 73.9976 115.034 75.2997 115.034 76.9057Z" fill="#F3D6AC"/>
<path d="M112.126 71.6712V76.3242C112.126 82.0032 108.427 86.8181 103.306 88.4903V91.5912C103.306 93.7869 101.526 95.5668 99.3306 95.5668C97.1349 95.5668 95.3551 93.7867 95.3551 91.5912V88.4903C91.674 87.2883 88.7271 84.4621 87.3614 80.8581C87.0994 80.9356 86.8221 80.9773 86.5349 80.9773C84.9289 80.9773 83.6267 79.6754 83.6267 78.0691V76.906C83.6267 75.2999 84.9286 73.9978 86.5349 73.9978V71.6712C86.5349 64.6042 92.2638 58.8755 99.3306 58.8755C106.397 58.8753 112.126 64.6042 112.126 71.6712Z" fill="#F8E6CC"/>
<path d="M85.3715 76.3242V78.6507C85.3715 79.6021 85.8282 80.4467 86.5344 80.9773C84.9284 80.9771 83.6265 79.6752 83.6265 78.0691V76.906C83.6265 75.2999 84.9284 73.998 86.5344 73.9978C85.8282 74.5282 85.3715 75.3728 85.3715 76.3242ZM90.0244 76.3242V71.6712C90.0244 65.1961 94.8339 59.8445 101.075 58.9935C100.505 58.9158 99.9224 58.8755 99.3305 58.8755C92.2636 58.8755 86.5348 64.6044 86.5348 71.6712V76.3242C86.5348 83.3911 92.2636 89.1199 99.3305 89.1199C99.9224 89.1199 100.505 89.0796 101.075 89.0019C94.8339 88.1508 90.0244 82.7992 90.0244 76.3242Z" fill="#F3D6AC"/>
<path d="M97.0683 76.9409C96.7276 76.6001 96.7276 76.0477 97.0683 75.707C97.4091 75.3662 97.9615 75.3662 98.3022 75.707C98.5773 75.9819 98.9424 76.1335 99.3305 76.1335C99.7185 76.1335 100.084 75.9821 100.359 75.707C100.699 75.3662 101.252 75.3662 101.593 75.707C101.933 76.0477 101.933 76.6001 101.593 76.9409C100.988 77.5454 100.185 77.8783 99.3307 77.8783C98.4762 77.8785 97.6729 77.5456 97.0683 76.9409ZM103.437 81.0406C103.096 80.6999 102.544 80.6999 102.203 81.0406C100.619 82.6247 98.0414 82.6247 96.4573 81.0406C96.1166 80.6999 95.5642 80.6999 95.2235 81.0406C94.8827 81.3814 94.8827 81.9338 95.2235 82.2745C96.3556 83.4067 97.8428 83.9728 99.3301 83.9728C100.817 83.9728 102.304 83.4067 103.437 82.2745C103.778 81.9338 103.778 81.3814 103.437 81.0406Z" fill="#EAC0B5"/>
<path d="M111.951 69.5505C109.473 69.0758 107.25 67.8864 105.502 66.2055C103.672 67.2152 101.568 67.7898 99.3304 67.7898C97.0924 67.7898 94.9886 67.2152 93.1584 66.2055C91.4112 67.8866 89.1873 69.0758 86.7095 69.5505C86.7095 63.5313 92.9858 57.8684 99.3304 57.8684C105.675 57.8684 112.126 62.8768 111.951 69.5505Z" fill="#F4AA39"/>
<path d="M98.3656 56.8855C90.3623 60.1034 91.7592 67.379 90.5103 68.1676C89.4248 68.8531 87.4398 69.5878 86.6735 69.7791C86.5213 69.8171 86.2566 69.774 86.2001 69.7642C85.7242 69.6816 85.3623 69.2666 85.3623 68.7671C85.3623 62.205 90.6818 56.8855 97.2439 56.8855H98.3656Z" fill="#FC9302"/>
<path d="M43.5478 74.2884C42.5841 74.2884 41.803 73.5072 41.803 72.5436C41.803 71.5799 42.5841 70.7988 43.5478 70.7988C44.5114 70.7988 45.2926 71.5799 45.2926 72.5436C45.2926 73.507 44.5114 74.2884 43.5478 74.2884ZM56.3435 72.5434C56.3435 71.5798 55.5623 70.7986 54.5987 70.7986C53.6351 70.7986 52.8539 71.5798 52.8539 72.5434C52.8539 73.507 53.6351 74.2882 54.5987 74.2882C55.5623 74.2884 56.3435 73.507 56.3435 72.5434ZM95.5498 72.5434C95.5498 71.5798 94.7687 70.7986 93.805 70.7986C92.8414 70.7986 92.0603 71.5798 92.0603 72.5434C92.0603 73.507 92.8414 74.2882 93.805 74.2882C94.7687 74.2884 95.5498 73.507 95.5498 72.5434ZM106.601 72.5434C106.601 71.5798 105.82 70.7986 104.856 70.7986C103.892 70.7986 103.111 71.5798 103.111 72.5434C103.111 73.507 103.892 74.2882 104.856 74.2882C105.82 74.2884 106.601 73.507 106.601 72.5434Z" fill="#463B83"/>
<path d="M94.9683 22.5894C95.4502 22.5894 95.8407 22.98 95.8407 23.4617C95.8407 23.9435 95.45 24.3341 94.9683 24.3341C94.4864 24.3341 94.0959 23.9435 94.0959 23.4617C94.0959 22.98 94.4866 22.5894 94.9683 22.5894ZM105.147 23.462C105.147 23.9439 105.537 24.3343 106.019 24.3343C106.501 24.3343 106.892 23.9437 106.892 23.462C106.892 22.9802 106.501 22.5896 106.019 22.5896C105.537 22.5894 105.147 22.98 105.147 23.462ZM43.8386 23.5846C43.8386 24.0665 44.2293 24.457 44.711 24.457C45.1929 24.457 45.5834 24.0663 45.5834 23.5846C45.5834 23.1029 45.1927 22.7122 44.711 22.7122C44.2293 22.7122 43.8386 23.1029 43.8386 23.5846ZM55.7619 22.7122C56.2438 22.7122 56.6343 23.1029 56.6343 23.5846C56.6343 24.0663 56.2436 24.457 55.7619 24.457C55.28 24.457 54.8895 24.0663 54.8895 23.5846C54.8895 23.1029 55.2802 22.7122 55.7619 22.7122ZM43.8386 71.6712C43.8386 72.1531 44.2293 72.5435 44.711 72.5435C45.1927 72.5435 45.5834 72.1529 45.5834 71.6712C45.5834 71.1892 45.1927 70.7988 44.711 70.7988C44.2293 70.7988 43.8386 71.1892 43.8386 71.6712ZM54.8895 71.6712C54.8895 72.1531 55.2802 72.5435 55.7619 72.5435C56.2436 72.5435 56.6343 72.1529 56.6343 71.6712C56.6343 71.1892 56.2436 70.7988 55.7619 70.7988C55.2802 70.7988 54.8895 71.1892 54.8895 71.6712ZM94.0959 71.6712C94.0959 72.1531 94.4866 72.5435 94.9683 72.5435C95.4502 72.5435 95.8407 72.1529 95.8407 71.6712C95.8407 71.1892 95.45 70.7988 94.9683 70.7988C94.4866 70.7988 94.0959 71.1892 94.0959 71.6712ZM105.147 71.6712C105.147 72.1531 105.537 72.5435 106.019 72.5435C106.501 72.5435 106.892 72.1529 106.892 71.6712C106.892 71.1892 106.501 70.7988 106.019 70.7988C105.537 70.7988 105.147 71.1892 105.147 71.6712Z" fill="#FFF5F5"/>
</svg>
