<svg width="133" height="115" viewBox="0 0 133 115" fill="none" xmlns="http://www.w3.org/2000/svg">
<path d="M133 57.1559C127.34 86.612 105.024 115 76 115C46.9757 115 0 84.1091 0 55.1384C0 26.1676 46.9757 0 76 0C105.024 0 133 28.1852 133 57.1559Z" fill="#FF6150"/>
<path d="M96.25 22.5V36.875L94.8125 38.3125L90.5 42.625V22.5H79V16.75H90.5C93.6769 16.75 96.25 19.3231 96.25 22.5Z" fill="#CCD1D9"/>
<path d="M95.9337 67.9969L96.25 68.0831V94.375C96.25 97.5519 93.6769 100.125 90.5 100.125H41.625C38.4481 100.125 35.875 97.5519 35.875 94.375V22.5C35.875 19.3231 38.4481 16.75 41.625 16.75H53.125V22.5H41.625V94.375H47.375H90.5V66.4588H90.5288L95.9337 67.9969Z" fill="#CCD1D9"/>
<path d="M79 16.75V22.5H53.125V16.75V15.3125C53.125 14.5219 53.7719 13.875 54.5625 13.875H77.5625C78.3531 13.875 79 14.5219 79 15.3125V16.75Z" fill="#5CD6B3"/>
<path d="M79 22.5H53.125H41.625V94.375H47.375H90.5V22.5H79Z" fill="#FFEAA7"/>
<path d="M73.25 28.25V49.3956C72.0425 50.1 71.0075 51.0919 70.26 52.285L69.9869 52.7306C67.615 50.0569 64.165 48.375 60.3125 48.375C64.28 48.375 67.5 45.155 67.5 41.1875C67.5 37.22 64.28 34 60.3125 34C56.345 34 53.125 37.22 53.125 41.1875C53.125 45.155 56.345 48.375 60.3125 48.375C56.7475 48.375 53.4988 49.8269 51.17 52.17C48.8269 54.4987 47.375 57.7475 47.375 61.3125V28.25H73.25Z" fill="#E6E9ED"/>
<path d="M99.125 34L107.75 42.625L103.438 46.9375L99.125 42.625L94.8125 38.3125L96.25 36.875L99.125 34Z" fill="#FFEAA7"/>
<path d="M110.625 37.22C110.625 38.8444 109.978 40.3969 108.842 41.5325L107.75 42.625L99.125 34L100.217 32.9075C101.353 31.7719 102.906 31.125 104.53 31.125C106.212 31.125 107.736 31.815 108.842 32.9075C109.935 34.0144 110.625 35.5381 110.625 37.22Z" fill="#AAB2BD"/>
<path d="M63.1875 69.9375L58.875 82.875L71.8125 78.5625L63.1875 69.9375Z" fill="#AAB2BD"/>
<path d="M81.8606 65.625H84.6063H84.75L71.8125 78.5625L67.5 74.25L77.8069 63.9431C78.8419 64.9781 80.2794 65.625 81.8606 65.625Z" fill="#5CD6B3"/>
<path d="M103.438 46.9375L101.037 49.3381L97.17 53.205C94.7406 55.6344 91.4488 57 88.0131 57C86.7913 57 85.7275 57 84.75 57L99.125 42.625L103.438 46.9375Z" fill="#5CD6B3"/>
<path d="M63.1809 69.9355L94.8014 38.315L99.1137 42.6272L67.4931 74.2478L63.1809 69.9355Z" fill="#FCD770"/>
<path d="M64.6538 62.75H47.375V61.3125C47.375 57.7475 48.8269 54.4987 51.17 52.17C53.4988 49.8269 56.7475 48.375 60.3125 48.375C64.165 48.375 67.615 50.0569 69.9869 52.7306L65.1281 60.4931C64.7975 61.025 64.625 61.6431 64.625 62.2756C64.625 62.4337 64.6394 62.5919 64.6538 62.75Z" fill="#EF7385"/>
<path d="M122.125 45.5V67.0625L107.75 65.625V51.25L122.125 45.5Z" fill="#5CD6B3"/>
<path d="M107.75 51.25V65.625L106.715 66.315C104.573 67.7381 102.072 68.5 99.5131 68.5C98.4206 68.5 97.3137 68.3563 96.25 68.0831L95.9337 67.9969L90.5288 66.4588C90.5144 66.4588 90.5144 66.4588 90.5 66.4588C88.6313 65.9125 86.6906 65.6394 84.75 65.625C84.7069 65.625 84.6494 65.625 84.6063 65.625H81.8606C80.2794 65.625 78.8419 64.9781 77.8069 63.9431C76.7719 62.9081 76.125 61.4706 76.125 59.8894C76.125 59.0988 76.4413 58.3656 76.9731 57.8481C77.4906 57.3163 78.2237 57 79.0144 57H84.75H88.0131C91.4488 57 94.7406 55.6344 97.17 53.205L101.037 49.3381L107.75 51.25Z" fill="#F0D0B4"/>
<path d="M81.0412 46.3481C82.5362 45.7875 84.1319 45.5 85.7419 45.5C86.3312 45.5 86.9206 45.5431 87.51 45.615L76.125 57L67.5288 65.5962C66.0481 65.395 64.8694 64.2306 64.6538 62.75C64.6394 62.5919 64.625 62.4337 64.625 62.2756C64.625 61.6431 64.7975 61.025 65.1281 60.4931L69.9869 52.7306L70.26 52.285C71.0075 51.0919 72.0425 50.1 73.25 49.3956C73.6669 49.1656 74.0981 48.9644 74.5437 48.7919L81.0412 46.3481Z" fill="#F0D0B4"/>
<path d="M60.3125 48.375C64.282 48.375 67.5 45.157 67.5 41.1875C67.5 37.218 64.282 34 60.3125 34C56.343 34 53.125 37.218 53.125 41.1875C53.125 45.157 56.343 48.375 60.3125 48.375Z" fill="#F0D0B4"/>
<path d="M107.672 49.732L103.785 48.6208L109.857 42.5502C111.279 41.1271 112.062 39.2354 112.062 37.2243C112.062 33.0685 108.681 29.6875 104.527 29.6875C102.513 29.6875 100.62 30.4709 99.1983 31.8955L97.6875 33.4049V22.5C97.6875 18.5368 94.4632 15.3125 90.5 15.3125H80.4375C80.4375 13.7269 79.1481 12.4375 77.5625 12.4375H54.5625C52.9769 12.4375 51.6875 13.7269 51.6875 15.3125H41.625C37.6618 15.3125 34.4375 18.5368 34.4375 22.5V94.375C34.4375 98.3382 37.6618 101.562 41.625 101.562H90.5C94.4632 101.562 97.6875 98.3382 97.6875 94.375V69.7995C101.1 70.2264 104.622 69.4387 107.506 67.5168L108.119 67.1071L123.562 68.6509V43.3768L107.672 49.732ZM101.232 33.9267C102.111 33.0469 103.281 32.5625 104.527 32.5625C107.097 32.5625 109.188 34.6541 109.188 37.2243C109.188 38.4692 108.703 39.6393 107.823 40.5205L107.75 40.5924L101.159 34L101.232 33.9267ZM99.125 36.0326L105.717 42.625L103.438 44.9049L96.8451 38.3125L99.125 36.0326ZM101.405 46.9375L96.1508 52.1916C94.0621 54.2788 91.1871 55.4906 88.2345 55.5496L99.125 44.6576L101.405 46.9375ZM97.0924 42.625L84.1534 55.5639L79.5894 55.5682L94.8125 40.3451L97.0924 42.625ZM67.5 72.2174L65.2201 69.9375L74.7091 60.4486C74.8054 61.6934 75.2337 62.842 75.8864 63.8296L67.5 72.2174ZM77.919 65.8636C78.9066 66.5177 80.0551 66.9461 81.3014 67.0424L71.8125 76.5299L69.5326 74.25L77.919 65.8636ZM63.0351 74.94L63.8157 72.5983L69.1517 77.9343L66.81 78.7149L63.0351 74.94ZM63.7611 79.7312L61.1477 80.6023L62.0188 77.9889L63.7611 79.7312ZM68.9375 41.1875C68.9375 36.4308 65.0692 32.5625 60.3125 32.5625C55.5558 32.5625 51.6875 36.4308 51.6875 41.1875C51.6875 43.9389 52.987 46.3869 54.9995 47.9682C52.5212 48.9586 50.3894 50.6189 48.8125 52.7249V29.6875H71.8125V48.6582C71.0592 49.1886 70.3793 49.8096 69.7957 50.5241C68.5537 49.433 67.1378 48.5791 65.6169 47.9739C67.6337 46.3941 68.9375 43.9432 68.9375 41.1875ZM60.3125 46.9375C57.1414 46.9375 54.5625 44.3586 54.5625 41.1875C54.5625 38.0164 57.1414 35.4375 60.3125 35.4375C63.4836 35.4375 66.0625 38.0164 66.0625 41.1875C66.0625 44.3586 63.4836 46.9375 60.3125 46.9375ZM60.3125 49.8125C63.2436 49.8125 66.0481 50.9409 68.1713 52.9276L63.9149 59.7356C63.6116 60.2214 63.4103 60.7576 63.2968 61.3125H48.8125C48.8125 54.9717 53.9717 49.8125 60.3125 49.8125ZM67.1176 63.9748C66.4909 63.6556 66.0625 63.0116 66.0625 62.2728C66.0625 61.9134 66.1631 61.5641 66.3529 61.2579L71.4833 53.0512C72.3142 51.7201 73.5821 50.6822 75.0526 50.1316L81.5386 47.6994C82.3379 47.3989 83.1688 47.2034 84.0097 47.0812L67.1176 63.9748ZM80.4375 18.1875H90.5C92.8776 18.1875 94.8125 20.1224 94.8125 22.5V36.2799L91.9375 39.1549V21.0625H80.4375V18.1875ZM54.5625 15.3125H77.5625V21.0625H54.5625V15.3125ZM89.0625 23.9375V42.0299L86.9537 44.1387C84.7903 43.9619 82.5794 44.2379 80.5281 45.0069L74.6875 47.1991V26.8125H45.9375V64.1875H63.6058C63.9278 64.9178 64.418 65.5603 65.0433 66.0491L61.9311 69.1612L57.2147 83.3106C56.4801 83.7174 55.8994 84.3844 55.6191 85.2224L55.1605 86.6053C54.9521 87.2249 54.0047 87.3499 53.6425 86.8094L52.0023 84.3513C51.3871 83.4256 50.3578 82.875 49.2481 82.875C47.4224 82.875 45.9375 84.3599 45.9375 86.1856V90.0625H48.8125V86.1856C48.8125 85.7989 49.3933 85.6221 49.6103 85.9441L51.2505 88.4022C51.9419 89.4415 53.1006 90.0625 54.3512 90.0625C55.9569 90.0625 57.3786 89.039 57.8874 87.5138L58.346 86.1324C58.4998 85.6752 59.2502 85.6767 59.404 86.1309L60.0581 88.096C60.4505 89.2719 61.5459 90.0625 62.7864 90.0625H70.375V87.1875H62.7864L62.1309 85.2196C61.9211 84.5928 61.5373 84.0638 61.0514 83.6642L72.5888 79.8189L85.3322 67.0754C86.5914 67.12 87.8349 67.3198 89.0625 67.5987V92.9375H43.0625V23.9375H89.0625ZM94.8125 94.375C94.8125 96.7526 92.8776 98.6875 90.5 98.6875H41.625C39.2474 98.6875 37.3125 96.7526 37.3125 94.375V22.5C37.3125 20.1224 39.2474 18.1875 41.625 18.1875H51.6875V21.0625H40.1875V95.8125H91.9375V68.3519L94.8125 69.1727V94.375ZM106.312 64.8559L105.911 65.1248C103.116 66.9863 99.5721 67.5426 96.3348 66.6198L90.9212 65.073C88.867 64.4851 86.7424 64.1875 84.6063 64.1875H81.8577C79.4902 64.1875 77.5625 62.2598 77.5625 59.8908C77.5625 59.093 78.2137 58.4447 79.0158 58.4433L88.0131 58.4346C91.8024 58.4346 95.5083 56.8994 98.1834 54.2242L101.461 50.9481L106.312 52.3339V64.8559ZM120.688 65.4741L109.188 64.3241V52.2232L120.688 47.6232V65.4741Z" fill="#0C1A40"/>
<path d="M77.5625 26.8125H86.1875V29.6875H77.5625V26.8125Z" fill="#0C1A40"/>
<path d="M77.5625 32.5625H86.1875V35.4375H77.5625V32.5625Z" fill="#0C1A40"/>
<path d="M77.5625 38.3125H86.1875V41.1875H77.5625V38.3125Z" fill="#0C1A40"/>
<path d="M45.9375 67.0625H51.6875V69.9375H45.9375V67.0625Z" fill="#0C1A40"/>
<path d="M45.9375 72.8125H54.5625V75.6875H45.9375V72.8125Z" fill="#0C1A40"/>
</svg>
