<svg width="133" height="115" viewBox="0 0 133 115" fill="none" xmlns="http://www.w3.org/2000/svg">
<path d="M133 57.1559C127.34 86.612 105.024 115 76 115C46.9757 115 0 84.1091 0 55.1384C0 26.1676 46.9757 0 76 0C105.024 0 133 28.1852 133 57.1559Z" fill="#FF6150"/>
<g clip-path="url(#clip0_374_10203)">
<path d="M60.306 79.8715C65.2981 68.0184 68.5138 40.9635 68.5138 32.497C68.5138 17.9965 59.082 12.7822 47.4473 12.7822C35.8125 12.7822 26.3806 17.9965 26.3806 32.497C26.3806 40.9635 29.5962 68.0186 34.5884 79.8715H60.306Z" fill="#407194"/>
<path d="M47.4471 12.7822C46.566 12.7822 45.6975 12.8127 44.8447 12.8741C54.9667 13.6259 62.8037 19.0946 62.8037 32.497C62.8037 40.9635 59.676 68.0186 54.8205 79.8715H60.3058C65.298 68.0186 68.5136 40.9635 68.5136 32.497C68.5138 17.9963 59.0819 12.7822 47.4471 12.7822Z" fill="#365F7E"/>
<path d="M41.728 44.9507H53.1655V64.7387H41.728V44.9507Z" fill="#FFCDBE"/>
<path d="M53.1655 44.9507H41.728V58.4843C43.2545 59.2064 44.9602 59.6118 46.7607 59.6118H48.1313C49.9327 59.6118 51.6386 59.2064 53.1655 58.4841V44.9507Z" fill="#EBAE9D"/>
<path d="M66.7849 39.5692C66.7849 41.7823 64.9899 43.5773 62.7767 43.5773H55.688V35.561H62.7767C64.9899 35.561 66.7849 37.3539 66.7849 39.5692Z" fill="#FFCDBE"/>
<path d="M59.9197 32.8781V43.6831C59.9197 50.1942 54.6425 55.4714 48.1313 55.4714H46.7608C40.2517 55.4714 34.9745 50.1942 34.9745 43.6852V42.2235C42.616 38.9172 49.2617 33.317 53.7978 26.3359C57.2159 26.5595 59.9197 29.4041 59.9197 32.8781Z" fill="#FFCDBE"/>
<path d="M74.3417 71.0485V99.101H30.0917V84.4788H20.5527V71.0485C20.5527 66.828 23.9762 63.4043 28.1969 63.4043H66.6975C70.9183 63.4045 74.3417 66.828 74.3417 71.0485Z" fill="#9EC8FC"/>
<path d="M66.6974 63.4045C65.6509 63.4045 64.8022 64.253 64.8022 65.2997V99.1013H74.3416V71.0485C74.3416 66.8268 70.9192 63.4045 66.6974 63.4045Z" fill="#80B6FC"/>
<path d="M74.4456 19.2568V53.0775C74.4456 53.6491 74.9091 54.1126 75.4807 54.1126H119.307C119.879 54.1126 120.343 53.6491 120.343 53.0775V19.2568H74.4456Z" fill="#D8E2F3"/>
<path d="M119.307 48.9346H75.4807C74.9091 48.9346 74.4456 48.471 74.4456 47.8994V53.0775C74.4456 53.6491 74.9091 54.1126 75.4807 54.1126H119.307C119.879 54.1126 120.343 53.6491 120.343 53.0775V47.8994C120.343 48.471 119.879 48.9346 119.307 48.9346Z" fill="#BED9FD"/>
<path d="M71.3411 18.2217V15.333C71.3411 14.7614 71.8046 14.2979 72.3762 14.2979H122.412C122.984 14.2979 123.447 14.7614 123.447 15.333V18.2217C123.447 18.7933 122.984 19.2569 122.412 19.2569H72.3762C71.8046 19.2569 71.3411 18.7933 71.3411 18.2217Z" fill="#FF6150"/>
<path d="M50.919 77.6462L30.092 89.6706V65.2995C30.092 64.2527 29.2436 63.4043 28.1969 63.4043C23.9786 63.4043 20.5566 66.8242 20.5529 71.0417V95.0509C20.5529 98.4568 23.3138 101.218 26.7197 101.218H27.5174C28.6 101.218 29.6633 100.933 30.6009 100.391L55.6885 85.9072L50.919 77.6462Z" fill="#80B6FC"/>
<path d="M53.867 84.0825L28.7793 98.5668C27.8419 99.1082 26.7784 99.3931 25.6958 99.3931H24.8981C23.6598 99.3931 22.5077 99.0268 21.5415 98.3985C22.6402 100.095 24.5482 101.218 26.7196 101.218H27.5173C28.5998 101.218 29.6631 100.933 30.6008 100.392L55.6884 85.9075L54.4427 83.75L53.867 84.0825Z" fill="#62A4FB"/>
<path d="M50.9189 77.6463L57.8764 73.6293C60.1577 72.3122 63.0748 73.0939 64.3917 75.375C65.7088 77.6563 64.9271 80.5733 62.646 81.8903L55.6885 85.9071L50.9189 77.6463Z" fill="#FFCDBE"/>
<path d="M64.3918 75.3751C63.9475 74.6058 63.321 74.0077 62.5987 73.6025C63.8742 75.8759 63.0883 78.7584 60.8244 80.0656L54.4429 83.75L55.6886 85.9074L62.6461 81.8906C64.9273 80.5733 65.7089 77.6564 64.3918 75.3751Z" fill="#EBAE9D"/>
<path d="M47.6553 63.4043C50.0483 72.6162 55.7334 70.8284 59.9196 63.4043H47.6553Z" fill="#D8E2F3"/>
<path d="M47.8601 63.4043C45.4671 72.6162 39.782 70.8284 35.5958 63.4043H47.8601Z" fill="#D8E2F3"/>
<path d="M47.6902 49.1841C49.1711 49.1841 50.5785 48.6112 51.6528 47.5713C52.2689 46.9748 52.2848 45.9918 51.6884 45.3757C51.0921 44.7596 50.1089 44.7432 49.4928 45.3401C49.0009 45.8165 48.3606 46.0786 47.69 46.0786H47.2028C46.5325 46.0786 45.8921 45.8163 45.4 45.3401C44.7837 44.7434 43.8007 44.7596 43.2045 45.3757C42.608 45.9921 42.6239 46.975 43.2401 47.5713C44.3143 48.6112 45.7217 49.1841 47.2026 49.1841H47.6902Z" fill="#0C1A40"/>
<path d="M122.412 12.7453H72.3761C70.9491 12.7453 69.7882 13.9061 69.7882 15.3332V18.2219C69.7882 19.6489 70.9491 20.8098 72.3761 20.8098H72.8929V53.0776C72.8929 54.5047 74.0537 55.6655 75.4808 55.6655H76.1263L70.7543 62.7978C69.5299 62.1934 68.1533 61.8522 66.6979 61.8522H66.6848C68.7829 50.5156 70.0663 38.0174 70.0663 32.4973C70.0663 25.2063 67.7985 19.6558 63.326 15.9996C59.4535 12.8339 54.1114 11.2288 47.4481 11.2288C40.3629 11.2288 34.7884 13.0341 30.8794 16.5942C30.2455 17.1716 30.1995 18.1535 30.7769 18.7877C31.3546 19.4218 32.3365 19.4676 32.9704 18.8902C36.2896 15.8671 41.1606 14.3342 47.4481 14.3342C56.3499 14.3342 66.9608 17.4854 66.9608 32.4971C66.9608 33.4103 66.924 34.5233 66.8536 35.7926C65.8373 34.6962 64.3862 34.0082 62.7767 34.0082H61.4724V32.8778C61.4724 29.4461 59.3127 26.4737 56.2525 25.3021C56.5509 24.7872 56.8382 24.2695 57.1095 23.7508C57.5067 22.991 57.2128 22.0528 56.453 21.6555C55.6927 21.258 54.7549 21.5522 54.3574 22.3122C52.1865 26.464 49.0926 30.4909 45.1447 33.9509C45.129 33.9647 45.1132 33.9784 45.0975 33.9921C41.9105 36.777 38.2731 39.1039 34.3577 40.7982C33.7894 41.0442 33.4218 41.604 33.4218 42.2232V43.6848C33.4218 48.6457 36.1461 52.9797 40.1751 55.2778V61.8518H31.3659C29.2389 50.5438 27.9332 37.9687 27.9332 32.4969C26.6555 22.3122 32.7363 20.1798 33.6638 17.8416C33.9799 17.0443 33.5901 16.1419 32.7928 15.8257C31.9957 15.51 31.0933 15.8995 30.7769 16.6965C29.011 18.7877 24.2999 21.0777 24.8275 32.4971C24.8275 38.0145 26.1102 50.5123 28.2071 61.8518H28.1965C23.1298 61.8518 19.0041 65.9738 18.9998 71.042V95.0512C18.9998 99.3079 22.4628 102.771 26.7193 102.771H27.517C28.87 102.771 30.2047 102.413 31.3769 101.737L33.2518 100.654H74.3413C75.1988 100.654 75.894 99.959 75.894 99.1013V71.0486C75.894 68.5497 74.8907 66.2817 73.2676 64.6223L80.0139 55.6655H96.0595V57.9147C94.1324 58.5646 92.7403 60.3879 92.7403 62.5313C92.7403 65.2178 94.9258 67.403 97.6122 67.403C100.298 67.403 102.484 65.2175 102.484 62.5313C102.484 60.3877 101.092 58.5646 99.1649 57.9147V55.6655H119.307C120.734 55.6655 121.895 54.5047 121.895 53.0776V20.8098H122.412C123.839 20.8098 125 19.6489 125 18.2219V15.3332C125 13.9063 123.839 12.7453 122.412 12.7453ZM63.526 61.8525H54.7189V55.2776C58.3508 53.2056 60.9209 49.4796 61.3923 45.1307H62.7765C64.0452 45.1307 65.2153 44.7028 66.1522 43.9846C65.5584 49.4598 64.6588 55.8347 63.526 61.8525ZM45.7302 64.9579C44.9814 66.8415 44.0232 67.9595 42.9953 68.0934C41.7225 68.2599 40.0536 67.0742 38.4543 64.9579H45.7302ZM57.0604 64.9579C55.4604 67.0734 53.7907 68.2578 52.52 68.0934C51.4919 67.9595 50.5339 66.8417 49.7851 64.9579H57.0604ZM62.7767 37.1141C64.1307 37.1141 65.2321 38.2155 65.2321 39.5695C65.2321 40.9235 64.1307 42.0249 62.7767 42.0249H61.4724V37.1139L62.7767 37.1141ZM36.527 43.6855V43.2306C40.7476 41.2829 44.7234 38.6211 48.2278 35.3483C48.2326 35.344 48.2373 35.3396 48.2421 35.3351C50.6826 33.0542 52.8129 30.5495 54.5443 28.0153C56.7449 28.5486 58.3667 30.5415 58.3667 32.8784V43.6834C58.3667 49.3275 53.775 53.919 48.1311 53.919H46.7606C41.1177 53.919 36.527 49.3281 36.527 43.6855ZM43.2804 56.5609C44.3907 56.8613 45.5567 57.0245 46.7606 57.0245H48.1311C49.3358 57.0245 50.5025 56.8611 51.6134 56.5605V61.8525H43.2804V56.5609ZM72.7888 71.0486V97.5488H66.355V88.8856C66.355 88.0278 65.6598 87.3328 64.8023 87.3328C63.9448 87.3328 63.2496 88.0278 63.2496 88.8856V97.5488H38.6309L45.313 93.6908C46.0556 93.262 46.3101 92.3123 45.8813 91.5697C45.4526 90.8271 44.5029 90.5729 43.7603 91.0014L29.8244 99.0473C29.1238 99.4518 28.3261 99.6655 27.5172 99.6655H26.7195C24.1753 99.6655 22.1054 97.5956 22.1054 95.0512V71.0436C22.1083 67.6889 24.8393 64.9594 28.1938 64.9577H34.7068C37.1597 68.9818 40.0356 71.2138 42.7605 71.2138C44.5143 71.2138 46.336 70.3035 47.7576 67.8826C49.1358 70.2291 50.79 70.9995 52.1188 71.1726C55.7341 71.644 58.8939 68.099 60.8087 64.9577H66.6979C67.4496 64.9577 68.1697 65.0956 68.8351 65.3457L63.5521 72.3597C63.0434 72.0508 62.4883 71.8117 61.8975 71.6533C60.2663 71.2161 58.5624 71.4405 57.0999 72.285L31.6446 86.9815V82.409C31.6446 81.5513 30.9494 80.8563 30.0919 80.8563C29.2343 80.8563 28.5391 81.5513 28.5391 82.409V89.6708C28.5391 90.2257 28.8352 90.7381 29.3155 91.0155C29.7958 91.2929 30.3879 91.2929 30.8682 91.0155L50.3505 79.7675L53.5673 85.3393L43.1443 91.357C42.4017 91.7858 42.1473 92.7355 42.576 93.4781C43.0048 94.2207 43.9545 94.4749 44.6971 94.0464L63.4222 83.2353C64.8847 82.391 65.9308 81.0277 66.3681 79.3965C66.8039 77.7701 66.582 76.0714 65.7435 74.612L71.3681 67.1444C72.2542 68.2023 72.7888 69.5642 72.7888 71.0486ZM56.2569 83.7868L53.04 78.215L58.6529 74.9745C59.3971 74.5447 60.264 74.4306 61.094 74.653C61.924 74.8753 62.6177 75.4078 63.0473 76.1519C63.4769 76.896 63.591 77.7628 63.3686 78.5928C63.1463 79.4228 62.6138 80.1163 61.8697 80.5461L56.2569 83.7868ZM97.6124 64.2977C96.6383 64.2977 95.846 63.5054 95.846 62.5315C95.846 61.5574 96.6383 60.7651 97.6124 60.7651C98.5863 60.7651 99.3786 61.5574 99.3786 62.5315C99.3786 63.5054 98.5863 64.2977 97.6124 64.2977ZM72.8937 15.8507H121.894V17.7043H72.8937V15.8507ZM118.79 52.5603H82.3532L85.3618 48.5658C85.8777 47.8807 85.7408 46.9073 85.0558 46.3914C84.3705 45.8752 83.3972 46.0121 82.8813 46.6973L78.4653 52.5603H75.9984V20.8098H118.79V52.5603Z" fill="#0C1A40"/>
</g>
<defs>
<clipPath id="clip0_374_10203">
<rect width="106" height="106" fill="white" transform="translate(19 4)"/>
</clipPath>
</defs>
</svg>
