<svg width="78" height="80" viewBox="0 0 78 80" fill="none" xmlns="http://www.w3.org/2000/svg">
<path d="M71.218 78.8281H5.22021C3.06287 78.8281 1.31396 77.0792 1.31396 74.9219V12.7266C1.31396 10.5692 3.06287 8.82031 5.22021 8.82031H71.2179C73.3752 8.82031 75.1241 10.5692 75.1241 12.7266V74.9219C75.1243 77.0792 73.3754 78.8281 71.218 78.8281Z" fill="#F2FDFF"/>
<path d="M72.7808 8.82031H68.0933C70.2506 8.82031 71.9995 10.5692 71.9995 12.7266V74.9219C71.9995 77.0792 70.2506 78.8281 68.0933 78.8281H72.7808C74.9381 78.8281 76.687 77.0792 76.687 74.9219V12.7266C76.687 10.5692 74.9381 8.82031 72.7808 8.82031Z" fill="#D3ECF5"/>
<path d="M71.218 8.82031H69.0535L65.3463 10.3828L61.6391 8.82031H45.8326L42.1254 10.3828L38.4182 8.82031H22.6116L18.9044 10.3828L15.1972 8.82031H5.22021C3.06287 8.82031 1.31396 10.5692 1.31396 12.7266V25.6644H75.1241V12.7266C75.1243 10.5692 73.3754 8.82031 71.218 8.82031Z" fill="#ED6479"/>
<path d="M72.7808 8.82031H68.0933C70.2506 8.82031 71.9995 10.5692 71.9995 12.7266V25.6644H76.687V12.7266C76.687 10.5692 74.9381 8.82031 72.7808 8.82031Z" fill="#D65461"/>
<path d="M65.3463 16.4688C67.3938 16.4688 69.0535 14.8091 69.0535 12.7616V8.82031H61.6392V12.7616C61.6392 14.8091 63.2988 16.4688 65.3463 16.4688Z" fill="#FE646F"/>
<path d="M42.1252 16.4688C44.1727 16.4688 45.8323 14.8091 45.8323 12.7616V8.82031H38.418V12.7616C38.418 14.8091 40.0778 16.4688 42.1252 16.4688Z" fill="#D65461"/>
<path d="M18.9045 16.4688C20.952 16.4688 22.6116 14.8091 22.6116 12.7616V8.82031H15.1973V12.7616C15.1973 14.8091 16.8571 16.4688 18.9045 16.4688Z" fill="#D65461"/>
<path d="M39.0002 16.4688C36.9527 16.4688 35.293 14.8091 35.293 12.7616V4.87906C35.293 2.83156 36.9527 1.17188 39.0002 1.17188C41.0477 1.17188 42.5511 2.83156 42.5511 4.87906V12.7617C42.5511 14.8091 41.0477 16.4688 39.0002 16.4688Z" fill="#9DC6FB"/>
<path d="M15.7795 16.4688C13.732 16.4688 12.0723 14.8091 12.0723 12.7616V4.87906C12.0723 2.83156 13.7321 1.17188 15.7795 1.17188C17.827 1.17188 19.3304 2.83156 19.3304 4.87906V12.7617C19.3304 14.8091 17.827 16.4688 15.7795 16.4688Z" fill="#9DC6FB"/>
<path d="M62.2213 16.4688C60.1738 16.4688 58.5142 14.8091 58.5142 12.7616V4.87906C58.5142 2.83172 60.1738 1.17188 62.2213 1.17188C64.2687 1.17188 65.7723 2.83156 65.7723 4.87906V12.7617C65.7723 14.8091 64.2687 16.4688 62.2213 16.4688Z" fill="#9DC6FB"/>
<path d="M62.2212 1.17188C61.7531 1.17188 61.3054 1.25953 60.8931 1.41797C62.2842 1.95219 63.2721 3.29984 63.2721 4.87906V12.7617C63.2721 14.3409 62.2843 15.6886 60.8931 16.2228C61.3054 16.3812 61.7531 16.4689 62.2212 16.4689C64.2685 16.4689 65.9284 14.8092 65.9284 12.7617V4.87906C65.9284 2.83156 64.2685 1.17188 62.2212 1.17188Z" fill="#80B4FB"/>
<path d="M39.0005 1.17188C38.5322 1.17188 38.0847 1.25953 37.6724 1.41797C39.0635 1.95219 40.0514 3.29984 40.0514 4.87906V12.7617C40.0514 14.3409 39.0636 15.6886 37.6724 16.2228C38.0847 16.3812 38.5322 16.4689 39.0005 16.4689C41.0478 16.4689 42.7077 14.8092 42.7077 12.7617V4.87906C42.7077 2.83156 41.0478 1.17188 39.0005 1.17188Z" fill="#80B4FB"/>
<path d="M15.7798 1.17188C15.3115 1.17188 14.864 1.25953 14.4517 1.41797C15.8428 1.95219 16.8307 3.29984 16.8307 4.87906V12.7617C16.8307 14.3409 15.8428 15.6886 14.4517 16.2228C14.864 16.3812 15.3115 16.4689 15.7798 16.4689C17.8271 16.4689 19.487 14.8092 19.487 12.7617V4.87906C19.4868 2.83156 17.8271 1.17188 15.7798 1.17188Z" fill="#80B4FB"/>
<path d="M68.2942 48.7694H55.6224C55.1677 48.7694 54.7993 48.4008 54.7993 47.9462V35.2745C54.7993 34.8198 55.1679 34.4514 55.6224 34.4514H68.2942C68.7488 34.4514 69.1173 34.82 69.1173 35.2745V47.9462C69.1173 48.4008 68.7488 48.7694 68.2942 48.7694Z" fill="#ED6479"/>
<path d="M45.3362 70.2455H32.6644C32.2097 70.2455 31.8413 69.8769 31.8413 69.4223V56.7506C31.8413 56.2959 32.2099 55.9275 32.6644 55.9275H45.3362C45.7908 55.9275 46.1593 56.2961 46.1593 56.7506V69.4223C46.1594 69.877 45.7908 70.2455 45.3362 70.2455Z" fill="#ED6479"/>
<path d="M22.3781 70.2455H9.70643C9.25174 70.2455 8.8833 69.8769 8.8833 69.4223V56.7506C8.8833 56.2959 9.25189 55.9275 9.70643 55.9275H22.3781C22.8328 55.9275 23.2013 56.2961 23.2013 56.7506V69.4223C23.2013 69.877 22.8328 70.2455 22.3781 70.2455Z" fill="#ED6479"/>
<path d="M68.2942 70.2455H55.6224C55.1677 70.2455 54.7993 69.8769 54.7993 69.4223V56.7506C54.7993 56.2959 55.1679 55.9275 55.6224 55.9275H68.2942C68.7488 55.9275 69.1173 56.2961 69.1173 56.7506V69.4223C69.1173 69.877 68.7488 70.2455 68.2942 70.2455Z" fill="#ED6479"/>
<path d="M45.3362 48.7694H32.6644C32.2097 48.7694 31.8413 48.4008 31.8413 47.9462V35.2745C31.8413 34.8198 32.2099 34.4514 32.6644 34.4514H45.3362C45.7908 34.4514 46.1593 34.82 46.1593 35.2745V47.9462C46.1594 48.4008 45.7908 48.7694 45.3362 48.7694Z" fill="#F9D065"/>
<path d="M22.3781 48.7694H9.70643C9.25174 48.7694 8.8833 48.4008 8.8833 47.9462V35.2745C8.8833 34.8198 9.25189 34.4514 9.70643 34.4514H22.3781C22.8328 34.4514 23.2013 34.82 23.2013 35.2745V47.9462C23.2013 48.4008 22.8328 48.7694 22.3781 48.7694Z" fill="#F9D065"/>
<path d="M59.0852 77.6562H5.22021C3.71256 77.6562 2.48584 76.4295 2.48584 74.9219V42.5536C2.48584 41.9062 1.96131 41.3817 1.31396 41.3817C0.666621 41.3817 0.14209 41.9062 0.14209 42.5536V74.9219C0.14209 77.722 2.42006 80 5.22021 80H59.0852C59.7326 80 60.2571 79.4755 60.2571 78.8281C60.2571 78.1808 59.7324 77.6562 59.0852 77.6562Z" fill="#0C1A40"/>
<path d="M55.6224 49.9412H68.2942C69.3943 49.9412 70.2892 49.0464 70.2892 47.9462V35.2745C70.2892 34.1744 69.3943 33.2794 68.2942 33.2794H55.6224C54.5223 33.2794 53.6274 34.1744 53.6274 35.2745V47.9462C53.6273 49.0464 54.5223 49.9412 55.6224 49.9412ZM55.971 35.6231H67.9454V47.5975H55.971V35.6231Z" fill="#0C1A40"/>
<path d="M30.6694 69.4223C30.6694 70.5225 31.5644 71.4175 32.6644 71.4175H45.3363C46.4363 71.4175 47.3313 70.5227 47.3313 69.4223V56.7506C47.3313 55.6505 46.4363 54.7555 45.3363 54.7555H32.6644C31.5644 54.7555 30.6694 55.6505 30.6694 56.7506V69.4223ZM33.0132 57.0992H44.9874V69.0736H33.0132V57.0992Z" fill="#0C1A40"/>
<path d="M7.71143 69.4223C7.71143 70.5225 8.60643 71.4175 9.70658 71.4175H22.3783C23.4785 71.4175 24.3735 70.5227 24.3735 69.4223V56.7506C24.3735 55.6505 23.4785 54.7555 22.3783 54.7555H9.70658C8.60643 54.7555 7.71143 55.6505 7.71143 56.7506V69.4223ZM10.0552 57.0992H22.0295V69.0736H10.0552V57.0992Z" fill="#0C1A40"/>
<path d="M53.6274 69.4223C53.6274 70.5225 54.5223 71.4175 55.6224 71.4175H68.2942C69.3943 71.4175 70.2892 70.5227 70.2892 69.4223V56.7506C70.2892 55.6505 69.3943 54.7555 68.2942 54.7555H55.6224C54.5223 54.7555 53.6274 55.6505 53.6274 56.7506V69.4223ZM55.9712 57.0992H67.9456V69.0736H55.9712V57.0992Z" fill="#0C1A40"/>
<path d="M45.3363 33.2794H32.6644C31.5644 33.2794 30.6694 34.1744 30.6694 35.2745V47.9462C30.6694 49.0464 31.5644 49.9412 32.6644 49.9412H45.3363C46.4363 49.9412 47.3313 49.0464 47.3313 47.9462V40.8589L50.3624 37.807C50.8185 37.348 50.8158 36.6058 50.3568 36.1498C49.8976 35.6937 49.1555 35.6964 48.6994 36.1555L47.3312 37.5331V35.2748C47.3312 34.1744 46.4363 33.2794 45.3363 33.2794ZM44.9874 47.5975H33.0132V35.6231H44.9874V39.8927L41.6071 43.2961L39.0402 40.7742C38.5788 40.3208 37.8369 40.3273 37.383 40.7891C36.9296 41.2508 36.9362 41.9927 37.3979 42.4464L40.7962 45.7848C41.0243 46.0089 41.3208 46.1206 41.6174 46.1206C41.9187 46.1206 42.2197 46.0052 42.4488 45.7745L44.9874 43.2186V47.5975Z" fill="#0C1A40"/>
<path d="M22.3781 33.2794H9.70658C8.60643 33.2794 7.71143 34.1744 7.71143 35.2745V47.9462C7.71143 49.0464 8.60643 49.9412 9.70658 49.9412H22.3783C23.4785 49.9412 24.3735 49.0464 24.3735 47.9462V39.797L26.35 37.8069C26.8061 37.3478 26.8035 36.6056 26.3444 36.1497C25.885 35.6936 25.143 35.6962 24.6871 36.1553L24.3733 36.4711V35.2745C24.3733 34.1744 23.4783 33.2794 22.3781 33.2794ZM22.0295 47.5975H10.0552V35.6231H22.0295V38.8308L17.5947 43.2959L15.0278 40.7742C14.5664 40.3208 13.8242 40.3272 13.3708 40.7889C12.9172 41.2505 12.9238 41.9925 13.3855 42.4459L16.7836 45.7844C17.0117 46.0086 17.3083 46.1203 17.6049 46.1203C17.9061 46.1203 18.2072 46.0048 18.4363 45.7742L22.0295 42.1564V47.5975Z" fill="#0C1A40"/>
<path d="M72.7802 7.64844H67.1002V4.87906C67.1002 2.18875 64.9115 0 62.221 0C59.5307 0 57.3419 2.18875 57.3419 4.87906V7.64844H43.8791V4.87906C43.8793 2.18875 41.6905 0 39.0002 0C36.3099 0 34.1212 2.18875 34.1212 4.87906V7.64844H20.6583V4.87906C20.6583 2.18875 18.4696 0 15.7794 0C13.089 0 10.9002 2.18875 10.9002 4.87906V7.64844H5.22021C2.42006 7.64844 0.14209 9.92641 0.14209 12.7266V37.4463C0.14209 38.0936 0.666621 38.6181 1.31396 38.6181C1.96131 38.6181 2.48584 38.0936 2.48584 37.4463V26.8363H48.7437C49.391 26.8363 49.9155 26.3117 49.9155 25.6644C49.9155 25.017 49.391 24.4925 48.7437 24.4925H2.48584V12.7266C2.48584 11.2189 3.71256 9.99219 5.22021 9.99219H10.9002V12.7617C10.9002 15.452 13.089 17.6408 15.7794 17.6408C18.4697 17.6408 20.6585 15.452 20.6585 12.7617V9.99219H34.1213V12.7617C34.1213 15.452 36.3101 17.6408 39.0004 17.6408C41.6907 17.6408 43.8794 15.452 43.8794 12.7617V9.99219H57.3422V12.7617C57.3422 15.452 59.531 17.6408 62.2213 17.6408C64.9118 17.6408 67.1005 15.452 67.1005 12.7617V9.99219H72.7807C74.2883 9.99219 75.5151 11.2189 75.5151 12.7266V24.4925H53.8508C53.2035 24.4925 52.679 25.017 52.679 25.6644C52.679 26.3117 53.2035 26.8363 53.8508 26.8363H75.5146V74.9219C75.5146 76.4295 74.2879 77.6562 72.7802 77.6562H64.1926C63.5452 77.6562 63.0207 78.1808 63.0207 78.8281C63.0207 79.4755 63.5452 80 64.1926 80H72.7802C75.5804 80 77.8583 77.722 77.8583 74.9219V12.7266C77.8583 9.92641 75.5804 7.64844 72.7802 7.64844ZM18.3146 12.7617C18.3146 14.1597 17.1774 15.297 15.7793 15.297C14.3813 15.297 13.2438 14.1598 13.2438 12.7617V4.87906C13.244 3.48094 14.3813 2.34375 15.7794 2.34375C17.1774 2.34375 18.3147 3.48094 18.3147 4.87906V12.7617H18.3146ZM41.5355 12.7617C41.5355 14.1597 40.3983 15.297 39.0002 15.297C37.6021 15.297 36.4649 14.1598 36.4649 12.7617V4.87906C36.4649 3.48094 37.6022 2.34375 39.0002 2.34375C40.3982 2.34375 41.5355 3.48094 41.5355 4.87906V12.7617ZM64.7565 12.7617C64.7565 14.1597 63.6191 15.297 62.221 15.297C60.823 15.297 59.6857 14.1598 59.6857 12.7617V4.87906C59.6857 3.48109 60.8229 2.34375 62.221 2.34375C63.619 2.34375 64.7565 3.48094 64.7565 4.87906V12.7617Z" fill="#0C1A40"/>
</svg>
