<svg width="194" height="194" viewBox="0 0 194 194" fill="none" xmlns="http://www.w3.org/2000/svg">
<path d="M170.088 98.6176C163.912 130.824 139.557 161.862 107.882 161.862C76.2069 161.862 24.9409 128.087 24.9409 96.4118C24.9409 64.7366 76.2069 36.1262 107.882 36.1262C139.557 36.1262 170.088 66.9425 170.088 98.6176Z" fill="#F7E49D"/>
<circle cx="97.2941" cy="97.2941" r="95.2941" stroke="#F6E49D" stroke-width="2.64706" stroke-linecap="round" stroke-dasharray="8.82 8.82"/>
<path d="M80.1354 67.4592L74.1363 67.491C73.6331 64.7669 71.2399 62.7095 68.3726 62.7248C67.2902 62.7305 66.2788 63.0319 65.4128 63.5504C64.1497 61.4085 61.8152 59.9756 59.1492 59.9897C58.0613 59.9954 57.0317 60.2429 56.1085 60.6787C54.5468 58.7653 52.1668 57.5479 49.505 57.5622C44.831 57.5871 41.0621 61.396 41.087 66.0701C41.0877 66.1857 41.0905 66.3021 41.0958 66.4189C41.2746 70.4231 44.6805 73.5262 48.6886 73.505L64.5871 73.4206L72.523 73.3785L80.2642 73.3375C81.9059 73.3287 83.2261 71.9758 83.1871 70.3274C83.1489 68.7093 81.7538 67.4504 80.1354 67.4592Z" fill="#26A6FE"/>
<path d="M155.123 107.99C151.805 106.804 148.228 106.166 144.5 106.186C132.702 106.249 122.475 112.878 117.264 122.592C115.359 121.773 113.26 121.321 111.054 121.333C102.663 121.377 95.8622 128.064 95.606 136.383L155.272 136.067L155.123 107.99Z" fill="#00C27A"/>
<path d="M123.905 114.062C126.854 116.837 130.831 118.528 135.199 118.504C144.233 118.456 151.517 111.094 151.469 102.06C151.421 93.0267 144.059 85.7425 135.025 85.7905C125.991 85.8384 118.707 93.2005 118.755 102.234C118.764 103.854 119.007 105.418 119.454 106.893" fill="#46CC8D"/>
<path d="M119.454 106.893C120.293 109.667 121.849 112.128 123.905 114.062L119.454 106.893Z" fill="#46CC8D"/>
<path d="M135.025 85.7906C133.867 85.7969 132.739 85.925 131.65 86.1596C138.992 87.7374 144.514 94.2418 144.555 102.061C144.597 109.936 139.065 116.54 131.661 118.135C132.801 118.381 133.984 118.511 135.199 118.504C144.233 118.456 151.517 111.094 151.469 102.061C151.421 93.0269 144.059 85.7425 135.025 85.7906Z" fill="#00C27A"/>
<path d="M149.94 134.664L130.962 134.765C127.704 134.782 124.721 133.177 123.177 130.575L107.02 103.358C105.747 101.213 103.277 99.8759 100.591 99.8777L90.9482 99.8844L90.9508 91.4717L105.239 91.462C108.478 91.4597 111.444 93.0652 112.979 95.6519L129.123 122.847C130.403 125.004 132.89 126.342 135.59 126.328L149.895 126.252L149.94 134.664Z" fill="#60B7FF"/>
<path d="M73.2814 52.5939L60.6445 68.7155L90.8053 68.5554L77.9978 52.569C76.785 51.0553 74.4781 51.0675 73.2814 52.5939L60.6445 68.7155L90.8053 68.5554L77.9978 52.569C76.785 51.0553 74.4781 51.0675 73.2814 52.5939Z" fill="#FD4755"/>
<path d="M60.7534 92.7693L90.9146 92.6185L90.9475 99.2052L60.7864 99.356L60.7534 92.7693Z" fill="#EE3D55"/>
<path d="M60.6333 68.7228L90.7945 68.572L90.9147 92.6185L60.7535 92.7693L60.6333 68.7228Z" fill="#F07281"/>
<path d="M90.8053 68.5553L83.8923 68.5919L84.02 92.6013L60.772 92.7248L60.7722 92.7615L90.9332 92.6013L90.8053 68.5553Z" fill="#EB5569"/>
<path d="M81.6289 81.7183C82.4106 78.5122 80.4453 75.2795 77.2393 74.4977C74.0332 73.716 70.8004 75.6813 70.0187 78.8874C69.237 82.0935 71.2023 85.3262 74.4084 86.1079C77.6144 86.8897 80.8472 84.9244 81.6289 81.7183Z" fill="#0172FB"/>
<path d="M81.6289 81.7183C82.4106 78.5122 80.4453 75.2795 77.2393 74.4977C74.0332 73.716 70.8004 75.6813 70.0187 78.8874C69.237 82.0935 71.2023 85.3262 74.4084 86.1079C77.6144 86.8897 80.8472 84.9244 81.6289 81.7183Z" fill="#593636"/>
<path d="M153.549 141.3L42.4856 141.89C41.5291 141.895 40.7495 141.124 40.7444 140.167L40.7283 137.152C40.7232 136.195 41.4945 135.416 42.4511 135.41L153.514 134.821C154.471 134.815 155.25 135.587 155.255 136.543L155.271 139.559C155.277 140.516 154.505 141.295 153.549 141.3Z" fill="#F6E49D"/>
<path d="M49.4088 125.995C49.4477 133.345 52.685 133.434 56.6774 133.413C60.67 133.392 63.9058 133.269 63.8669 125.918C63.8279 118.567 60.5296 106.962 56.537 106.983C52.5446 107.004 49.3699 118.644 49.4088 125.995Z" fill="#08B865"/>
<path d="M64.9346 126.894C64.2704 126.898 63.6376 127.03 63.0576 127.266C61.9617 125.987 60.3329 125.18 58.5173 125.189C57.6573 125.194 56.8417 125.383 56.1057 125.715C54.7922 123.287 52.2182 121.644 49.2648 121.659C44.9973 121.682 41.5564 125.16 41.579 129.427C41.5919 131.878 42.7459 134.055 44.533 135.461L68.7458 135.332C69.5498 134.43 70.0361 133.239 70.0291 131.935C70.0144 129.137 67.7335 126.88 64.9346 126.894Z" fill="#6ED5A1"/>
<path d="M141.815 49.8482L137.076 49.8733C136.001 48.0597 134.021 46.8474 131.76 46.8596C131.493 46.861 131.231 46.8854 130.973 46.9198C130.143 41.8991 125.769 38.0821 120.517 38.11C115.283 38.1379 110.962 41.9757 110.164 46.9806C106.833 47.0672 104.168 49.7977 104.185 53.1451C104.185 53.1594 104.186 53.1734 104.186 53.1877C104.211 55.2587 105.95 56.9008 108.021 56.8898L123.551 56.8073L136.654 56.7377L141.851 56.71C143.746 56.6999 145.274 55.1557 145.264 53.2608C145.254 51.3661 143.71 49.838 141.815 49.8482Z" fill="#8AC9FE"/>
<path d="M141.718 49.8486L137.076 49.8733C136.001 48.0597 134.02 46.8476 131.76 46.8596C131.493 46.861 131.231 46.8852 130.973 46.9198C130.143 41.8989 125.769 38.0821 120.517 38.11C117.544 38.1259 114.867 39.3717 112.962 41.3613C113.174 41.3472 113.388 41.3373 113.604 41.3362C118.568 41.3099 122.747 44.7186 123.892 49.332C123.995 49.7477 124.418 50.0885 124.846 50.0858C126.569 50.0766 128.128 50.778 129.249 51.9145C129.984 52.66 130.976 53.0951 132.023 53.0896L134.901 53.0744C136.796 53.0642 138.341 54.5923 138.35 56.4872C138.351 56.5688 138.345 56.6487 138.34 56.7289L141.851 56.7105C143.801 56.7001 145.362 55.0654 145.259 53.0956C145.162 51.2502 143.565 49.8387 141.718 49.8486Z" fill="#60B7FF"/>
<path d="M75.8279 87.9912C80.074 87.9686 83.5101 84.4961 83.4878 80.2497C83.4767 78.1928 82.6656 76.2634 81.2034 74.8167C79.7512 73.3796 77.8298 72.5899 75.7883 72.5899C75.7745 72.5899 75.7602 72.5901 75.7461 72.5901C73.6892 72.601 71.7597 73.4123 70.3128 74.8745C68.8661 76.3366 68.0755 78.2746 68.0863 80.3318C68.0974 82.3887 68.9085 84.3182 70.3706 85.7649C71.8229 87.2017 73.7443 87.9916 75.7855 87.9916C75.7996 87.9914 75.8139 87.9912 75.8279 87.9912ZM71.5429 80.3131C71.5369 79.1796 71.9727 78.1115 72.77 77.3056C73.5675 76.4998 74.6308 76.0527 75.7646 76.0467C75.7724 76.0465 75.78 76.0465 75.7878 76.0465C76.9129 76.0465 77.972 76.4818 78.7723 77.2736C79.5781 78.0709 80.0254 79.1344 80.0312 80.2679C80.0372 81.4015 79.6014 82.4698 78.8041 83.2757C78.0067 84.0815 76.9433 84.5286 75.8097 84.5346C75.8019 84.5348 75.7943 84.5348 75.7865 84.5348C74.6614 84.5348 73.6023 84.0995 72.802 83.3077C71.9962 82.5101 71.5489 81.4467 71.5429 80.3131Z" fill="#0C1A40"/>
<path d="M156.851 107.98C156.847 107.254 156.389 106.607 155.705 106.363C154.783 106.033 153.838 105.744 152.887 105.499C153.097 104.374 153.204 103.221 153.197 102.051C153.145 92.1114 145.042 84.0619 135.114 84.0619C135.081 84.0619 135.048 84.0619 135.016 84.0621C130.185 84.0877 125.654 85.993 122.256 89.427C119.528 92.1844 117.796 95.6632 117.231 99.4279L114.466 94.7691C112.621 91.6623 109.089 89.733 105.246 89.733C105.244 89.733 105.241 89.733 105.238 89.733L104.766 89.7333L104.724 81.8649L107.584 81.8497C108.538 81.8446 109.308 81.0666 109.303 80.1121C109.298 79.1574 108.509 78.388 107.566 78.393L92.5864 78.4726C92.5864 78.4726 92.5076 68.2638 92.5051 68.2495C92.4897 68.1636 92.4685 68.0799 92.441 67.999C92.4378 67.9894 92.4339 67.9799 92.4304 67.9702C92.3675 67.7951 92.2774 67.6333 92.1647 67.4898C92.1608 67.4849 92.1583 67.4792 92.1544 67.4743L79.347 51.488C78.4369 50.3519 77.0808 49.7014 75.6246 49.7127C75.5465 49.7131 75.4684 49.7154 75.3908 49.7196C74.0399 49.7922 72.7981 50.4296 71.9491 51.4924C71.9399 51.5039 71.9305 51.5156 71.9215 51.5274L64.9771 60.3867C63.371 59.0218 61.3293 58.2613 59.1883 58.2613C59.1724 58.2613 59.156 58.2613 59.1403 58.2615C58.2628 58.2662 57.4063 58.3957 56.5808 58.648C54.694 56.8448 52.196 55.8339 49.5515 55.8339C49.533 55.8339 49.5144 55.8339 49.4962 55.8339C43.8769 55.8638 39.3294 60.4599 39.3591 66.0802C39.3598 66.2177 39.3635 66.3562 39.3695 66.4961C39.5888 71.4052 43.6589 75.2335 48.6463 75.2333C48.6634 75.2333 48.6809 75.2332 48.6981 75.233L58.9737 75.1784L59.0083 88.3135C59.0166 89.268 59.7998 90.0395 60.7518 90.0264C61.7063 90.0178 62.4732 89.2373 62.4647 88.2828L62.3884 70.4343L89.0865 70.2926L89.196 90.8822L62.4916 91.024L62.4649 85.9835C62.4598 85.0323 61.6869 84.2644 60.7368 84.2644C60.7336 84.2644 60.7306 84.2644 60.7274 84.2644C59.7729 84.2695 59.0032 85.0475 59.0083 86.002L59.0442 92.7707L59.0793 99.3574C59.0793 99.3606 59.0797 99.3636 59.0797 99.3666C59.0797 99.3694 59.0793 99.3721 59.0795 99.3749L59.186 106.206C58.3568 105.573 57.4775 105.254 56.5499 105.254C56.5428 105.254 56.5354 105.254 56.5283 105.254C51.0198 105.283 48.7477 116.576 48.1856 119.999C43.4775 120.558 39.8255 124.585 39.8511 129.437C39.8596 131.059 40.2769 132.616 41.0425 133.987C40.659 134.16 40.3055 134.401 40.0009 134.709C39.3508 135.366 38.9955 136.236 39.0003 137.161L39.0162 140.176C39.0266 142.078 40.5767 143.619 42.4763 143.618H42.4949L153.558 143.028C155.466 143.018 157.01 141.457 157 139.55L156.851 107.98ZM153.401 109.236L153.532 133.093C153.523 133.093 153.514 133.092 153.505 133.092L151.66 133.102L151.623 126.242C151.621 125.784 151.437 125.345 151.111 125.023C150.785 124.7 150.337 124.514 149.886 124.523L136.776 124.593L136.753 120.155C140.999 119.776 144.936 117.933 147.968 114.868C149.708 113.109 151.041 111.056 151.927 108.824C152.421 108.95 152.914 109.085 153.401 109.236ZM89.2142 94.3388L89.2213 95.6816L89.2209 97.4689L81.8606 97.5081C81.8574 97.5081 81.8544 97.5081 81.8512 97.5081H81.85L69.1235 97.5758H69.1223H69.1212L62.5266 97.6109L62.5101 94.4806L89.2142 94.3388ZM80.2003 112.135L70.9451 112.184L70.9202 108.332L80.1798 108.283L80.2003 112.135ZM70.9674 115.641L80.2185 115.591L80.239 119.443L70.9923 119.492L70.9674 115.641ZM80.1613 104.826L70.8979 104.875L70.873 101.023L80.141 100.974L80.1613 104.826ZM65.5821 125.195C65.4678 121.414 64.6186 116.858 63.3168 113.118C63.1251 112.567 62.9278 112.046 62.726 111.552L62.5626 101.067L67.4161 101.041L67.5756 125.69C66.9525 125.429 66.2821 125.259 65.5821 125.195ZM71.0467 128.94C71.0499 128.895 71.0529 128.851 71.0527 128.806L71.0147 122.949L80.2572 122.9L80.3134 133.481L71.5747 133.528C71.6977 133.007 71.7606 132.47 71.7579 131.926C71.7521 130.854 71.4958 129.84 71.0467 128.94ZM83.7703 133.463L83.5977 100.955L89.2492 100.926L89.4218 133.433L83.7703 133.463ZM92.8784 133.414L92.7095 101.611L100.592 101.606H100.596C102.677 101.606 104.57 102.615 105.534 104.24L114.902 120.022C113.645 119.742 112.359 119.601 111.045 119.604C102.87 119.648 95.8465 125.435 94.2221 133.407L92.8784 133.414ZM111.063 123.061C112.973 123.057 114.831 123.427 116.581 124.18C116.863 124.301 117.16 124.34 117.447 124.309L121.691 131.457C122.079 132.112 122.546 132.711 123.071 133.254L97.772 133.388C99.3296 127.383 104.77 123.094 111.063 123.061ZM133.317 124.192C132.174 123.753 131.212 122.98 130.609 121.965L128.937 119.147C130.335 119.655 131.797 119.991 133.296 120.141L133.317 124.192ZM136.794 128.05L148.176 127.989L148.202 132.945L136.821 133.005L136.794 128.05ZM120.484 102.225C120.463 98.3179 121.965 94.6361 124.713 91.8586C127.461 89.0809 131.127 87.5397 135.034 87.519C135.061 87.5187 135.086 87.5187 135.113 87.5187C143.143 87.5187 149.698 94.0303 149.741 102.07C149.761 105.977 148.259 109.659 145.511 112.436C143.128 114.845 140.056 116.321 136.734 116.686L136.682 106.853L141.117 102.37C141.788 101.692 141.783 100.598 141.104 99.9263C140.426 99.2553 139.332 99.2606 138.66 99.9395L136.656 101.965L136.643 99.4809C136.637 98.5264 135.851 97.762 134.905 97.7618C133.95 97.7669 133.181 98.5448 133.186 99.4993L133.223 106.491L131.353 104.641C130.675 103.969 129.58 103.975 128.909 104.654C128.238 105.332 128.244 106.427 128.922 107.098L133.249 111.379L133.277 116.658C130.296 116.285 127.51 115.007 125.264 112.96L120.894 105.599C120.629 104.501 120.49 103.367 120.484 102.225ZM105.24 93.1901H105.246C107.875 93.1901 110.269 94.4711 111.493 96.534L122.383 114.878C122.403 114.917 122.426 114.955 122.45 114.992L127.637 123.73C128.859 125.789 130.937 127.239 133.336 127.798L133.364 133.024L130.952 133.037C130.938 133.037 130.924 133.037 130.909 133.037C128.279 133.037 125.889 131.758 124.663 129.693L108.506 102.476C106.921 99.807 103.891 98.1496 100.595 98.1496C100.593 98.1496 100.591 98.1496 100.589 98.1496L92.6906 98.1549L92.6775 95.674L92.6782 93.1988L105.24 93.1901ZM101.309 89.736L98.7157 89.7379L98.674 81.8974L101.267 81.8835L101.309 89.736ZM95.2174 81.9158L95.2589 89.7404L92.6461 89.7422L92.6046 81.9299L95.2174 81.9158ZM74.6418 53.6601C74.9741 53.2361 75.4115 53.1707 75.6428 53.1695C75.8772 53.1748 76.3123 53.2292 76.6492 53.6495L87.2213 66.8459L64.2102 66.968L74.6418 53.6601ZM48.6797 71.7764C45.5761 71.7939 42.9572 69.3549 42.8226 66.3424C42.8185 66.2479 42.8162 66.1537 42.8155 66.061C42.7959 62.3475 45.8011 59.3103 49.5144 59.2905H49.5508C51.5812 59.2905 53.4816 60.1936 54.77 61.7716C55.2722 62.3869 56.1287 62.5809 56.8468 62.2417C57.5738 61.8986 58.3515 61.7225 59.1588 61.7182C60.5303 61.7078 61.8335 62.2118 62.8412 63.1121L59.2844 67.6492C59.28 67.655 59.277 67.6614 59.2726 67.6672C59.2219 67.7336 59.1763 67.8032 59.1359 67.8757C59.1311 67.8845 59.1256 67.8926 59.1207 67.9013C59.0811 67.9753 59.0484 68.0525 59.02 68.1315C59.0143 68.1474 59.0085 68.1633 59.0032 68.1792C58.9776 68.2574 58.9428 71.722 58.9428 71.722L48.6797 71.7764ZM53.8973 112.21C55.0237 109.647 56.0987 108.713 56.5465 108.711H56.5483C57.1583 108.711 58.6465 110.214 60.0524 114.254C61.1184 117.317 61.869 121.101 62.0782 124.323C61.0004 123.763 59.7939 123.461 58.5492 123.461C58.5356 123.461 58.5218 123.461 58.5082 123.461C57.937 123.464 57.3752 123.529 56.8274 123.656C55.5307 121.953 53.7022 120.752 51.6476 120.228C52.1421 117.251 52.9449 114.376 53.8973 112.21ZM49.274 123.388H49.3063C51.5123 123.388 53.5332 124.593 54.5857 126.538C55.0171 127.335 55.9911 127.664 56.8179 127.29C57.3579 127.046 57.9328 126.921 58.5269 126.918C59.7678 126.915 60.938 127.448 61.7459 128.391C62.2296 128.954 63.0196 129.146 63.7079 128.867C64.1024 128.707 64.5181 128.625 64.9442 128.623H64.9624C66.7956 128.623 68.292 130.109 68.3017 131.945C68.3047 132.509 68.1641 133.059 67.9003 133.547L45.1093 133.668C43.9665 132.551 43.3164 131.036 43.3077 129.419C43.2897 126.111 45.9665 123.405 49.274 123.388ZM153.54 139.572L42.4728 140.158L42.4606 137.139L44.1085 137.13C44.247 137.165 44.3887 137.189 44.5334 137.189H44.5426L153.528 136.553L153.542 139.572C153.542 139.572 153.541 139.572 153.54 139.572Z" fill="#0C1A40"/>
<path d="M108 58.6183H108.03L124.477 58.5678C125.432 58.5627 126.201 57.785 126.196 56.8303C126.191 55.8788 125.915 55.1112 124.965 55.1112C131.876 55.1112 124.98 55.1112 121.824 55.1112L108.012 55.1617C108.008 55.1617 108.004 55.1617 108 55.1617C106.863 55.1617 105.927 54.2689 105.914 53.1603L105.914 53.1361C105.901 50.7566 107.828 48.7704 110.209 48.7086C111.041 48.687 111.74 48.0752 111.87 47.2532C112.552 42.9799 116.192 39.8616 120.526 39.8385H120.575C124.909 39.8385 128.561 42.9283 129.268 47.2023C129.421 48.1236 130.278 48.7575 131.203 48.6331C131.426 48.6033 131.606 48.589 131.769 48.5881H131.793C133.343 48.5881 134.796 49.417 135.59 50.755C135.901 51.2801 136.466 51.6021 137.076 51.6021H137.086L141.824 51.5769H141.834C142.768 51.5769 143.531 52.3349 143.536 53.2707C143.541 54.2097 142.781 54.9775 141.842 54.9826L123.542 55.0799C122.602 55.0849 121.837 55.8419 121.824 56.7828C121.81 57.7237 122.551 58.5028 123.492 58.5355L124.408 58.5673C124.555 58.5722 124.696 58.5593 124.833 58.5298L141.861 58.4394C144.706 58.4242 147.008 56.0975 146.993 53.2527C146.978 50.4169 144.666 48.1208 141.834 48.1208C141.825 48.1208 141.815 48.1208 141.806 48.1208L137.979 48.1411C136.61 46.4038 134.553 45.3071 132.339 45.1511C130.818 39.9819 126.095 36.3824 120.576 36.3824C120.554 36.3824 120.531 36.3824 120.508 36.3826C114.922 36.4123 110.163 40.1379 108.735 45.4147C105.15 46.1623 102.438 49.3822 102.458 53.1598L102.458 53.2096C102.494 56.1977 104.978 58.6183 108 58.6183Z" fill="#0C1A40"/>
</svg>
