<svg width="73" height="56" viewBox="0 0 73 56" fill="none" xmlns="http://www.w3.org/2000/svg">
<path fill-rule="evenodd" clip-rule="evenodd" d="M64.6207 25.4668C65.9506 40.7983 54.6605 54.2988 39.4036 55.6216C24.146 56.9458 10.6982 45.591 9.36982 30.2603C8.03918 14.9295 19.3301 1.4275 34.5877 0.104999C49.8458 -1.21923 63.2906 10.1361 64.6207 25.4668Z" fill="#7BEFE5"/>
<path fill-rule="evenodd" clip-rule="evenodd" d="M50.8556 8.19527C47.1466 7.13599 43.6569 5.70065 39.7892 5.21496C36.3259 4.7789 31.5941 5.19372 29.8129 8.80467C28.9899 10.4748 30.4018 12.3433 32.2196 12.5862C35.4802 13.0208 38.7496 12.4275 41.9494 11.8319C44.8515 11.2919 47.8898 11.0534 50.7195 10.1924C53.1818 9.4432 53.105 8.83751 50.8556 8.19527Z" fill="#29AEFD"/>
<path fill-rule="evenodd" clip-rule="evenodd" d="M27.8979 36.6848C31.1111 35.292 34.0028 34.0065 37.6446 33.5779C43.9902 32.8317 49.8705 33.9174 56.0383 31.7336C57.5374 31.2032 60.354 30.4958 61.8434 31.7205C62.7499 32.4652 60.1505 33.9379 59.3414 34.5942C53.2635 39.5222 46.49 40.4388 38.8955 39.7753C37.3614 39.64 35.8396 39.419 34.3245 39.1476C32.8247 38.934 30.576 38.8271 29.2898 37.9698C27.6834 37.0063 28.2187 35.5065 30.1471 35.2922" fill="white"/>
<path fill-rule="evenodd" clip-rule="evenodd" d="M27.6836 49.4296C32.7183 51.5716 39.68 50.9294 44.6055 48.6797C45.891 48.0375 48.9972 46.6453 49.3189 45.1455C49.6409 43.6465 47.6041 43.7534 46.3196 43.6465C42.8929 43.4322 39.7866 43.9677 36.4668 44.7176C33.7892 45.3599 30.5763 44.6102 28.2189 46.5386C27.4698 47.1809 26.3982 48.4663 27.6834 49.2155" fill="#29AEFD"/>
<path fill-rule="evenodd" clip-rule="evenodd" d="M72.0137 15.5446C70.9961 12.1077 65.1032 11.7302 59.8761 12.1151C60.465 13.0312 61.1885 14.2426 61.8404 15.4927C64.196 15.6216 66.0592 15.9616 65.6898 16.8169C63.6883 21.4405 42.3476 28.3473 36.9736 30.2711C31.5994 32.1951 9.03053 37.7903 6.98431 36.6174C5.90972 35.9998 7.81766 34.6238 9.83079 33.4593C9.65894 32.2889 9.41523 31.0538 9.34288 29.9412C9.2172 30.0165 9.06065 30.1029 8.93546 30.1797C6.89369 31.4242 4.925 32.7951 3.12817 34.3657C1.67604 35.6349 -0.108198 37.3016 0.00513789 39.4056C0.176253 42.5521 4.86426 43.8074 7.21394 44.1674C10.1555 44.6188 13.1499 44.5961 16.0959 44.2875C21.3449 43.7366 26.5391 42.5104 31.611 41.0605C43.0237 37.7962 54.0666 32.9378 63.9209 26.1569C66.1405 24.6287 68.5546 22.4991 70.3704 20.477C71.3584 19.3765 72.5112 17.2207 72.0137 15.5446Z" fill="#074785"/>
<path d="M69.5536 16.1342C69.5469 15.8241 69.4679 15.508 69.3121 15.2382C69.1593 14.9668 68.9427 14.7451 68.7071 14.5776C68.4701 14.4095 68.2163 14.2865 67.9624 14.1892C67.4533 13.9991 66.9412 13.9031 66.4481 13.8426C65.4604 13.7255 64.535 13.7445 63.6873 13.7905C62.8379 13.8389 62.0625 13.925 61.3652 14.0174C61.2591 14.032 61.1588 14.046 61.0559 14.0613C61.0991 14.1352 61.1415 14.2112 61.1838 14.286C61.2546 14.2779 61.3228 14.2692 61.3944 14.2611C62.0895 14.1843 62.8603 14.1176 63.6996 14.0885C64.5387 14.0621 65.4503 14.0658 66.4007 14.2004C66.874 14.2692 67.3582 14.3737 67.8177 14.5574C68.2713 14.7418 68.7104 15.0226 68.9326 15.4463C69.0467 15.6547 69.1022 15.894 69.1022 16.1448L69.1007 16.2392L69.1 16.2787L69.0948 16.3313L69.0743 16.5419C69.0501 16.6708 69.0333 16.7965 68.9953 16.9288C68.9309 17.192 68.8358 17.4525 68.7165 17.7071C68.6017 17.9624 68.4568 18.2103 68.3002 18.454C67.6644 19.4286 66.775 20.2975 65.7923 21.1089C64.8046 21.9195 63.7073 22.6707 62.5448 23.3885C60.2176 24.8223 57.6383 26.1391 54.9182 27.3873C52.1959 28.6352 49.3326 29.817 46.396 30.9494C43.4587 32.081 40.4492 33.166 37.4213 34.2006C34.4012 35.2371 31.3478 36.1633 28.3094 36.9572C26.7914 37.3522 25.2792 37.7231 23.7817 38.0663C22.2834 38.411 20.7954 38.7086 19.3322 38.9881C16.4023 39.5367 13.5506 39.9661 10.8498 40.1402C9.50209 40.2214 8.18527 40.2338 6.95784 40.1007C6.34622 40.0328 5.75287 39.9259 5.2373 39.7399C4.72223 39.557 4.30667 39.2703 4.19333 38.9557C4.16271 38.876 4.14444 38.7903 4.13925 38.6967C4.13925 38.7004 4.13851 38.6654 4.13777 38.7004L4.13851 38.6718L4.13925 38.6162L4.14148 38.5056L4.15678 38.3528C4.18962 38.1179 4.25555 37.8772 4.34914 37.6416C4.53507 37.1668 4.81581 36.7154 5.11878 36.2942C5.7346 35.45 6.45387 34.7206 7.14969 34.0598C7.85045 33.4013 8.54479 32.8191 9.2011 32.2968C9.33493 32.1894 9.46678 32.0855 9.59839 31.9822C9.56111 31.7511 9.5253 31.5208 9.49222 31.2924C8.59738 31.8879 7.61934 32.5887 6.6003 33.4396C5.83806 34.0769 5.05681 34.8011 4.33383 35.6942C3.97752 36.1455 3.63159 36.6379 3.36664 37.2246C3.23578 37.5179 3.12441 37.8355 3.06367 38.1814C3.04836 38.2705 3.03874 38.3723 3.02787 38.4681L3.02145 38.5794L3.01849 38.6357L3.01775 38.6636C3.01627 38.7162 3.01775 38.7002 3.01775 38.7221C3.01849 38.9256 3.05207 39.1385 3.12244 39.3417C3.26368 39.7521 3.54665 40.0886 3.8474 40.3234C4.1516 40.5634 4.47655 40.7286 4.80199 40.8627C5.45682 41.1247 6.12325 41.2637 6.79487 41.3644C8.14157 41.5533 9.51469 41.5634 10.9164 41.5168C12.3182 41.4669 13.7476 41.3405 15.1975 41.1568C16.6489 40.9775 18.1208 40.739 19.6095 40.4587C21.0974 40.1814 22.5987 39.8437 24.113 39.4822C25.6259 39.1207 27.1484 38.7184 28.6729 38.2779C31.7206 37.4009 34.7874 36.4095 37.8109 35.3078C43.8471 33.1144 49.8334 30.7595 55.2765 28.153C57.9951 26.8458 60.5825 25.4813 62.9142 23.9714C64.0782 23.2149 65.1799 22.424 66.177 21.5667C67.1691 20.7079 68.0733 19.7867 68.7331 18.7276C68.8948 18.4619 69.0447 18.1913 69.1647 17.9074C69.2891 17.6264 69.3886 17.3352 69.4536 17.0382C69.4909 16.8925 69.5106 16.7337 69.5333 16.5816L69.5494 16.3703L69.5531 16.3169C69.5553 16.2819 69.5538 16.2737 69.5538 16.2503L69.5536 16.1342Z" fill="#7BEFE5"/>
<path fill-rule="evenodd" clip-rule="evenodd" d="M40.8123 19.4C36.7038 19.7877 32.4995 18.7723 28.4883 19.7037C24.7771 20.5655 21.2985 22.346 18.0839 24.3478C16.8308 25.129 16.8863 25.1927 15.6705 26.0261C14.8036 26.6217 13.5892 28.0753 13.1677 29.1244C12.1383 31.6828 14.8702 32.8964 16.6244 31.8941C18.1241 31.0368 19.5163 30.18 21.122 29.5378C25.1925 27.9306 29.5842 28.8941 33.8682 28.0373C37.5372 27.3041 41.4363 25.9179 44.7028 24.073C46.065 23.3026 48.4184 21.6536 47.2283 19.8877C46.2186 18.3894 43.2924 19.039 41.8805 19.2659C41.5249 19.3217 41.1694 19.3664 40.8123 19.4Z" fill="white"/>
<path d="M22.9132 12.9549C22.6586 12.7068 22.1472 9.24866 21.6828 9.27582C21.2176 9.30496 20.8121 12.7354 20.5956 12.9606C20.1588 13.4142 16.9701 13.7354 16.9963 14.1749C17.0224 14.6132 20.1536 14.8209 20.5963 15.2495C20.8428 15.4881 21.3623 18.9563 21.8277 18.9286C22.2922 18.9015 22.6902 15.4807 22.9164 15.2466C23.3371 14.809 26.5508 14.471 26.5254 14.0307C26.4984 13.5897 23.3389 13.3683 22.9132 12.9549Z" fill="white"/>
</svg>
