<svg width="194" height="194" viewBox="0 0 194 194" fill="none" xmlns="http://www.w3.org/2000/svg">
<path d="M170.088 98.6176C163.912 130.824 139.557 161.862 107.882 161.862C76.2072 161.862 24.9412 128.087 24.9412 96.4118C24.9412 64.7366 76.2072 36.1262 107.882 36.1262C139.557 36.1262 170.088 66.9425 170.088 98.6176Z" fill="#F7E49D"/>
<circle cx="97.2941" cy="97.2941" r="95.2941" stroke="#F6E49D" stroke-width="2.64706" stroke-linecap="round" stroke-dasharray="8.82 8.82"/>
<g clip-path="url(#clip0_108_9095)">
<path d="M79.0299 70.1251C79.9328 68.0576 80.4369 65.7762 80.4369 63.3762C80.4369 54.0529 72.8787 46.4948 63.5554 46.4948C54.2321 46.4948 46.674 54.0529 46.674 63.3762C46.674 65.7765 47.1781 68.0578 48.0809 70.1251C44.6043 73.8833 42.4784 78.9098 42.4784 84.4334C42.4784 96.074 51.9148 105.51 63.5554 105.51C75.196 105.51 84.6325 96.0738 84.6325 84.4334C84.6327 78.9098 82.5068 73.8833 79.0299 70.1251Z" fill="#ADE194"/>
<path d="M66.8636 105.254C65.7874 105.423 64.6804 105.512 63.5557 105.512C51.914 105.512 42.4775 96.0729 42.4775 84.4334C42.4775 78.9092 44.6034 73.8833 48.0812 70.1255C47.1792 68.057 46.6742 65.7767 46.6742 63.3751C46.6742 54.0534 54.2317 46.4937 63.5557 46.4937C64.687 46.4937 65.794 46.6061 66.8636 46.82C59.1231 48.3549 53.2901 55.1847 53.2901 63.3751C53.2901 65.7767 53.7951 68.057 54.697 70.1255C51.2193 73.8833 49.0934 78.9092 49.0934 84.4334C49.0934 94.9482 56.7943 103.666 66.8636 105.254Z" fill="#97DA7B"/>
<path d="M109.925 54.9256V97.0797H118.356V80.218C118.356 75.5618 122.131 71.7872 126.787 71.7872C131.443 71.7872 135.218 75.5618 135.218 80.218V97.0797H143.648V54.9256H109.925Z" fill="#F07281"/>
<path d="M143.65 54.9244V59.335H119.85C118.023 59.335 116.542 60.8161 116.542 62.6429V97.0785H109.926V54.9244H143.65Z" fill="#EB5569"/>
<path d="M126.787 38.0637C129.516 38.0637 132.163 38.9924 134.294 40.6971L152.079 54.9254H101.494L119.28 40.6971C121.411 38.9926 124.058 38.0637 126.787 38.0637Z" fill="#8AC9FE"/>
<path d="M132.301 39.4058C131.6 39.7653 130.932 40.1975 130.305 40.6981L112.52 54.9244H101.493L119.279 40.6981C121.411 38.9934 124.058 38.0628 126.788 38.0628C128.717 38.0628 130.607 38.5281 132.301 39.4058Z" fill="#60B7FF"/>
<path d="M148.772 97.0797H104.802C102.975 97.0797 101.494 98.5607 101.494 100.388V144.357C101.494 146.184 102.975 147.665 104.802 147.665H148.772C150.598 147.665 152.08 146.184 152.08 144.357V100.388C152.08 98.5607 150.598 97.0797 148.772 97.0797ZM126.787 134.656C119.806 134.656 114.148 128.997 114.148 122.017C114.148 115.037 119.806 109.378 126.787 109.378C133.767 109.378 139.426 115.037 139.426 122.017C139.426 128.997 133.767 134.656 126.787 134.656Z" fill="#8AC9FE"/>
<path d="M112.52 144.358V100.386C112.52 98.5605 114.002 97.0786 115.828 97.0786H104.801C102.975 97.0786 101.493 98.5605 101.493 100.386V144.358C101.493 146.184 102.975 147.666 104.801 147.666H115.828C114.002 147.666 112.52 146.184 112.52 144.358Z" fill="#60B7FF"/>
<path d="M67.771 147.665H59.3402V59.141C59.3402 56.8129 61.2275 54.9256 63.5556 54.9256C65.8837 54.9256 67.771 56.8129 67.771 59.141V147.665Z" fill="#C68D7A"/>
<path d="M65.7609 55.5485C64.5546 56.2873 63.7497 57.6215 63.7497 59.1409V147.666H59.3391V59.1409C59.3391 56.8122 61.2268 54.9244 63.5556 54.9244C64.365 54.9244 65.1192 55.1516 65.7609 55.5485Z" fill="#BC7C63"/>
<path d="M118.356 65.0103C117.443 65.0103 116.702 64.2698 116.702 63.3564C116.702 62.4429 117.443 61.7024 118.356 61.7024C119.269 61.7024 120.01 62.4429 120.01 63.3564C120.01 64.2698 119.269 65.0103 118.356 65.0103Z" fill="#0C1A40"/>
<path d="M109.925 107.164C109.012 107.164 108.271 106.424 108.271 105.51C108.271 104.597 109.012 103.856 109.925 103.856C110.839 103.856 111.579 104.597 111.579 105.51C111.579 106.424 110.839 107.164 109.925 107.164Z" fill="#0C1A40"/>
<path d="M143.649 107.164C142.735 107.164 141.995 106.424 141.995 105.51C141.995 104.597 142.735 103.856 143.649 103.856C144.562 103.856 145.303 104.597 145.303 105.51C145.303 106.424 144.562 107.164 143.649 107.164Z" fill="#0C1A40"/>
<path d="M109.925 140.873C109.012 140.873 108.271 140.133 108.271 139.219C108.271 138.306 109.012 137.565 109.925 137.565C110.839 137.565 111.579 138.306 111.579 139.219C111.579 140.133 110.839 140.873 109.925 140.873Z" fill="#0C1A40"/>
<path d="M143.649 140.873C142.735 140.873 141.995 140.133 141.995 139.219C141.995 138.306 142.735 137.565 143.649 137.565C144.562 137.565 145.303 138.306 145.303 139.219C145.303 140.133 144.562 140.873 143.649 140.873Z" fill="#0C1A40"/>
<path d="M135.218 65.0103C134.304 65.0103 133.564 64.2698 133.564 63.3564C133.564 62.4429 134.304 61.7024 135.218 61.7024C136.131 61.7024 136.872 62.4429 136.872 63.3564C136.872 64.2698 136.131 65.0103 135.218 65.0103Z" fill="#0C1A40"/>
<path d="M109.925 97.0797H103.044C102.062 97.0797 101.131 97.5156 100.502 98.2698L65.2912 140.523C61.5204 145.048 55.9342 147.665 50.0439 147.665H42.4784V139.234L52.0313 139.223C53.9918 139.221 55.8502 138.349 57.1054 136.843L91.3277 95.788C95.0985 91.2643 100.684 88.6486 106.573 88.6486H109.925V97.0797Z" fill="#FEE97D"/>
<path d="M126.788 107.723C119.206 107.723 112.937 113.647 112.516 121.208C112.15 127.685 116.485 133.874 122.714 135.72C123.59 135.979 124.511 135.48 124.77 134.604C125.03 133.728 124.53 132.808 123.654 132.548C118.892 131.137 115.541 126.318 115.818 121.393C116.142 115.583 120.96 111.031 126.788 111.031C132.614 111.031 137.431 115.583 137.755 121.393C138.027 126.294 134.66 131.143 129.921 132.548C129.045 132.807 128.546 133.728 128.805 134.604C129.336 135.583 130.022 135.955 130.861 135.72C137.072 133.879 141.418 127.676 141.058 121.209C140.636 113.647 134.368 107.723 126.788 107.723Z" fill="#0C1A40"/>
<path d="M148.771 95.4257H145.303V76.5539C145.303 75.6405 144.563 74.9 143.649 74.9C142.736 74.9 141.995 75.6405 141.995 76.5539V95.4246H136.873V80.2169C136.873 74.7158 132.289 70.1321 126.788 70.1321C121.227 70.1321 116.703 74.6561 116.703 80.2169V95.4246H111.58V56.5793H141.996V69.3449C141.996 70.2583 142.736 70.9988 143.65 70.9988C144.563 70.9988 145.304 70.2583 145.304 69.3449V56.5793H152.08C153.776 56.5504 154.323 54.3451 153.113 53.6339L135.328 39.4056C130.393 35.4582 123.181 35.4584 118.247 39.4056L100.461 53.6339C98.7491 55.2273 99.6312 56.477 101.494 56.5793H108.272V86.9947H106.573C100.174 86.9947 94.1546 89.8137 90.0574 94.729L69.4239 119.482V106.394C78.9117 103.875 85.7595 95.5057 86.2568 85.5881C86.3027 84.6758 85.6001 83.8991 84.688 83.8534C83.7713 83.8065 82.9992 84.5104 82.9533 85.4225C82.5431 93.5964 77.0848 100.539 69.4239 102.952V95.1544L77.1179 90.0265C77.8781 89.5199 78.0836 88.4929 77.577 87.733C77.0703 86.9728 76.0435 86.7677 75.2835 87.2741L69.4241 91.1794V68.257L73.1561 64.5248C73.802 63.8788 73.802 62.8315 73.1559 62.1858C72.5102 61.5397 71.4629 61.5399 70.8169 62.1858L69.4243 63.5787V59.1412C69.0904 55.5629 67.1343 53.6062 63.556 53.2707C60.3189 53.2707 57.6856 55.9043 57.6856 59.1412V63.5767L56.2947 62.186C55.6485 61.5401 54.6015 61.5401 53.9555 62.186C53.3096 62.832 53.3096 63.8793 53.9555 64.525L57.6856 68.255V91.1794L51.8261 87.2741C51.0662 86.7673 50.0392 86.9728 49.5326 87.733C49.0261 88.4931 49.2316 89.5201 49.9918 90.0265L57.6858 95.1544V102.951C49.7229 100.428 44.1314 92.9439 44.1314 84.4334C44.1314 79.5291 45.9651 74.8468 49.2949 71.2489C49.741 70.7668 49.8599 70.0666 49.5972 69.4644C45.2998 59.607 52.7587 48.1474 63.5556 48.1474C74.3525 48.1474 81.8114 59.607 77.514 69.4644C77.2515 70.0666 77.3702 70.7673 77.8167 71.2493C79.8017 73.3922 81.2967 75.9949 82.1402 78.776C82.4051 79.6502 83.3291 80.1433 84.203 79.8786C85.0772 79.6136 85.571 78.69 85.3057 77.8158C84.4196 74.8945 82.9207 72.1418 80.9452 69.7958C85.3258 57.9545 76.1912 44.8395 63.5556 44.8395C50.9241 44.8395 41.7826 57.9455 46.166 69.7956C42.7132 73.8904 40.8235 79.0477 40.8235 84.4334C40.8235 94.7443 47.8381 103.768 57.6851 106.395V133.565C56.0175 135.788 55.0108 137.565 52.0294 137.569L42.4766 137.58C41.5638 137.581 40.8246 138.321 40.8246 139.234V147.665C40.8246 148.578 41.5649 149.319 42.4786 149.319H50.0442C52.7005 149.319 55.2906 148.832 57.7056 147.912C57.8247 148.708 58.5097 149.32 59.3393 149.32H67.7701C68.6838 149.32 69.4241 148.579 69.4241 147.666V138.148L99.8405 101.648V144.357C99.8405 147.093 102.067 149.319 104.802 149.319H148.772C151.508 149.319 153.734 147.093 153.734 144.357V100.388C153.733 97.6515 151.507 95.4257 148.771 95.4257ZM120.313 41.9887C124.053 38.9966 129.52 38.9966 133.261 41.9887L147.364 53.2716H106.209L120.313 41.9887ZM126.788 73.4401C130.484 73.4401 133.565 76.5206 133.565 80.2169V95.4257H120.011V80.2169C120.011 76.4803 123.051 73.4401 126.788 73.4401ZM60.993 59.141C60.993 57.7281 62.1427 56.5784 63.5556 56.5784C65.1174 56.7244 65.9708 57.5785 66.1159 59.141V123.45L60.993 129.596V59.141ZM61.5075 146.012C63.2023 144.942 64.7559 143.631 66.1162 142.099V146.012H61.5075ZM99.2316 97.2111C99.2316 97.2111 71.3961 130.209 67.7708 134.324C67.7031 134.353 63.5543 140.131 58.483 143.939C55.9127 145.285 53.0273 146.011 50.0438 146.011H44.1323V140.886L52.0332 140.877C54.4908 140.874 56.8026 139.79 58.3758 137.902L92.5984 96.8472C96.0653 92.688 101.159 90.3028 106.573 90.3028H108.271V95.4257H103.044C101.566 95.4257 100.177 96.0765 99.2316 97.2111ZM150.425 144.357C150.425 145.269 149.684 146.011 148.771 146.011H104.802C103.89 146.011 103.148 145.269 103.148 144.357V100.388C103.148 99.4755 103.89 98.7336 104.802 98.7336H148.771C149.684 98.7336 150.425 99.4755 150.425 100.388V144.357Z" fill="#0C1A40"/>
</g>
<defs>
<clipPath id="clip0_108_9095">
<rect width="112.941" height="112.941" fill="white" transform="translate(40.8235 36.4117)"/>
</clipPath>
</defs>
</svg>
