<svg width="194" height="194" viewBox="0 0 194 194" fill="none" xmlns="http://www.w3.org/2000/svg">
<path d="M170.088 98.6176C163.912 130.824 139.557 161.862 107.882 161.862C76.2069 161.862 24.9409 128.087 24.9409 96.4118C24.9409 64.7366 76.2069 36.1262 107.882 36.1262C139.557 36.1262 170.088 66.9425 170.088 98.6176Z" fill="#F7E49D"/>
<circle cx="97.2941" cy="97.2941" r="95.2941" stroke="#F6E49D" stroke-width="2.64706" stroke-linecap="round" stroke-dasharray="8.82 8.82"/>
<g clip-path="url(#clip0_1338_5210)">
<path d="M146.623 56.2001H142.901V59.7445C142.901 61.0174 141.87 62.0492 140.597 62.0492H63.32C62.0472 62.0492 61.0154 61.0174 61.0154 59.7445V56.2001H57.2935C51.6164 56.2001 47.0139 60.8024 47.0139 66.4797V69.9589H156.903V66.4797C156.903 60.8024 152.3 56.2001 146.623 56.2001Z" fill="#57BE92"/>
<path d="M61.0154 56.2001H57.2935C51.6164 56.2001 47.0139 60.8024 47.0139 66.4797V69.9589H54.6016V66.4797C54.6016 62.1704 57.2546 58.4827 61.0154 56.9547V56.2001Z" fill="#22B27F"/>
<path d="M97.9928 141.498H100.346C100.129 140.897 100.009 140.251 100.009 139.578C100.009 136.448 102.57 133.887 105.7 133.887C107.016 133.887 108.228 134.344 109.195 135.101C109.925 132.799 112.086 131.118 114.621 131.118C117.232 131.118 119.441 132.902 120.104 135.31C121.107 134.428 122.417 133.887 123.85 133.887C125.746 133.887 127.429 134.83 128.465 136.266C129.5 134.83 131.183 133.887 133.079 133.887C134.364 133.887 135.55 134.324 136.505 135.049C137.152 132.618 139.373 130.81 142 130.81C144.75 130.81 147.06 132.788 147.58 135.391C148.46 134.831 149.5 134.502 150.614 134.502C151.617 134.502 152.56 134.766 153.381 135.226V82.1373C152.39 82.6911 151.25 83.008 150.035 83.008C146.338 83.008 143.325 80.0873 143.174 76.4279H143.159C143.008 80.0873 139.995 83.008 136.298 83.008C132.602 83.008 129.589 80.0873 129.438 76.4279H129.423C129.272 80.0873 126.259 83.008 122.562 83.008C118.865 83.008 115.853 80.0873 115.701 76.4279H115.687C115.536 80.0873 112.523 83.008 108.826 83.008C105.129 83.008 102.116 80.0873 101.965 76.4279H101.951C101.799 80.0873 98.7866 83.008 95.0898 83.008C91.3931 83.008 88.3802 80.0873 88.229 76.4279H88.2145C88.0633 80.0873 85.0504 83.008 81.3537 83.008C77.6569 83.008 74.644 80.0873 74.4928 76.4279H74.4783C74.3271 80.0873 71.3142 83.008 67.6175 83.008C63.9208 83.008 60.9079 80.0873 60.7567 76.4279H60.7422C60.591 80.0873 57.5781 83.008 53.8813 83.008C52.6661 83.008 51.5255 82.6911 50.5352 82.1373V149.119C50.5352 149.755 51.0512 150.271 51.6875 150.271H96.8398V142.65C96.8405 142.014 97.3563 141.498 97.9928 141.498Z" fill="#FFE5C2"/>
<path d="M47.0142 76.1398C47.0142 79.9329 50.0891 83.0078 53.8821 83.0078C57.6752 83.0078 60.7501 79.9329 60.7501 76.1398C60.7501 79.9329 63.825 83.0078 67.6181 83.0078C71.4111 83.0078 74.486 79.9329 74.486 76.1398C74.486 79.9329 77.561 83.0078 81.354 83.0078C85.1471 83.0078 88.222 79.9329 88.222 76.1398C88.222 79.9329 91.2969 83.0078 95.0899 83.0078C98.883 83.0078 101.958 79.9329 101.958 76.1398C101.958 79.9329 105.033 83.0078 108.826 83.0078C112.619 83.0078 115.694 79.9329 115.694 76.1398C115.694 79.9329 118.769 83.0078 122.562 83.0078C126.355 83.0078 129.43 79.9329 129.43 76.1398C129.43 79.9329 132.505 83.0078 136.298 83.0078C140.091 83.0078 143.166 79.9329 143.166 76.1398C143.166 79.9329 146.241 83.0078 150.034 83.0078C153.827 83.0078 156.902 79.9329 156.902 76.1398V69.9587H47.0142V76.1398Z" fill="#A44F3E"/>
<path d="M53.8821 84.7365C53.3289 84.7365 52.7885 84.6819 52.2642 84.5817V148.543H57.6046V94.1523C57.6046 93.0438 58.2349 92.0811 59.1549 91.5997V82.9211C57.6977 84.0569 55.8685 84.7365 53.8821 84.7365Z" fill="#FED2A4"/>
<path d="M156.092 141.728C156.23 141.239 156.305 140.725 156.305 140.194C156.305 137.063 153.744 134.502 150.614 134.502C149.5 134.502 148.461 134.832 147.581 135.391C147.06 132.788 144.751 130.811 142.001 130.811C139.373 130.811 137.153 132.618 136.506 135.05C135.55 134.324 134.365 133.887 133.079 133.887C131.183 133.887 129.501 134.83 128.465 136.267C127.429 134.83 125.746 133.887 123.851 133.887C122.418 133.887 121.108 134.428 120.105 135.31C119.441 132.902 117.232 131.118 114.622 131.118C112.086 131.118 109.925 132.799 109.195 135.101C108.228 134.344 107.016 133.887 105.7 133.887C102.57 133.887 100.009 136.448 100.009 139.578C100.009 140.338 100.161 141.064 100.434 141.729H156.092V141.728Z" fill="#57BE92"/>
<path d="M106.039 141.498C105.822 140.897 105.703 140.251 105.703 139.578C105.703 137.487 106.847 135.65 108.54 134.661C107.703 134.173 106.734 133.887 105.7 133.887C102.57 133.887 100.009 136.448 100.009 139.578C100.009 140.251 100.127 140.897 100.345 141.498H106.039Z" fill="#22B27F"/>
<path d="M157.834 150.271H96.8406V142.65C96.8406 142.014 97.3566 141.498 97.9929 141.498H157.834C158.47 141.498 158.986 142.014 158.986 142.65V149.119C158.986 149.755 158.47 150.271 157.834 150.271Z" fill="#F6A96C"/>
<path d="M108.301 141.498H97.9929C97.3566 141.498 96.8406 142.014 96.8406 142.65V150.271H107.149V142.65C107.149 142.014 107.665 141.498 108.301 141.498Z" fill="#EA9B58"/>
<path d="M140.597 46.2079H97.9372V46.5278C97.9372 49.0432 95.8982 51.0821 93.3829 51.0821H90.0517C89.5762 53.8498 87.1664 55.9563 84.263 55.9563H76.5169C73.2722 55.9563 70.6416 53.3257 70.6416 50.081V46.2079H63.3201C62.0472 46.2079 61.0154 47.2398 61.0154 48.5126V59.7443C61.0154 61.0172 62.0472 62.049 63.3201 62.049H140.597C141.87 62.049 142.901 61.0172 142.901 59.7443V48.5126C142.901 47.2398 141.87 46.2079 140.597 46.2079Z" fill="#FFE5C2"/>
<path d="M68.1993 59.7443V48.5126C68.1993 47.2398 69.2311 46.2079 70.504 46.2079H63.3201C62.0472 46.2079 61.0154 47.2398 61.0154 48.5126V59.7443C61.0154 61.0172 62.0472 62.049 63.3201 62.049H70.504C69.2311 62.049 68.1993 61.0172 68.1993 59.7443Z" fill="#FED2A4"/>
<path d="M88.0669 150.271H59.3333V94.1523C59.3333 93.516 59.8493 93 60.4856 93H86.9146C87.5509 93 88.0669 93.516 88.0669 94.1523V150.271Z" fill="#A44F3E"/>
<path d="M67.7384 93H60.4856C59.8493 93 59.3333 93.516 59.3333 94.1523V150.271H66.5861V94.1523C66.5861 93.516 67.1021 93 67.7384 93Z" fill="#883F2E"/>
<path d="M81.9043 136.546V99.611C81.9043 99.2291 81.5948 98.9196 81.2129 98.9196H66.1877C65.8059 98.9196 65.4963 99.2291 65.4963 99.611V136.546C65.4963 136.928 65.8059 137.237 66.1877 137.237H81.2127C81.5946 137.237 81.9043 136.928 81.9043 136.546Z" fill="#C8EFFE"/>
<path d="M70.2737 136.546V99.611C70.2737 99.2291 70.5832 98.9196 70.9651 98.9196H66.1877C65.8059 98.9196 65.4963 99.2291 65.4963 99.611V136.546C65.4963 136.928 65.8059 137.237 66.1877 137.237H70.9651C70.5832 137.237 70.2737 136.928 70.2737 136.546Z" fill="#99E6FC"/>
<path d="M52.1114 76.1398V69.9587H47.0142V76.1398C47.0142 79.9329 50.0891 83.0078 53.8821 83.0078C54.783 83.0078 55.6424 82.8327 56.4309 82.5172C53.9001 81.5049 52.1114 79.0322 52.1114 76.1398Z" fill="#883F2E"/>
<path d="M60.75 69.9587V76.1398C60.75 79.9329 63.8249 83.0078 67.618 83.0078C71.411 83.0078 74.4859 79.9329 74.4859 76.1398V69.9587H60.75Z" fill="#F6A96C"/>
<path d="M65.8475 76.1398V69.9587H60.75V76.1398C60.75 79.9329 63.8249 83.0078 67.618 83.0078C68.5189 83.0078 69.3783 82.8327 70.1667 82.5172C67.6362 81.5049 65.8475 79.0322 65.8475 76.1398Z" fill="#EA9B58"/>
<path d="M88.2222 69.9587V76.1398C88.2222 79.9329 91.2971 83.0078 95.0901 83.0078C98.8832 83.0078 101.958 79.9329 101.958 76.1398V69.9587H88.2222Z" fill="#F6A96C"/>
<path d="M93.3197 76.1398V69.9587H88.2222V76.1398C88.2222 79.9329 91.2971 83.0078 95.0901 83.0078C95.991 83.0078 96.8505 82.8327 97.6389 82.5172C95.1083 81.5049 93.3197 79.0322 93.3197 76.1398Z" fill="#EA9B58"/>
<path d="M115.694 69.9587V76.1398C115.694 79.9329 118.769 83.0078 122.562 83.0078C126.355 83.0078 129.43 79.9329 129.43 76.1398V69.9587H115.694Z" fill="#F6A96C"/>
<path d="M120.792 76.1398V69.9587H115.694V76.1398C115.694 79.9329 118.769 83.0078 122.562 83.0078C123.463 83.0078 124.322 82.8327 125.111 82.5172C122.58 81.5049 120.792 79.0322 120.792 76.1398Z" fill="#EA9B58"/>
<path d="M143.166 76.1398C143.166 79.9329 146.241 83.0078 150.034 83.0078C153.828 83.0078 156.902 79.9329 156.902 76.1398V69.9587H143.166V76.1398H143.166Z" fill="#F6A96C"/>
<path d="M148.264 76.1398V69.9587H143.166V76.1398C143.166 79.9329 146.241 83.0078 150.034 83.0078C150.935 83.0078 151.795 82.8327 152.583 82.5172C150.052 81.5049 148.264 79.0322 148.264 76.1398Z" fill="#EA9B58"/>
<path d="M143.632 118.833V94.1523C143.632 93.516 143.116 93 142.48 93H97.9927C97.3564 93 96.8403 93.516 96.8403 94.1523V118.833H143.632Z" fill="#C8EFFE"/>
<path d="M104.146 118.833V94.1523C104.146 93.516 104.662 93 105.298 93H97.9927C97.3564 93 96.8403 93.516 96.8403 94.1523V118.833H104.146Z" fill="#99E6FC"/>
<path d="M131.704 118.833L133.537 108.441H123.166L125 118.833H131.704Z" fill="#F6A96C"/>
<path d="M145.338 118.833H95.1345C94.4615 118.833 93.916 119.379 93.916 120.052V123.707C93.916 124.38 94.4615 124.926 95.1345 124.926H145.338C146.011 124.926 146.557 124.38 146.557 123.707V120.052C146.557 119.379 146.012 118.833 145.338 118.833Z" fill="white"/>
<path d="M103.461 123.707V120.052C103.461 119.379 104.007 118.833 104.68 118.833H95.1345C94.4615 118.833 93.916 119.379 93.916 120.052V123.707C93.916 124.38 94.4615 124.926 95.1345 124.926H104.68C104.007 124.926 103.461 124.38 103.461 123.707Z" fill="#F3F0FF"/>
<path d="M84.2632 55.9563H76.5172C73.2724 55.9563 70.6418 53.3257 70.6418 50.081V36.8809C70.6418 36.2445 71.1579 35.7285 71.7942 35.7285H88.9862C89.6226 35.7285 90.1386 36.2445 90.1386 36.8809V50.081C90.1386 53.326 87.508 55.9563 84.2632 55.9563Z" fill="#F6A96C"/>
<path d="M77.879 50.081V36.8809C77.879 36.2445 78.395 35.7285 79.0314 35.7285H71.7942C71.1579 35.7285 70.6418 36.2445 70.6418 36.8809V50.081C70.6418 53.3257 73.2724 55.9563 76.5172 55.9563H83.7544C80.5096 55.9563 77.879 53.3257 77.879 50.081Z" fill="#EA9B58"/>
<path d="M158.022 139.779C157.898 137.546 156.782 135.574 155.11 134.296V83.0728C157.243 81.507 158.631 78.9829 158.631 76.1398L158.631 66.4795C158.631 59.8584 153.244 54.4714 146.623 54.4714H144.63V48.5126C144.63 46.2888 142.82 44.4794 140.597 44.4794H122.82C121.866 44.4794 121.092 45.2533 121.092 46.2079C121.092 47.1625 121.866 47.9364 122.82 47.9364H140.597C140.914 47.9364 141.173 48.195 141.173 48.5126V59.7443C141.173 60.0619 140.914 60.3205 140.597 60.3205H63.32C63.0022 60.3205 62.7439 60.0619 62.7439 59.7443V48.5126C62.7439 48.195 63.0022 47.9364 63.32 47.9364H68.9133V50.081C68.9133 54.2736 72.3245 57.6848 76.5171 57.6848H84.2632C87.4941 57.6848 90.2588 55.6585 91.3582 52.8106H93.3828C96.3628 52.8106 98.8629 50.7244 99.5043 47.9364H123.973C124.928 47.9364 125.701 47.1625 125.701 46.2079C125.701 45.2533 124.928 44.4794 123.973 44.4794H99.6656V44.1821C99.6656 40.7177 96.8472 37.8993 93.3828 37.8993H91.8668V36.8809C91.8668 35.2922 90.5746 34 88.986 34H71.7939C70.2053 34 68.9131 35.2922 68.9131 36.8809V44.4794H63.32C61.0962 44.4794 59.2868 46.2888 59.2868 48.5126V54.4714H57.2935C50.6724 54.4714 45.2854 59.8581 45.2854 66.4795L45.2856 76.1398C45.2856 78.9829 46.674 81.507 48.8072 83.0728V149.119C48.8072 150.708 50.0994 152 51.6881 152H157.834C159.422 152 160.715 150.708 160.715 149.119V142.65C160.715 141.125 159.523 139.876 158.022 139.779ZM91.8668 41.3563H93.3828C94.941 41.3563 96.2086 42.6239 96.2086 44.1821V46.5281C96.2086 48.0863 94.941 49.3538 93.3828 49.3538H91.8668V41.3563ZM72.3703 37.457H88.41V50.081C88.41 52.3674 86.5499 54.2278 84.2634 54.2278H76.5174C74.2307 54.2278 72.3705 52.3677 72.3705 50.081L72.3703 37.457ZM155.174 76.1398C155.174 78.9737 152.868 81.2793 150.035 81.2793C147.201 81.2793 144.895 78.9737 144.895 76.1398V71.6872H155.174V76.1398ZM48.7424 66.4795C48.7424 61.7646 52.5786 57.9284 57.2935 57.9284H59.2868V59.7441C59.2868 61.9678 61.0962 63.7773 63.32 63.7773H140.597C142.82 63.7773 144.63 61.9678 144.63 59.7441V57.9284H146.623C151.338 57.9284 155.174 61.7643 155.174 66.4795V68.2301H48.7424V66.4795ZM141.438 71.6872V76.1398C141.438 78.9737 139.132 81.2793 136.298 81.2793C133.464 81.2793 131.159 78.9737 131.159 76.1398V71.6872H141.438ZM127.702 71.6872V76.1398C127.702 78.9737 125.396 81.2793 122.562 81.2793C119.728 81.2793 117.423 78.9737 117.423 76.1398V71.6872H127.702ZM113.966 71.6872V76.1398C113.966 78.9737 111.66 81.2793 108.826 81.2793C105.992 81.2793 103.687 78.9737 103.687 76.1398V71.6872H113.966ZM100.23 71.6872V76.1398C100.23 78.9737 97.924 81.2793 95.0902 81.2793C92.2561 81.2793 89.9505 78.9737 89.9505 76.1398V71.6872H100.23ZM86.4937 71.6872V76.1398C86.4937 78.9737 84.1881 81.2793 81.3542 81.2793C78.5201 81.2793 76.2145 78.9737 76.2145 76.1398V71.6872H86.4937ZM72.7575 71.6872V76.1398C72.7575 78.9737 70.4519 81.2793 67.618 81.2793C64.7842 81.2793 62.4786 78.9737 62.4786 76.1398V71.6872H72.7575ZM48.7427 76.1398V71.6872H59.0218V76.1398C59.0218 78.9737 56.7162 81.2793 53.8821 81.2793C51.0483 81.2795 48.7427 78.9739 48.7427 76.1398ZM86.3383 148.543H61.0617V94.7285H86.3383V148.543ZM97.9927 139.769C96.4041 139.769 95.1118 141.062 95.1118 142.65V148.543H89.7954V94.1523C89.7954 92.5637 88.5031 91.2715 86.9145 91.2715H60.4855C58.8969 91.2715 57.6046 92.5637 57.6046 94.1523V148.543H52.2642V84.5817C52.7885 84.6819 53.329 84.7365 53.8821 84.7365C56.6855 84.7365 59.1799 83.3876 60.7503 81.3046C62.3205 83.3876 64.8149 84.7365 67.6183 84.7365C70.4217 84.7365 72.9158 83.3876 74.4862 81.3046C76.0564 83.3876 78.551 84.7365 81.3545 84.7365C84.1579 84.7365 86.652 83.3876 88.2224 81.3046C89.7926 83.3876 92.2872 84.7365 95.0906 84.7365C97.894 84.7365 100.388 83.3876 101.959 81.3046C103.529 83.3876 106.023 84.7365 108.827 84.7365C111.63 84.7365 114.124 83.3876 115.695 81.3046C117.265 83.3876 119.76 84.7365 122.563 84.7365C125.366 84.7365 127.861 83.3876 129.431 81.3046C131.001 83.3876 133.496 84.7365 136.299 84.7365C139.103 84.7365 141.597 83.3876 143.167 81.3046C144.737 83.3876 147.232 84.7365 150.035 84.7365C150.588 84.7365 151.129 84.6819 151.653 84.5817V132.848C151.314 132.8 150.967 132.774 150.615 132.774C149.921 132.774 149.234 132.872 148.572 133.064C147.315 130.672 144.805 129.082 142.001 129.082C139.378 129.082 137.004 130.471 135.681 132.633C134.856 132.32 133.979 132.158 133.08 132.158C131.393 132.158 129.767 132.745 128.465 133.784C127.164 132.745 125.538 132.158 123.851 132.158C122.812 132.158 121.792 132.38 120.853 132.799C119.511 130.72 117.18 129.39 114.622 129.39C112.09 129.39 109.802 130.659 108.452 132.69C107.585 132.339 106.657 132.158 105.701 132.158C101.61 132.158 98.2812 135.487 98.2812 139.578C98.2812 139.642 98.2861 139.705 98.2877 139.769H97.9927V139.769ZM157.258 148.543H98.5689V143.227H121.438C122.392 143.227 123.166 142.453 123.166 141.498C123.166 140.543 122.392 139.769 121.438 139.769H101.744C101.741 139.706 101.737 139.642 101.737 139.578C101.737 137.393 103.515 135.616 105.7 135.616C106.582 135.616 107.422 135.908 108.129 136.462C108.575 136.811 109.163 136.92 109.705 136.753C110.246 136.586 110.671 136.164 110.842 135.624C111.361 133.989 112.915 132.847 114.621 132.847C116.394 132.847 117.964 134.049 118.438 135.77C118.596 136.344 119.038 136.796 119.609 136.967C120.18 137.138 120.798 137.002 121.246 136.609C121.974 135.969 122.899 135.616 123.85 135.616C125.112 135.616 126.312 136.237 127.063 137.278C127.388 137.728 127.909 137.996 128.465 137.996C129.02 137.996 129.542 137.728 129.867 137.278C130.617 136.237 131.818 135.616 133.079 135.616C133.939 135.616 134.762 135.896 135.46 136.427C135.919 136.775 136.521 136.872 137.067 136.685C137.612 136.498 138.028 136.052 138.176 135.495C138.639 133.755 140.212 132.539 142 132.539C143.882 132.539 145.516 133.881 145.885 135.73C145.997 136.289 146.378 136.757 146.902 136.981C147.425 137.204 148.026 137.156 148.508 136.85C149.145 136.445 149.873 136.231 150.614 136.231C152.656 136.231 154.341 137.783 154.553 139.77H117.981C117.026 139.77 116.252 140.544 116.252 141.498C116.252 142.453 117.026 143.227 117.981 143.227H157.258V148.543Z" fill="#0C1A40"/>
<path d="M66.1875 138.966H81.2125C82.5469 138.966 83.6324 137.88 83.6324 136.546V99.611C83.6324 98.2765 82.5469 97.191 81.2125 97.191H66.1875C64.8531 97.191 63.7676 98.2765 63.7676 99.611V136.546C63.7676 137.88 64.8531 138.966 66.1875 138.966ZM75.4286 100.648H80.1756V106.785H75.4286V100.648ZM75.4286 110.242H80.1756V116.35H75.4286V110.242ZM75.4286 119.807H80.1756V125.914H75.4286V119.807ZM75.4286 129.371H80.1756V135.509H75.4286V129.371ZM67.2246 100.648H71.9716V106.785H67.2246V100.648ZM67.2246 110.242H71.9716V116.35H67.2246V110.242ZM67.2246 119.807H71.9716V125.914H67.2246V119.807ZM67.2246 129.371H71.9716V135.509H67.2246V129.371Z" fill="#0C1A40"/>
<path d="M65.4961 145.35H81.9039C82.8587 145.35 83.6324 144.576 83.6324 143.621C83.6324 142.666 82.8587 141.893 81.9039 141.893H65.4961C64.5413 141.893 63.7676 142.666 63.7676 143.621C63.7676 144.576 64.5415 145.35 65.4961 145.35Z" fill="#0C1A40"/>
<path d="M148.286 123.707V120.052C148.286 118.434 146.976 117.118 145.361 117.106V100.375C145.361 99.4204 144.588 98.6465 143.633 98.6465C142.678 98.6465 141.904 99.4204 141.904 100.375V117.104H133.764L134.987 110.17H135.035C135.99 110.17 136.764 109.396 136.764 108.441C136.764 107.487 135.99 106.713 135.035 106.713H121.668C120.713 106.713 119.94 107.487 119.94 108.441C119.94 109.396 120.713 110.17 121.668 110.17H121.716L122.94 117.104H98.5689V94.7285H141.904V101.527C141.904 102.482 142.678 103.256 143.633 103.256C144.587 103.256 145.361 102.482 145.361 101.527V94.1523C145.361 92.5637 144.069 91.2715 142.48 91.2715H97.9928C96.4042 91.2715 95.1119 92.5637 95.1119 94.1523V117.106C93.4975 117.118 92.1875 118.434 92.1875 120.052V123.707C92.1875 125.332 93.5095 126.654 95.1345 126.654H145.338C146.964 126.654 148.286 125.332 148.286 123.707ZM131.477 110.17L130.254 117.104H126.45L125.226 110.17H131.477ZM144.829 123.197H95.6445V120.562H144.829V123.197Z" fill="#0C1A40"/>
<path d="M100.595 53.5193C100.595 54.4739 101.369 55.2479 102.324 55.2479H133.275C134.23 55.2479 135.004 54.4739 135.004 53.5193C135.004 52.5647 134.23 51.7908 133.275 51.7908H102.324C101.369 51.7908 100.595 52.5647 100.595 53.5193Z" fill="#0C1A40"/>
</g>
<defs>
<clipPath id="clip0_1338_5210">
<rect width="118" height="118" fill="white" transform="translate(44 34)"/>
</clipPath>
</defs>
</svg>
