<svg width="150" height="140" viewBox="0 0 150 140" fill="none" xmlns="http://www.w3.org/2000/svg">
<path d="M105.08 53.5199H90.6654V33.0993C90.6654 28.93 89.0404 25.007 86.0902 22.0536C83.142 19.1086 79.219 17.4836 75.0497 17.4836C66.4392 17.4836 59.4341 24.4887 59.4341 33.0993V53.5199H45.0195V33.0993C45.0195 16.5405 58.4913 3.06876 75.05 3.06876C83.0669 3.06876 90.6074 6.1909 96.2832 11.8606C101.958 17.5417 105.081 25.0824 105.081 33.099V53.5199H105.08Z" fill="#685E68"/>
<path d="M79.4626 3.38759C64.9753 5.51713 53.8173 18.0303 53.8173 33.0984V53.5196H45.0176V33.0984C45.0176 16.5402 58.4899 3.06787 75.0481 3.06787C76.5411 3.06787 78.0136 3.1764 79.4626 3.38759Z" fill="#554E56"/>
<path d="M107.624 117.905H42.4726C39.8978 117.905 37.8105 115.818 37.8105 113.243V52.8966C37.8105 50.3218 39.8978 48.2345 42.4726 48.2345H107.624C110.199 48.2345 112.286 50.3218 112.286 52.8966V113.243C112.286 115.818 110.199 117.905 107.624 117.905Z" fill="#FE646F"/>
<path d="M82.5352 100.778H67.564C66.7309 100.778 66.0856 100.056 66.1765 99.2291L68.4348 79.1411C68.4806 78.7343 68.3794 78.3269 68.1576 77.9828C67.2521 76.5784 66.7638 74.8774 66.872 73.0544C67.1149 68.9657 70.4379 65.6321 74.526 65.3781C79.2896 65.0821 83.2421 68.8552 83.2421 73.5542C83.2421 75.1871 82.7643 76.7063 81.9427 77.981C81.7206 78.3257 81.6186 78.7337 81.6643 79.1411L83.9226 99.2288C84.0136 100.056 83.3682 100.778 82.5352 100.778Z" fill="#554E56"/>
<path d="M51.2741 117.904H42.4744C39.899 117.904 37.8105 115.819 37.8105 113.243V52.8977C37.8105 50.3224 39.899 48.2339 42.4744 48.2339H51.2741C48.6987 48.2339 46.6103 50.3224 46.6103 52.8977V113.243C46.6103 115.819 48.6987 117.904 51.2741 117.904Z" fill="#FD4755"/>
<path d="M140.748 137.094H9.34991C5.42875 137.094 2.25 133.916 2.25 129.994V98.7528C2.25 94.8316 5.42875 91.6529 9.34991 91.6529H140.748C144.67 91.6529 147.848 94.8316 147.848 98.7528V129.994C147.849 133.915 144.67 137.094 140.748 137.094Z" fill="#A2F4C1"/>
<path d="M18.1491 137.093H9.34942C5.42768 137.093 2.24805 133.917 2.24805 129.995V98.7531C2.24805 94.8313 5.42768 91.6517 9.34942 91.6517H18.1491C14.2274 91.6517 11.0478 94.8313 11.0478 98.7531V129.995C11.0478 133.917 14.2274 137.093 18.1491 137.093Z" fill="#78D0B1"/>
<path d="M24.5224 128.574C25.7374 128.574 26.7224 127.589 26.7224 126.374V119.339L32.815 122.856C33.1614 123.056 33.5398 123.151 33.9129 123.151C34.6732 123.151 35.4127 122.756 35.8201 122.051C36.4276 120.999 36.0671 119.653 35.0149 119.046L28.9223 115.528L35.0149 112.011C36.0671 111.403 36.4276 110.058 35.8201 109.006C35.2126 107.953 33.8672 107.593 32.815 108.2L26.7224 111.718V104.683C26.7224 103.468 25.7374 102.483 24.5224 102.483C23.3075 102.483 22.3225 103.468 22.3225 104.683V111.718L16.2299 108.2C15.1774 107.592 13.8323 107.953 13.2248 109.005C12.6173 110.057 12.9778 111.403 14.03 112.01L20.1226 115.528L14.03 119.046C12.9778 119.653 12.6173 120.998 13.2248 122.051C13.6322 122.756 14.3717 123.151 15.132 123.151C15.5051 123.151 15.8835 123.056 16.2299 122.856L22.3225 119.338V126.373C22.3225 127.589 23.3072 128.574 24.5224 128.574Z" fill="#0C1A40"/>
<path d="M80.5275 122.051C80.9349 122.757 81.6744 123.151 82.4347 123.151C82.8078 123.151 83.1862 123.056 83.5326 122.856L89.6253 119.339V126.374C89.6253 127.589 90.6102 128.574 91.8252 128.574C93.0401 128.574 94.0251 127.589 94.0251 126.374V119.339L100.118 122.856C100.464 123.056 100.843 123.151 101.216 123.151C101.976 123.151 102.715 122.756 103.123 122.051C103.73 120.999 103.37 119.653 102.318 119.046L96.225 115.528L102.318 112.011C103.37 111.403 103.73 110.058 103.123 109.006C102.515 107.953 101.17 107.593 100.118 108.2L94.0251 111.718V104.683C94.0251 103.468 93.0401 102.483 91.8252 102.483C90.6102 102.483 89.6253 103.468 89.6253 104.683V111.718L83.5326 108.2C82.4802 107.592 81.135 107.953 80.5275 109.005C79.92 110.057 80.2805 111.403 81.3327 112.01L87.4253 115.528L81.3327 119.046C80.2805 119.654 79.92 120.999 80.5275 122.051Z" fill="#0C1A40"/>
<path d="M46.8771 122.051C47.2846 122.757 48.024 123.151 48.7843 123.151C49.1574 123.151 49.5358 123.056 49.8822 122.856L55.9749 119.339V126.374C55.9749 127.589 56.9598 128.574 58.1748 128.574C59.3897 128.574 60.3747 127.589 60.3747 126.374V119.339L66.4674 122.857C66.8138 123.057 67.1922 123.152 67.5653 123.152C68.3256 123.152 69.065 122.757 69.4725 122.052C70.0799 120.999 69.7194 119.654 68.6673 119.046L62.5746 115.529L68.6673 112.011C69.7194 111.404 70.0799 110.058 69.4725 109.006C68.865 107.954 67.5195 107.593 66.4674 108.201L60.3747 111.719V104.684C60.3747 103.469 59.3897 102.484 58.1748 102.484C56.9598 102.484 55.9749 103.469 55.9749 104.684V111.719L49.8822 108.201C48.8298 107.593 47.4846 107.954 46.8771 109.007C46.2697 110.059 46.6301 111.404 47.6823 112.012L53.7749 115.529L47.6823 119.047C46.6301 119.654 46.2697 120.999 46.8771 122.051Z" fill="#0C1A40"/>
<path d="M114.18 122.051C114.587 122.757 115.327 123.151 116.087 123.151C116.46 123.151 116.839 123.056 117.185 122.856L123.278 119.339V126.374C123.278 127.589 124.263 128.574 125.478 128.574C126.693 128.574 127.678 127.589 127.678 126.374V119.339L133.77 122.857C134.117 123.057 134.495 123.152 134.868 123.152C135.628 123.152 136.368 122.757 136.775 122.052C137.383 120.999 137.022 119.654 135.97 119.046L129.878 115.529L135.97 112.011C137.022 111.404 137.383 110.058 136.775 109.006C136.168 107.954 134.822 107.593 133.77 108.201L127.678 111.719V104.684C127.678 103.469 126.693 102.484 125.478 102.484C124.263 102.484 123.278 103.469 123.278 104.684V111.719L117.185 108.201C116.133 107.593 114.788 107.954 114.18 109.007C113.573 110.059 113.933 111.404 114.985 112.012L121.078 115.529L114.985 119.047C113.933 119.654 113.572 120.999 114.18 122.051Z" fill="#0C1A40"/>
<path d="M140.699 89.3711H114.437V68.3163C114.437 67.1014 113.452 66.1164 112.237 66.1164C111.023 66.1164 110.038 67.1014 110.038 68.3163V89.3711H84.9885L83.8182 78.9716C84.8486 77.3252 85.3925 75.4271 85.3925 73.473C85.3925 70.6166 84.1986 67.8561 82.1169 65.8999C80.005 63.915 77.2419 62.9221 74.3394 63.1022C69.1136 63.4249 64.9375 67.6126 64.626 72.8432C64.4966 75.0164 65.0323 77.1298 66.1815 78.9734L65.0111 89.3708H39.9625V52.8142C39.9625 51.4572 41.0665 50.3532 42.4234 50.3532H107.577C108.933 50.3532 110.038 51.4572 110.038 52.8142V58.05C110.038 59.2649 111.023 60.2499 112.237 60.2499C113.452 60.2499 114.437 59.2649 114.437 58.05V52.8142C114.437 49.0312 111.36 45.9533 107.577 45.9533H107.23V33.0177C107.23 24.4125 103.878 16.3173 97.7886 10.2218C91.6983 4.13793 83.6052 0.787292 75.0003 0.787292C57.2284 0.787292 42.7699 15.2458 42.7699 33.0177V45.9533H42.4237C38.6407 45.9533 35.5629 49.0312 35.5629 52.8142V89.3711H9.3013C4.17253 89.3711 0 93.5436 0 98.6724V129.911C0 135.04 4.17253 139.213 9.3013 139.213H24.5219C25.7368 139.213 26.7218 138.228 26.7218 137.013C26.7218 135.798 25.7368 134.813 24.5219 134.813H9.3013C6.59861 134.813 4.39986 132.614 4.39986 129.911V98.6724C4.39986 95.9697 6.59861 93.771 9.3013 93.771H140.699C143.401 93.771 145.6 95.9697 145.6 98.6724V129.911C145.6 132.614 143.401 134.813 140.699 134.813H34.7882C33.5733 134.813 32.5883 135.798 32.5883 137.013C32.5883 138.228 33.5733 139.213 34.7882 139.213H140.699C145.827 139.213 150 135.04 150 129.911V98.6724C150 93.5436 145.827 89.3711 140.699 89.3711ZM88.4166 45.9533H61.5834V33.0177C61.5834 25.6198 67.6021 19.6011 75 19.6011C78.5824 19.6011 81.9515 20.9956 84.4843 23.5258C87.0201 26.0642 88.4166 29.4351 88.4166 33.0174V45.9533ZM47.1694 33.0177C47.1694 17.6719 59.6542 5.18715 75 5.18715C82.4308 5.18715 89.4195 8.0805 94.6773 13.333C99.9349 18.5962 102.831 25.587 102.831 33.0177V45.9533H92.8165V33.0177C92.8165 28.2609 90.963 23.7856 87.5953 20.4148C84.2297 17.053 79.7565 15.2015 75 15.2015C65.176 15.2015 57.1835 23.194 57.1835 33.018V45.9536H47.1694V33.0177ZM69.9575 76.7124C69.2664 75.6377 68.9417 74.3905 69.0182 73.1051C69.1948 70.1414 71.6511 67.6766 74.6116 67.4938C76.2903 67.39 77.8863 67.962 79.1039 69.1062C80.3218 70.2508 80.9926 71.8016 80.9926 73.473C80.9926 74.6269 80.6647 75.745 80.0434 76.708C79.5489 77.4762 79.3298 78.3955 79.428 79.3069L80.5608 89.3711H69.4389L70.5726 79.2966C70.6705 78.3917 70.4499 77.471 69.9575 76.7124Z" fill="#0C1A40"/>
</svg>
