<svg width="80" height="80" viewBox="0 0 80 80" fill="none" xmlns="http://www.w3.org/2000/svg">
<path d="M72.6725 78.8281C69.2728 78.8281 66.5169 76.1767 66.5169 72.9063V14.1145C66.5169 12.3711 65.1036 10.9578 63.3602 10.9578H4.32859C2.58516 10.9578 1.17188 12.3711 1.17188 14.1145V72.9063C1.17188 76.1769 3.92781 78.8281 7.3275 78.8281H72.6725Z" fill="#E7ECF6"/>
<path d="M6.22266 43.3145H28.32V68.5686H6.22266V43.3145Z" fill="#DF75A5"/>
<path d="M6.22266 15.8508H61.4659V37.0011H6.22266V15.8508Z" fill="#FFE07D"/>
<path d="M75.7501 1.17188C74.0502 1.17188 72.6723 2.54984 72.6723 4.24969V59.7297C72.6723 61.4731 71.259 62.8864 69.5156 62.8864H66.5167V14.1145C66.5167 12.3711 65.1034 10.9578 63.3599 10.9578H7.64307V4.24969C7.64307 2.54984 9.02103 1.17188 10.7209 1.17188H75.7501Z" fill="#D8E2F1"/>
<path d="M66.5166 72.9062C66.5166 76.1769 69.2725 78.8281 72.6722 78.8281C76.0719 78.8281 78.8279 76.1767 78.8279 72.9062V4.32343C78.8279 2.65452 77.53 1.23312 75.8622 1.1739C74.1113 1.11171 72.6722 2.51265 72.6722 4.24968V59.7297C72.6722 61.4731 71.2589 62.8864 69.5155 62.8864H66.5166V72.9062Z" fill="#A2B9E2"/>
<path d="M61.4658 42.1427H34.6333C33.9861 42.1427 33.4614 42.6673 33.4614 43.3145C33.4614 43.9617 33.9861 44.4864 34.6333 44.4864H61.4658C62.113 44.4864 62.6377 43.9617 62.6377 43.3145C62.6377 42.6673 62.113 42.1427 61.4658 42.1427Z" fill="#0C1A40"/>
<path d="M61.4658 47.1936H34.6333C33.9861 47.1936 33.4614 47.7183 33.4614 48.3655C33.4614 49.0127 33.9861 49.5374 34.6333 49.5374H61.4658C62.113 49.5374 62.6377 49.0127 62.6377 48.3655C62.6377 47.7183 62.113 47.1936 61.4658 47.1936Z" fill="#0C1A40"/>
<path d="M61.4658 52.2444H34.6333C33.9861 52.2444 33.4614 52.7691 33.4614 53.4163C33.4614 54.0634 33.9861 54.5881 34.6333 54.5881H61.4658C62.113 54.5881 62.6377 54.0634 62.6377 53.4163C62.6377 52.7691 62.113 52.2444 61.4658 52.2444Z" fill="#0C1A40"/>
<path d="M61.4658 57.2952H34.6333C33.9861 57.2952 33.4614 57.8199 33.4614 58.467C33.4614 59.1142 33.9861 59.6389 34.6333 59.6389H61.4658C62.113 59.6389 62.6377 59.1142 62.6377 58.467C62.6377 57.8199 62.113 57.2952 61.4658 57.2952Z" fill="#0C1A40"/>
<path d="M61.4658 62.3459H34.6333C33.9861 62.3459 33.4614 62.8706 33.4614 63.5178C33.4614 64.165 33.9861 64.6897 34.6333 64.6897H61.4658C62.113 64.6897 62.6377 64.165 62.6377 63.5178C62.6377 62.8706 62.113 62.3459 61.4658 62.3459Z" fill="#0C1A40"/>
<path d="M61.4658 67.3967H34.6333C33.9861 67.3967 33.4614 67.9214 33.4614 68.5686C33.4614 69.2158 33.9861 69.7405 34.6333 69.7405H61.4658C62.113 69.7405 62.6377 69.2158 62.6377 68.5686C62.6377 67.9214 62.113 67.3967 61.4658 67.3967Z" fill="#0C1A40"/>
<path d="M6.22266 74.7914H61.4659C62.1131 74.7914 62.6378 74.2667 62.6378 73.6195C62.6378 72.9723 62.1131 72.4477 61.4659 72.4477H6.22266C5.57547 72.4477 5.05078 72.9723 5.05078 73.6195C5.05078 74.2667 5.57547 74.7914 6.22266 74.7914Z" fill="#0C1A40"/>
<path d="M5.05078 68.5686C5.05078 69.2158 5.57547 69.7405 6.22266 69.7405H28.32C28.9672 69.7405 29.4919 69.2158 29.4919 68.5686V43.3145C29.4919 42.6673 28.9672 42.1427 28.32 42.1427H6.22266C5.57547 42.1427 5.05078 42.6673 5.05078 43.3145V68.5686ZM7.39453 44.4864H27.1481V67.3967H7.39453V44.4864Z" fill="#0C1A40"/>
<path d="M62.6378 15.8508C62.6378 15.2036 62.1131 14.6789 61.4659 14.6789H6.22266C5.57547 14.6789 5.05078 15.2036 5.05078 15.8508V37.0011C5.05078 37.6483 5.57547 38.173 6.22266 38.173H61.4659C62.1131 38.173 62.6378 37.6483 62.6378 37.0011V15.8508ZM60.2941 35.8292H7.39453V17.0227H60.2941V35.8292Z" fill="#0C1A40"/>
<path d="M10.8478 33.1222C11.495 33.1222 12.0197 32.5975 12.0197 31.9503V24.6814L17.3403 32.3861C17.693 32.8956 18.2781 33.1131 18.8305 32.9405C19.3962 32.7638 19.7619 32.2289 19.7617 31.5666L19.6584 20.8903C19.6522 20.2469 19.1288 19.7297 18.4869 19.7297C18.4831 19.7297 18.4792 19.7297 18.4753 19.7297C17.8281 19.7359 17.3086 20.2656 17.3148 20.9128L17.3866 28.3286L11.8119 20.2561C11.5205 19.8341 10.9886 19.6506 10.4989 19.8033C10.0092 19.9559 9.67578 20.4092 9.67578 20.922V31.9502C9.67594 32.5975 10.2006 33.1222 10.8478 33.1222Z" fill="#0C1A40"/>
<path d="M23.5449 33.1222H28.2004C28.8476 33.1222 29.3723 32.5975 29.3723 31.9503C29.3723 31.3031 28.8476 30.7784 28.2004 30.7784H24.7168V27.5978H27.8571C28.5043 27.5978 29.029 27.0731 29.029 26.4259C29.029 25.7787 28.5043 25.2541 27.8571 25.2541H24.7168V22.0736H28.2004C28.8476 22.0736 29.3723 21.5489 29.3723 20.9017C29.3723 20.2545 28.8476 19.7298 28.2004 19.7298H23.5449C22.8977 19.7298 22.373 20.2545 22.373 20.9017V31.9503C22.373 32.5975 22.8977 33.1222 23.5449 33.1222Z" fill="#0C1A40"/>
<path d="M53.5164 33.1222C55.7433 33.1222 57.612 31.7089 57.9597 29.7617C58.2198 28.3045 57.5478 26.3972 54.8814 25.4136C53.4906 24.9006 52.1984 24.3413 51.8379 24.1831C51.5525 23.965 51.4148 23.623 51.4678 23.2531C51.5015 23.0184 51.6689 22.4458 52.4933 22.1973C54.1639 21.6945 55.6897 22.9086 55.7267 22.9388C56.2222 23.3508 56.9578 23.2855 57.3728 22.7916C57.7892 22.2963 57.7251 21.557 57.2297 21.1405C57.1289 21.0558 54.7284 19.0764 51.8172 19.9533C50.3706 20.3891 49.3478 21.5258 49.1476 22.9202C48.9606 24.2234 49.5253 25.4769 50.6214 26.1914C50.6731 26.2252 50.7275 26.2548 50.7839 26.2798C50.8476 26.3083 52.3629 26.9828 54.0701 27.6125C55.1984 28.0288 55.7751 28.6619 55.6522 29.3497C55.5267 30.052 54.6936 30.7784 53.5162 30.7784C52.3601 30.7784 51.2453 30.31 50.5344 29.5255C50.0997 29.0459 49.3587 29.0094 48.879 29.4441C48.3995 29.8788 48.3631 30.6197 48.7976 31.0994C49.9458 32.3661 51.7097 33.1222 53.5164 33.1222Z" fill="#0C1A40"/>
<path d="M34.2543 32.0117C34.2654 32.0677 34.2804 32.1227 34.2996 32.1764C34.5008 32.743 35.0382 33.122 35.6388 33.122H35.6483C36.2529 33.118 36.7897 32.7308 36.9844 32.1584C36.9879 32.1483 36.9911 32.138 36.9944 32.1277L39.2366 24.8836L41.4688 32.1294C41.4736 32.1453 41.479 32.1613 41.4846 32.1769C41.686 32.7433 42.2233 33.122 42.8238 33.122H42.8335C43.4379 33.118 43.9747 32.7306 44.1693 32.1584C44.1858 32.1098 44.1991 32.0602 44.2091 32.0098L46.3704 21.1506C46.4966 20.5159 46.0844 19.8989 45.4497 19.7725C44.8152 19.6466 44.198 20.0583 44.0716 20.6931L42.6299 27.9375L40.356 20.5566L40.3493 20.5586C40.235 20.2097 39.96 19.9192 39.5825 19.8023C38.9643 19.6113 38.308 19.957 38.1166 20.5753L35.8375 27.9383L34.4007 20.6742C34.275 20.0392 33.6579 19.6263 33.0238 19.752C32.389 19.8777 31.976 20.4942 32.1016 21.1289L34.2543 32.0117Z" fill="#0C1A40"/>
<path d="M75.9042 0.0028125C75.8777 0.00171875 75.7755 0 75.75 0H54.1547C53.5075 0 52.9828 0.524687 52.9828 1.17188C52.9828 1.81906 53.5075 2.34375 54.1547 2.34375H71.952C71.663 2.91734 71.5 3.565 71.5 4.25V30.8594C71.5 31.5066 72.0247 32.0312 72.6719 32.0312C73.3191 32.0312 73.8438 31.5066 73.8438 30.8594V4.25C73.8358 3.21969 74.7258 2.32938 75.7858 2.34188C76.7731 2.35453 77.6555 3.25875 77.6562 4.32344V72.9062C77.6562 75.5255 75.4205 77.6562 72.6725 77.6562C72.6723 77.6562 72.6723 77.6562 72.6722 77.6562C72.672 77.6562 72.672 77.6562 72.6719 77.6562C69.9244 77.6562 67.6891 75.5255 67.6891 72.9062V64.0578H69.5156C71.9022 64.0578 73.8438 62.1162 73.8438 59.7297V36.3281C73.8438 35.6809 73.3191 35.1562 72.6719 35.1562C72.0247 35.1562 71.5 35.6809 71.5 36.3281V59.7297C71.5 60.8239 70.6098 61.7141 69.5156 61.7141H67.6891V14.1141C67.6891 11.7275 65.7467 9.78594 63.3594 9.78594H8.81562V4.25C8.81562 3.19891 9.67 2.34375 10.7203 2.34375H48.6859C49.3331 2.34375 49.8578 1.81906 49.8578 1.17188C49.8578 0.524687 49.3331 0 48.6859 0H10.7203C8.37766 0 6.47187 1.90656 6.47187 4.25V9.78594H4.32812C1.94156 9.78594 0 11.7275 0 14.1141V48.6672C0 49.3144 0.524687 49.8391 1.17188 49.8391C1.81906 49.8391 2.34375 49.3144 2.34375 48.6672V14.1141C2.34375 13.0198 3.23391 12.1297 4.32812 12.1297H63.3594C64.4544 12.1297 65.3453 13.0198 65.3453 14.1141V72.9062C65.3453 74.7314 66.0609 76.3978 67.2348 77.6562H7.32812C4.57969 77.6562 2.34375 75.5255 2.34375 72.9062V54.1359C2.34375 53.4888 1.81906 52.9641 1.17188 52.9641C0.524687 52.9641 0 53.4888 0 54.1359V72.9062C0 76.8178 3.28734 80 7.32812 80H72.6719H72.6722C72.6722 80 72.6723 80 72.6725 80C76.7128 80 80 76.8177 80 72.9062V4.32344C80 1.98234 78.2008 0.084375 75.9042 0.0028125Z" fill="#0C1A40"/>
</svg>
