<svg width="94" height="94" viewBox="0 0 94 94" fill="none" xmlns="http://www.w3.org/2000/svg">
<g clip-path="url(#clip0_160_2666)">
<path d="M84.0971 74.4585C89.0683 67.2229 91.9799 58.4619 91.9799 49.0197C91.9799 24.1778 71.8415 4.03943 46.9996 4.03943C22.1577 4.03943 2.01953 24.1778 2.01953 49.0197C2.01953 58.466 4.93371 67.2306 9.90892 74.468L84.0971 74.4585Z" fill="#FE5C45"/>
<path d="M46.7568 3.40254C36.3171 3.40254 27.8239 11.8958 27.8239 22.3355C27.8481 22.699 27.7567 22.8956 27.939 23.0271C28.1819 23.202 28.3267 23.4842 28.3267 23.7818V24.8547C28.3267 25.8283 29.4791 26.3185 29.6323 25.8428C30.0191 24.6414 31.0893 24.5399 31.538 24.5474C31.5512 24.5476 31.5642 24.5483 31.578 24.5476C31.9474 24.5491 32.3046 24.6599 32.6118 24.8685C32.762 24.9713 32.9746 24.9021 33.0315 24.7231C33.2002 24.1877 33.2577 23.6458 33.2202 23.1381C33.0247 20.4751 33.1697 15.7951 36.338 14.3693C39.1661 13.0954 42.0138 13.9783 43.8856 14.3368C44.9432 14.6447 46.6855 15.3855 49.1286 14.5729C51.4263 13.8086 54.733 13.1528 57.437 14.3691C60.5992 15.7924 60.7485 20.4604 60.5559 23.1167C60.5206 23.6065 60.5706 24.0994 60.704 24.5816C60.751 24.7517 60.9432 24.8338 61.0977 24.7539C62.0764 24.2503 63.4943 24.6421 63.8813 25.8427C63.9237 25.9747 64.0566 26.0538 64.193 26.0305C64.7688 25.9286 65.1868 25.4342 65.1868 24.8546V23.7816C65.1868 23.4842 65.3317 23.202 65.5746 23.0269C65.7574 22.8951 65.6656 22.6953 65.6897 22.3353C65.6897 11.8958 57.1965 3.40254 46.7568 3.40254Z" fill="#41416B"/>
<path d="M46.231 4.02401C46.4342 3.88264 46.4948 3.62396 46.4056 3.40695C36.1274 3.59495 27.8239 12.0131 27.8239 22.3353C27.8481 22.6988 27.7567 22.8954 27.939 23.0269C28.1819 23.2018 28.3267 23.484 28.3267 23.7816V24.8546C28.3267 25.8282 29.4791 26.3183 29.6323 25.8427C30.0191 24.6412 31.0893 24.5397 31.538 24.5472C31.5512 24.5474 31.5642 24.5481 31.578 24.5474C31.9474 24.5489 32.3046 24.6598 32.6118 24.8683C32.762 24.9713 32.9746 24.9019 33.0315 24.7229C33.2002 24.1876 33.2577 23.6456 33.2202 23.138C33.0247 20.4749 33.1697 15.7949 36.338 14.3692C39.1365 13.1086 41.9536 13.9596 43.8259 14.3249L43.9505 14.0671C43.9507 14.0671 40.3706 8.09887 46.231 4.02401Z" fill="#35355E"/>
<path d="M9.78174 74.2844C17.8751 86.1837 31.5242 94 46.9999 94C62.4798 94 76.132 86.1796 84.2246 74.2749C83.1161 70.7366 81.0716 67.2741 77.3503 65.3584L77.3514 65.3559C77.1008 65.2365 76.7668 65.0608 76.1865 64.8334C64.2478 59.5262 62.8721 59.7642 61.6618 59.3603C61.6984 59.3962 61.7311 59.4361 61.7553 59.4842C61.7125 59.8422 61.942 59.7834 61.1012 61.9451C59.3583 66.2698 56.1893 70.0678 52.5169 72.9719C52.1458 73.2649 51.6325 73.2844 51.2392 73.0218C50.6058 72.5988 49.4911 76.594 49.5515 77.7277C49.5728 78.4079 49.5568 77.5986 49.5623 86.8417C49.5623 87.2059 49.2606 87.5022 48.8898 87.5022C48.8588 87.5022 45.0031 87.5022 45.1202 87.5022C44.7496 87.5022 44.4477 87.2059 44.4477 86.8417C44.4534 77.5988 44.4373 78.407 44.4586 77.7277C44.4591 77.7196 44.4587 77.7114 44.4582 77.7035C44.3031 75.7049 43.3432 72.6396 42.7708 73.0218C42.3775 73.2846 41.8642 73.2649 41.4932 72.9719C37.8207 70.0676 34.6517 66.2698 32.9089 61.9451C32.0678 59.7834 32.2975 59.8422 32.2547 59.4842C32.2789 59.4361 32.3116 59.3962 32.348 59.3603C31.1377 59.7642 29.7622 59.5262 17.8235 64.8334C17.2432 65.0608 16.909 65.2364 16.6584 65.3559L16.6597 65.3584C12.9348 67.2757 10.8899 70.7429 9.78174 74.2844Z" fill="#FFDD40"/>
<path d="M32.2547 59.4842C32.2789 59.4361 32.3114 59.3962 32.3479 59.3603C31.1377 59.7642 29.7622 59.5262 17.8234 64.8334C17.2431 65.0608 16.909 65.2364 16.6584 65.3559L16.6596 65.3584C12.9353 67.2757 10.8904 70.7429 9.78223 74.2844C12.7833 78.6967 16.5478 82.5476 20.8869 85.6467L22.3369 80.8618C22.9558 78.8195 24.4064 77.1325 26.3327 76.2145L37.0588 71.1031V68.6997C35.3317 66.6599 33.8929 64.3865 32.909 61.9449C32.0676 59.7834 32.2972 59.8422 32.2547 59.4842Z" fill="#FFC839"/>
<path d="M35.9549 56.3126L36.155 57.4147L36.1613 57.4408C36.2193 57.6942 36.2852 57.9492 36.3573 58.1988L36.3685 58.2367C36.3926 58.3198 36.4183 58.4045 36.4442 58.4875L36.46 58.5379C36.4877 58.625 36.5163 58.7133 36.5474 58.8058L36.5578 58.8361C37.2171 60.7725 38.6574 63.5947 41.7724 66.0433C42.5799 66.6781 43.4622 67.2616 44.3951 67.7775C44.814 68.0092 45.1194 68.3615 45.278 68.7964C45.2884 68.8253 45.3044 68.8519 45.3248 68.875C45.8031 69.4133 46.26 70.005 46.683 70.6337C46.7743 70.7688 46.9984 70.7688 47.0891 70.6337C47.5103 70.007 47.9685 69.4144 48.4505 68.8724C48.471 68.8495 48.4868 68.8229 48.4973 68.794C48.6567 68.36 48.9614 68.0084 49.3789 67.7775C56.0777 64.0724 57.5182 58.611 57.8248 56.2728C57.0049 54.3955 56.743 52.0749 56.6817 50.2935C55.6923 51.4459 54.6541 52.4096 53.662 53.1801C51.7291 54.6812 49.3439 55.4964 46.8872 55.4964C44.4305 55.4964 42.0453 54.681 40.1124 53.1801C39.1202 52.4096 38.0818 51.4459 37.0925 50.2935C37.0311 52.0749 36.7691 54.3957 35.9492 56.273L35.9549 56.3126Z" fill="#FCA870"/>
<path d="M40.1129 53.18C39.1207 52.4094 38.0823 51.4457 37.0929 50.2933C37.0316 52.0747 36.7696 54.3955 35.9497 56.2728L35.9547 56.3126L36.1548 57.4147L36.161 57.4408C36.219 57.6942 36.285 57.9492 36.3571 58.1989L36.3683 58.2367C36.3924 58.3198 36.4179 58.4045 36.4439 58.4875L36.4597 58.538C36.4875 58.625 36.5161 58.7133 36.5471 58.8056L36.5576 58.8359C37.2169 60.7723 38.6572 63.5945 41.7722 66.0431C42.0261 66.2428 42.2899 66.4352 42.558 66.6243C45.2895 62.0246 46.166 57.7525 46.4472 55.4872C44.1472 55.3957 41.9301 54.5911 40.1129 53.18Z" fill="#F9955F"/>
<path d="M62.1151 26.9284C61.9215 26.4234 61.691 25.9594 61.4295 25.5493C60.9825 24.8481 60.7706 23.9913 60.8325 23.1365C61.0302 20.4081 60.8666 15.6088 57.5509 14.1167C54.7662 12.864 51.3862 13.5303 49.0413 14.3102C47.6525 14.7725 46.1228 14.7723 44.7339 14.3102C42.3888 13.5303 39.009 12.8633 36.2243 14.1167C34.7983 14.7584 32.4762 16.7863 32.9442 23.1583C33.0059 23.9977 32.7933 24.847 32.3457 25.5496C32.0918 25.9479 31.8667 26.3973 31.6769 26.8849C31.1208 28.3136 30.9408 29.8992 31.1564 31.4704L31.9341 37.1261C31.9341 46.4929 37.6012 51.9045 40.0377 53.7966C41.9823 55.3071 44.4151 56.1389 46.8876 56.1389C49.3599 56.1389 51.7927 55.3072 53.7373 53.7966C56.1738 51.9047 61.8409 46.4927 61.8397 37.143L62.6185 31.4716C62.8322 29.916 62.6581 28.345 62.1151 26.9284Z" fill="#F9BD91"/>
<path d="M46.5806 53.7965C44.8473 51.9045 40.816 46.4927 40.816 37.126L40.2628 31.4702C40.1093 29.899 40.2373 28.3135 40.6329 26.8847C40.7681 26.3969 40.9281 25.9475 41.1088 25.5493C41.4273 24.8467 41.5784 23.9975 41.5346 23.158C41.2017 16.786 42.8535 14.758 43.8679 14.1163C43.8952 14.0991 43.9229 14.0835 43.9505 14.0668C41.6748 13.4097 38.7122 12.9964 36.2241 14.1163C34.7983 14.758 32.4762 16.786 32.9442 23.158C33.0059 23.9974 32.7933 24.8467 32.3457 25.5493C32.0918 25.9475 31.8667 26.3969 31.6769 26.8847C31.1208 28.3135 30.9408 29.899 31.1564 31.4702L31.9341 37.126C31.9341 46.4927 37.6012 51.9043 40.0377 53.7965C41.9823 55.3069 44.4151 56.1388 46.8876 56.1388C47.7896 56.1388 48.6859 56.0268 49.5556 55.8129C48.4783 55.4404 47.4593 54.7559 46.5806 53.7965Z" fill="#FCA870"/>
<path d="M47.0597 70.7572C45.7246 68.6938 44.4084 67.6102 44.4084 67.6102L41.0073 73.0727C43.4574 74.6498 43.8951 78.5025 43.9731 79.7438C44.1763 75.7544 45.6871 72.7228 47.0597 70.7572Z" fill="#FF9100"/>
<path d="M49.785 87.7014V80.1379C49.785 80.1379 49.8276 74.965 52.7678 73.0727L49.3668 67.6102C49.3668 67.6102 43.9473 72.0633 43.9473 80.1381V87.7016H49.785V87.7014Z" fill="#FFB332"/>
<path d="M44.5139 67.5632C37.731 63.8119 36.4237 58.2268 36.1729 56.0877C36.1284 55.7088 35.6898 55.5215 35.3823 55.7471L30.791 59.1133C30.5459 59.2931 30.4284 59.6032 30.5024 59.8976C32.3292 67.1687 38.2016 72.4777 40.7903 74.5244C41.4492 75.0454 42.4101 74.8943 42.879 74.1974C43.5421 73.2119 44.4801 71.818 45.2543 70.6676C45.977 69.5934 45.6469 68.1898 44.5139 67.5632Z" fill="#FFC839"/>
<path d="M41.9241 65.851C37.3813 62.2801 36.3877 57.92 36.1729 56.0877C36.1284 55.709 35.6898 55.5217 35.3823 55.7473L30.791 59.1135C30.5459 59.2933 30.4284 59.6033 30.5024 59.898C31.6713 64.551 34.4965 68.3984 37.0582 71.1035C39.0918 64.4273 41.3601 65.4613 41.9241 65.851Z" fill="#FFB332"/>
<path d="M62.9839 59.1133L58.3925 55.7471C58.085 55.5215 57.6464 55.7088 57.602 56.0877C57.3512 58.2268 56.0438 63.8119 49.261 67.5632C48.128 68.1898 47.7977 69.5934 48.5207 70.6676C49.2947 71.818 50.2327 73.2119 50.896 74.1974C51.3649 74.8943 52.3261 75.0452 52.9848 74.5244C55.5735 72.4777 61.4459 67.1687 63.2725 59.8976C63.3465 59.603 63.229 59.2929 62.9839 59.1133Z" fill="#FFC839"/>
<path d="M48.2899 77.9328C48.2899 78.5662 47.7766 79.0797 47.143 79.0797C46.5096 79.0797 45.9961 78.5662 45.9961 77.9328C45.9961 77.2994 46.5096 76.7859 47.143 76.7859C47.7766 76.7859 48.2899 77.2994 48.2899 77.9328Z" fill="#FFC839"/>
<path d="M48.0345 83.6215C48.0345 84.2549 47.521 84.7684 46.8876 84.7684C46.2542 84.7684 45.7407 84.2549 45.7407 83.6215C45.7407 82.9881 46.2542 82.4745 46.8876 82.4745C47.521 82.4745 48.0345 82.9881 48.0345 83.6215Z" fill="#FFC839"/>
<path d="M43.9473 87.4459V89.5888C43.9473 90.1253 44.3879 90.56 44.9313 90.56H48.8011C49.3446 90.56 49.7852 90.1253 49.7852 89.5888V87.4459H43.9473Z" fill="#FF9100"/>
<path d="M46.7571 0C34.6375 0 24.8125 9.82484 24.8125 21.9444V24.5531H28.101V22.3353C28.101 12.032 36.4536 3.6794 46.7569 3.6794C57.0604 3.6794 65.413 12.032 65.413 22.3353V24.5531H68.7015V21.9444C68.7015 9.82484 58.8767 0 46.7571 0V0Z" fill="#E3E7FC"/>
<path d="M24.8125 21.9444V24.5531H28.101V22.3353C28.101 12.1377 36.2833 3.85235 46.4408 3.68344C46.4622 3.54005 46.4253 3.38749 46.3238 3.2665C45.8283 2.67551 45.2637 1.49317 46.7569 0C34.6373 0 24.8125 9.82484 24.8125 21.9444Z" fill="#C8CEFC"/>
<path d="M67.8429 22.5741H66.1173C65.4505 22.5741 64.9098 23.1148 64.9098 23.7816V24.8546C64.9098 25.4008 64.4378 25.8184 63.8938 25.7694L63.8833 25.7685C63.9507 25.971 63.9876 26.186 63.9876 26.4087V40.7942C63.9876 41.0169 63.9509 41.2319 63.8833 41.4344C65.0565 41.3301 66.1584 40.9941 67.138 40.4751C68.3165 39.8509 69.0502 38.6226 69.0502 37.289V29.0471V28.1203V23.7816C69.0504 23.1146 68.5097 22.5741 67.8429 22.5741Z" fill="#C8CEFC"/>
<path d="M67.1384 31.5249C66.1879 32.0285 65.1218 32.3577 63.9879 32.4722V40.7942C63.9879 41.0169 63.9512 41.2318 63.8838 41.4344C65.057 41.3301 66.1589 40.9943 67.1385 40.4751C68.317 39.8509 69.0507 38.6226 69.0507 37.2888V29.0469V28.3386C69.0507 29.6724 68.3168 30.9007 67.1384 31.5249Z" fill="#B8C0F4"/>
<path d="M62.1097 42.9321H61.9428C60.7669 42.9321 59.8047 41.9701 59.8047 40.7942V26.4087C59.8047 25.2328 60.7669 24.2705 61.9428 24.2705H62.1097C63.2856 24.2705 64.2478 25.2328 64.2478 26.4087V40.7942C64.2477 41.9701 63.2856 42.9321 62.1097 42.9321Z" fill="#E3E7FC"/>
<path d="M25.6707 22.5741H27.3963C28.0631 22.5741 28.6038 23.1148 28.6038 23.7816V24.8546C28.6038 25.4008 29.0758 25.8184 29.6198 25.7694L29.6303 25.7685C29.5629 25.971 29.5262 26.186 29.5262 26.4087V40.7942C29.5262 41.0169 29.5629 41.2319 29.6303 41.4344C28.4571 41.3301 27.3552 40.9941 26.3755 40.4751C25.197 39.8509 24.4634 38.6226 24.4634 37.289V29.0471V28.1203V23.7816C24.4634 23.1146 25.0039 22.5741 25.6707 22.5741Z" fill="#B8C0F4"/>
<path d="M29.526 32.2886C28.3921 32.1741 27.3258 31.8449 26.3755 31.3413C25.197 30.7171 24.4634 29.4888 24.4634 28.155V29.0469V37.2888C24.4634 38.6224 25.1972 39.8507 26.3755 40.4751C27.3552 40.9941 28.4571 41.3299 29.6303 41.4344C29.5629 41.2318 29.5262 41.017 29.5262 40.7942V32.2886H29.526Z" fill="#A4B0EA"/>
<path d="M31.4041 42.9321H31.5711C32.7471 42.9321 33.7093 41.9701 33.7093 40.7942V26.4087C33.7093 25.2328 32.7472 24.2705 31.5711 24.2705H31.4041C30.2281 24.2705 29.2661 25.2328 29.2661 26.4087V40.7942C29.2661 41.9701 30.2281 42.9321 31.4041 42.9321Z" fill="#E3E7FC"/>
<path d="M62.1097 33.8523H61.9426C60.7667 33.8523 59.8047 32.8901 59.8047 31.7144V40.7944C59.8047 41.9703 60.7667 42.9325 61.9426 42.9325H62.1097C63.2856 42.9325 64.2477 41.9705 64.2477 40.7944V31.7144C64.2478 32.8901 63.2856 33.8523 62.1097 33.8523Z" fill="#C8CEFC"/>
<path d="M31.5711 33.8523H31.4041C30.2281 33.8523 29.2661 32.8901 29.2661 31.7144V40.7944C29.2661 41.9703 30.2281 42.9325 31.4041 42.9325H31.5711C32.7471 42.9325 33.7093 41.9705 33.7093 40.7944V31.7144C33.7091 32.8901 32.7471 33.8523 31.5711 33.8523Z" fill="#C8CEFC"/>
<path d="M54.7612 56.5459C54.5365 55.8151 54.947 55.0405 55.6779 54.8158C58.4412 53.9666 60.9215 52.9038 62.5155 52.1616C63.105 51.8873 63.5583 51.3737 63.7589 50.7528L65.9415 43.9975C66.3684 42.6767 65.5831 41.783 65.419 41.3209C65.0808 40.6353 65.3626 39.8051 66.0484 39.4666C66.7343 39.1284 67.5641 39.4104 67.9027 40.096C68.029 40.4901 69.4019 42.2936 68.5766 44.8488L66.3941 51.6042C65.9575 52.9556 64.9696 54.0739 63.6842 54.6722C62.0111 55.4508 59.4052 56.5672 56.4914 57.4626C55.7572 57.6886 54.9848 57.2737 54.7612 56.5459Z" fill="#E3E7FC"/>
<path d="M48.276 60.0133C46.8996 60.0133 45.7837 58.8976 45.7837 57.521C45.7837 56.1446 46.8994 55.0287 48.276 55.0287C49.8496 55.0287 51.72 54.7466 53.8352 54.1904C55.1672 53.8398 56.5293 54.6355 56.8794 55.9667C57.2295 57.298 56.4343 58.6608 55.1031 59.0109C52.5741 59.6759 50.2771 60.0133 48.276 60.0133Z" fill="#FF4155"/>
<path d="M50.7903 56.7242C50.7903 55.9166 51.1327 55.1903 51.6778 54.6773C50.4303 54.9098 49.2905 55.0287 48.276 55.0287C46.8996 55.0287 45.7837 56.1446 45.7837 57.521C45.7837 58.8976 46.8994 60.0133 48.276 60.0133C49.7242 60.0133 51.3293 59.8339 53.063 59.4844C51.7679 59.2321 50.7903 58.0929 50.7903 56.7242Z" fill="#E80054"/>
<path d="M77.5804 3.40089H64.9251C58.1806 3.40089 52.6621 8.91917 52.6621 15.6639C52.6621 22.4085 58.1804 27.9268 64.9251 27.9268H73.5488C73.9584 27.9268 74.2906 28.2589 74.2906 28.6685V32.9692C74.2906 33.4552 74.8182 33.7596 75.2381 33.5149C77.6061 32.1342 78.7785 30.2131 79.3583 28.5968C79.5388 28.0935 79.9515 27.706 80.4711 27.5793C85.8327 26.2712 89.8435 21.4135 89.8435 15.6637C89.8433 8.91935 84.3251 3.40089 77.5804 3.40089Z" fill="#49DAFC"/>
<path d="M52.6621 15.6639C52.6621 22.4085 58.1804 27.9268 64.9249 27.9268H68.8483C63.9348 23.111 68.4978 17.1851 68.4978 17.1851L67.5853 14.1628C62.8942 8.65718 67.5853 3.40695 67.5853 3.40695L67.5763 3.40089H64.9251C58.1804 3.40089 52.6621 8.91935 52.6621 15.6639Z" fill="#26C6F7"/>
<path d="M62.6381 15.8118C62.6381 16.7226 61.8999 17.4609 60.9891 17.4609C60.0783 17.4609 59.3398 16.7226 59.3398 15.8118C59.3398 14.901 60.0783 14.1628 60.9891 14.1628C61.8999 14.1628 62.6381 14.901 62.6381 15.8118Z" fill="white"/>
<path d="M69.2341 15.8118C69.2341 16.7226 68.4959 17.4609 67.5851 17.4609C66.6743 17.4609 65.936 16.7226 65.936 15.8118C65.936 14.901 66.6743 14.1628 67.5851 14.1628C68.4959 14.1628 69.2341 14.901 69.2341 15.8118Z" fill="white"/>
<path d="M75.8308 15.8118C75.8308 16.7226 75.0926 17.4609 74.1818 17.4609C73.2709 17.4609 72.5327 16.7226 72.5327 15.8118C72.5327 14.901 73.2709 14.1628 74.1818 14.1628C75.0926 14.1628 75.8308 14.901 75.8308 15.8118Z" fill="white"/>
<path d="M82.427 15.8118C82.427 16.7226 81.6888 17.4609 80.7779 17.4609C79.8671 17.4609 79.1289 16.7226 79.1289 15.8118C79.1289 14.901 79.8671 14.1628 80.7779 14.1628C81.6888 14.1628 82.427 14.901 82.427 15.8118Z" fill="white"/>
</g>
<defs>
<clipPath id="clip0_160_2666">
<rect width="94" height="94" fill="white"/>
</clipPath>
</defs>
</svg>
